<?xml version="1.0" encoding="UTF-8"?>
<svg width="16px" height="16px" viewBox="0 0 18 18" version="1.1" xmlns="http://www.w3.org/2000/svg">
  <path fill="context-fill #666" d="M9,1 C4.58,1 1,4.58 1,9 C1,13.41 4.58,17 9,17 C13.41,17 17,13.41 17,9 C17,4.58 13.41,1 9,1 Z M9,7.76 L9,7.76 L9,7.76 C9.82,7.76 10.5,8.44 10.5,9.26 L10.5,13 L10.5,13 C10.5,13.86 9.82,14.53 9,14.53 L9,14.53 L9,14.53 C8.17,14.53 7.5,13.86 7.5,13 L7.5,9.26 L7.5,9.26 C7.5,8.44 8.17,7.76 9,7.76 Z M9,6.5 C8.17,6.5 7.5,5.82 7.5,5 C7.5,4.17 8.17,3.5 9,3.5 C9.82,3.5 10.5,4.17 10.5,5 C10.5,5.82 9.82,6.5 9,6.5 Z"/>
</svg>