<?xml version="1.0" encoding="utf-8"?>
<!-- Generator: Adobe Illustrator 22.1.0, SVG Export Plug-In . SVG Version: 6.00 Build 0)  -->
<svg version="1.1" id="Livello_1" xmlns="http://www.w3.org/2000/svg" xmlns:xlink="http://www.w3.org/1999/xlink" x="0px" y="0px"
	 viewBox="0 0 16 16" style="enable-background:new 0 0 16 16;" xml:space="preserve">
<style type="text/css">
	.st0{fill:#FFFFFF;}
</style>
<path class="st0" d="M8.7,14c4.1,0,7.3-3.3,7.3-7.3v-1c0-2-1.6-3.7-3.7-3.7c-2,0-3.7,1.6-3.7,3.7c0,2,1.6,3.7,3.7,3.7
	c1.2,0,2.2-0.6,2.9-1.4c-0.6,3-3.3,5.4-6.5,5.4c-0.2,0-0.3,0.1-0.3,0.3S8.5,14,8.7,14L8.7,14z"/>
<path class="st0" d="M0.3,14c4,0,7.3-3.3,7.3-7.3v-1C7.7,3.6,6,2,4,2C2,2,0.3,3.6,0.3,5.7S2,9.3,4,9.3c1.2,0,2.2-0.6,2.9-1.4
	c-0.6,3.1-3.3,5.4-6.5,5.4c-0.2,0-0.3,0.1-0.3,0.3C0,13.9,0.2,14,0.3,14z"/>
</svg>
