<?xml version="1.0" encoding="UTF-8"?>
<svg width="16px" height="16px" viewBox="0 0 16 16" version="1.1" xmlns="http://www.w3.org/2000/svg">
  <path fill="context-fill #666" d="M15.15,5.92 L13.3,5.92 L13.3,5.31 C13.3,2.93 11.37,1 9,1 C6.62,1 4.7,2.93 4.7,5.31 L4.7,5.92 L2.84,5.92 C2.5,5.92 2.23,6.2 2.23,6.53 L2.23,16.38 C2.23,16.72 2.5,17 2.84,17 L15.15,17 C15.5,17 15.77,16.72 15.77,16.38 L15.77,6.53 C15.77,6.2 15.5,5.92 15.15,5.92 Z M9.68,11.25 L9.68,13.51 C9.68,13.88 9.37,14.2 9,14.2 C8.62,14.2 8.31,13.88 8.31,13.5 L8.31,11.25 C7.9,11 7.63,10.6 7.63,10 C7.63,9.34 8.24,8.73 9,8.73 C9.75,8.73 10.36,9.34 10.36,10 C10.36,10.6 10,11 9.68,11.25 Z M12,5.92 L5.92,5.92 L5.92,5.31 C5.92,3.6 7.3,2.23 9,2.23 C10.7,2.23 12,3.6 12,5.3 L12,5.92 Z"/>
</svg>