<?xml version="1.0" encoding="utf-8"?>
<!-- Generator: Adobe Illustrator 22.1.0, SVG Export Plug-In . SVG Version: 6.00 Build 0)  -->
<svg version="1.1" id="Livello_1" xmlns="http://www.w3.org/2000/svg" xmlns:xlink="http://www.w3.org/1999/xlink" x="0px" y="0px"
	 viewBox="0 0 16 16" style="enable-background:new 0 0 16 16;" xml:space="preserve">
<style type="text/css">
	.st0{fill:#FFFFFF;}
</style>
<path class="st0" d="M8,6.9L4,0.3C3.9,0.2,3.8,0.2,3.7,0.3C3.4,0.5,3.1,0.8,3,1.2C2.9,1.6,3,2,3.1,2.4C3.3,2.8,7.5,10,7.5,10
	l-1.1,2.1c-0.4-1-1.3-1.7-2.5-1.7c-1.5,0-2.7,1.2-2.7,2.6c0,1.5,1.2,2.7,2.7,2.7c1.4,0,2.6-1.1,2.7-2.6L8,10.6l1.3,2.5
	c0,1.4,1.2,2.6,2.7,2.6s2.7-1.2,2.7-2.7c0-1.5-1.2-2.7-2.7-2.7c-1.1,0-2,0.7-2.5,1.7L8.4,9.9c0,0,4-6.8,4.4-7.5
	C13,2.1,13.1,1.6,13,1.2c-0.1-0.4-0.4-0.8-0.7-1h-0.2L8,6.9z M6,13.1c0,1.1-0.9,2-2,2s-2-0.9-2-2s0.9-2,2-2S6,12,6,13.1z M12,11.1
	c1,0,2,0.9,2,2s-0.9,2-2,2s-2-0.9-2-2l0,0C10,12,10.9,11.1,12,11.1z"/>
</svg>
