<?xml version="1.0" encoding="UTF-8"?>
<svg width="16px" height="16px" viewBox="0 0 16 16" version="1.1" xmlns="http://www.w3.org/2000/svg">
  <path fill="#fff" d="M8,7 L8,7.27 L10,8 C10.57,8.17 11.17,7.93 11.17,7.48 L11.16,6.74 C11.99,6 12.53,4.91 12.51,3.61 C12.47,0.71 10.16,0 9.42,0 C8.69,0 8.63,0.15 8.21,0.42 C9.56,1.82 9.95,5.16 8,7 Z"/>
  <path fill="#fff" d="M9.12,8.47 L7.21,7.77 L7.21,6.74 C8,6 8.54,4.66 8.52,3.36 C8.5,1.47 7,0 5.5,0 C3.97,0 2.47,1.54 2.47,3.36 C2.47,4.94 2.91,6 3.78,6.74 L3.78,7.77 L1.3,8.69 C0.52,8.97 0,9.74 0,10.59 L0,11.64 C0,11.84 0.15,12 0.34,12 L4.11,12 L4.11,12 C4.3,12 4.48,11.94 4.64,11.84 L9.18,9 L9.18,9 C9.32,8.92 9.36,8.74 9.27,8.6 C9.24,8.54 9.18,8.5 9.12,8.47 Z"/>
  <path fill="#fff" d="m 15.93,6 c -0.1,0 -0.2,0 -0.27,0 -3.18,1.82 -6.35,3.65 -9.53,5.48 0,0.1 -0.13,0.15 -0.12,0.24 0,0.1 0,0.19 0.17,0.22 l 2.882,0.96 0.957,2.88 v 0 c 0.1,0.22 0.36,0.2 0.44,0.1 l 1.42,-1.89 2.29,1 c 0.22,0.11 0.24,-0.1 0.26,-0.14 L 16,6.29 c 0,0 0,-0.16 -0.1,-0.22 z M 13.79,8.56 10.55,13.1 10.23,14.78 9.57,12.82 Z m -3,6.15 0.22,-1.11 0.47,0.2 z"/>
</svg>