<?xml version="1.0" encoding="UTF-8"?>
<svg width="16px" height="16px" viewBox="0 0 14 14" version="1.1" xmlns="http://www.w3.org/2000/svg">
  <path fill="context-fill #666" d="M0.81,13.19 C0.92,13.3 1.11,13.3 1.22,13.19 L2.25,12.15 L2.46,12.36 C2.57,12.47 2.76,12.47 2.87,12.36 C2.9,12.25 2.9,12 2.87,11.95 L2,11.12 C1.93,11 1.75,11 1.63,11.12 C1.52,11.24 1.52,11.42 1.63,11.53 L1.84,11.74 L0.81,12.77 C0.7,12.89 0.7,13 0.81,13.19 L0.81,13.18 Z"/>
  <path fill="context-fill #666" d="M13.18,2.46 L11.53,0.81 C11.42,0.7 11.23,0.7 11.12,0.81 L10.9,1 C10.66,0.88 10.38,0.8 10,0.8 C9.7,0.8 9.33,0.95 9,1.22 L5.76,4.52 C5.64,4.64 5.64,4.82 5.76,4.93 C5.87,5 6,5 6.17,4.93 L9.47,1.63 C9.73,1.38 10.14,1.32 10.46,1.47 L8,3.86 L10.13,5.93 L13.18,2.87 C13.3,2.76 13.3,2.57 13.18,2.46 L13.18,2.46 Z"/>
  <path fill="context-fill #666" d="M7.65,4.28 L2,9.88 C1.93,10 1.93,10.18 2,10.3 L3.7,11.95 C3.81,12.065 4,12 4.11,11.95 L9.71,6.34 L7.65,4.28 L7.65,4.28 Z"/>
</svg>