<?xml version="1.0" encoding="UTF-8"?>
<svg width="16px" height="16px" viewBox="0 0 16 16" version="1.1" xmlns="http://www.w3.org/2000/svg">
  <path fill="context-fill #666" d="M 14.3,4.66 H 1.66 C 0.74,4.66 0,5.4 0,6.33 V 10.3 C 0,11.25 0.74,12 1.66,12 h 1.66 v 3 c 0,0.18 0.15,0.3 0.34,0.3 h 8.66 c 0.18,0 0.33,-0.15 0.33,-0.3 v -3 h 1.66 C 15.25,12 16,11.25 16,10.3 V 6.33 C 16,5.4 15.25,4.66 14.3,4.66 Z M 2.33,8 c -0.55,0 -1,-0.44 -1,-1 0,-0.55 0.44,-1 1,-1 0.55,0 1,0.44 1,1 0,0.55 -0.44,1 -1,1 z M 12,14.66 H 4 V 10 h 8 z"/>
  <path fill="context-fill #666" d="m 3.66,4 h 8.663 c 0.18,0 0.33,-0.15 0.33,-0.33 V 3 c 0,0 0,-0.17 0,-0.23 l -2,-2 c 0,0 -0.15,0 -0.23,0 H 3.66 c -0.18,0 -0.34,0.15 -0.34,0.33 V 3.66 c 0,0.18 0.15,0.33 0.34,0.34 z M 10.3,1 12.3,3 h -2 z"/>
</svg>