<?xml version="1.0" encoding="UTF-8"?>
<svg width="16px" height="16px" viewBox="0 0 16 16" version="1.1" xmlns="http://www.w3.org/2000/svg">
  <path fill="context-fill #666" fill-rule="evenodd" d="M 14,7.75 C 15.2,8.56 16,9.93 16,11.5 16,13.98 13.98,16 11.5,16 9.93,16 8.56,15.2 7.75,14 H 1.45 C 0.65,14 0,13.34 0,12.54 V 1.45 C 0,0.65 0.65,0 1.45,0 H 12.54 C 13.34,0 14,0.65 14,1.45 Z m -5.9,2.76 2.23,2.25 c 0.1,0.1 0.27,0 0.27,-0.11 V 11.51 c 1.14,0 2.4,0 2.4,0.91 0,0.7 -0.56,1.7 -0.85,2 -0.11,0.12 0,0.32 0.2,0.25 1,-0.51 2,-1.9 2,-3 0,-2 -2.13,-2.6 -3.77,-2.48 V 8.16 c 0,-0.14 -0.16,-0.21 -0.27,-0.11 L 8,10.3 c 0,0 0,0.16 0,0.22 z M 6,11 H 2.91 v -1.75 H 6 Z M 8,7.87 H 2.91 V 6.12 H 8 Z M 11,4.66 H 2.91 v -1.75 h 8.16 z"/>
</svg>