<?xml version="1.0" encoding="UTF-8"?>
<svg width="16px" height="16px" viewBox="0 0 16 16" version="1.1" xmlns="http://www.w3.org/2000/svg">
  <circle fill="context-fill #fff" cx="2" cy="14" r="2"></circle>
  <path fill="context-fill #fff" d="M0,26 C-5.52,26 -10,21.52 -10,16 C-10,10.47 -5.52,6 0,6 C5.52,6 10,10.47 10,16 C10,21.52 5.52,26 0,26 Z M0,25 C4.97,25 9,20.97 9,16 C9,11 4.97,7 0,7 C-4.97,7 -9,11 -9,16 C-9,20.97 -4.97,25 0,25 Z"/>
  <path fill="context-fill #fff" d="M0,31 C8.28,31 15,24.28 15,16 C15,7.71 8.28,1 0,1 C-8.28,1 -15,7.71 -15,16 C-15,24.28 -8.28,31 0,31 Z M0,32 C-8.83,32 -16,24.83 -16,16 C-16,7.16 -8.83,0 -5e-15,0 C8.83,0 16,7.16 16,16 C16,24.83 8.83,32 -5e-15,32 Z"/>
</svg>