<?xml version="1.0" encoding="utf-8"?>
<!-- Generator: Adobe Illustrator 22.1.0, SVG Export Plug-In . SVG Version: 6.00 Build 0)  -->
<svg version="1.1" id="Livello_1" xmlns="http://www.w3.org/2000/svg" xmlns:xlink="http://www.w3.org/1999/xlink" x="0px" y="0px"
	 viewBox="0 0 12 12" style="enable-background:new 0 0 12 12;" xml:space="preserve">
<style type="text/css">
	.st0{fill:#FFFFFF;}
</style>
<path class="st0" d="M0.2,5.3C0,5.3,0,5.4,0,5.5s0,0.2,0.2,0.2l4.2,1.6l7.3-6.8L0.2,5.3L0.2,5.3z"/>
<path class="st0" d="M4.5,7.8L4.5,7.8v3.4c0,0.1,0.1,0.3,0.3,0.3c0.1,0,0.2-0.1,0.2-0.1l1.6-2.8l3,1.7c0.1,0,0.2,0.1,0.2,0
	c0.1,0,0.1-0.1,0.1-0.2l2-9.1L4.5,7.8L4.5,7.8z"/>
</svg>
