<?xml version="1.0" encoding="UTF-8"?>
<svg width="16px" height="16px" viewBox="0 0 16 16" version="1.1" xmlns="http://www.w3.org/2000/svg">
  <path fill="context-fill #666" d="M6.83 15.95c-2.17-.33-4.1-1.57-5.28-3.4C-.65 9.17.18 4.7 3.32 2.3L1.9 2.28c-.46 0-.82-.37-.8-.82 0-.44.37-.8.8-.8l4.2.1c.43.08.7.5.6.94L5.5 5.63c-.12.42-.57.66-1 .53-.42-.13-.66-.58-.53-1l.53-1.72c-2.65 1.86-3.38 5.5-1.6 8.23.94 1.45 2.46 2.43 4.17 2.7.44.05.74.46.67.9-.06.44-.47.75-.9.68zM13.77 15.7l-4.18-.08c-.44-.1-.72-.52-.63-.95l1.2-3.92c.14-.43.6-.67 1-.54.44.14.68.6.54 1.02l-.5 1.7c2.63-1.85 3.36-5.5 1.6-8.22-.95-1.45-2.47-2.43-4.18-2.68-.44-.07-.75-.48-.68-.92.07-.44.48-.74.92-.68 2.16.33 4.1 1.57 5.28 3.4 2.2 3.38 1.37 7.85-1.78 10.25l1.44.02c.44 0 .8.36.8.8 0 .45-.38.8-.83.8z"/>
</svg>