<?xml version="1.0" encoding="UTF-8"?>
<svg width="16px" height="16px" viewBox="0 0 16 16" version="1.1" xmlns="http://www.w3.org/2000/svg">
  <path fill="context-fill #666" d="M 10.92,1.3 H 9.6 C 9.44,0.57 8.78,0 8,0 7.21,0 6.55,0.57 6.4075,1.3 H 5.075 C 4.9,1.3 4.75,1.48 4.75,1.66 v 2.6 c 0,0.18 0.14,0.3 0.32,0.3 h 5.85 c 0.18,0 0.32,-0.15 0.32,-0.3 V 1.66 C 11.25,1.48 11.1,1.3 10.92,1.3 Z"/>
  <path fill="context-fill #666" d="M 14.17,2 H 11.9 v 1.3 h 0.97 c 0.18,0 0.32,0.15 0.32,0.3 V 14.3 c 0,0.2 -0.16,0.3 -0.32,0.3 h -9.75 c -0.18,0 -0.32,-0.15 -0.32,-0.3 V 3.66 C 2.8,3.482 2.94,3.3 3.125,3.3 H 4.1 V 2 H 1.82 C 1.64,2 1.5,2.15 1.5,2.3 V 15.6 C 1.5,15.85 1.64,16 1.82,16 h 12.35 C 14.35,16 14.5,15.85 14.5,15.6 V 2.3 C 14.5,2.15 14.35,2 14.17,2 Z"/>
  <path fill="context-fill #666" d="M 11.21,7.34 10.26,6.37 c 0,0 -0.13,0 -0.2,0 L 6.78,9.73 5.92,8.86 c 0,0 -0.13,0 -0.2,0 L 4.78,9.82 c 0,0 0,0.14 0,0.2 l 1.9,1.93 c 0,0 0.13,0 0.2,0 L 11.21,7.53 c 0,0 0,-0.14 0,-0.2 z"/>
</svg>