<?xml version="1.0" encoding="UTF-8"?>
<svg width="14px" height="14px" viewBox="0 0 15 14" version="1.1" xmlns="http://www.w3.org/2000/svg">
  <path fill="#e83a3a" d="M6.42,0.67 C6.9,0 7.66,0 8.13,0.67 L13.99,10.23 C14.62,11.26 14.16,12 12.97,12 L1.59,12 C0.34,12 0,11.26 0.56,10.23 L6.42,0.67 L6.42,0.67 Z"/>
  <path fill="#fff" d="M7.27,3 C6.93,3 6.65,3.34 6.65,3.68 L6.65,7.42 C6.65,7.76 6.93,8 7.27,8 C7.62,8 7.9,7.76 7.9,7.42 L7.9,3.68 C7.9,3.34 7.62,3 7.27,3 L7.27,3 Z"/>
  <path fill="#fff" d="M7.27,10.32 C7.64,10.32 7.94,10 7.94,9.66 C7.94,9.29 7.64,9 7.27,9 C6.91,9 6.61,9.29 6.61,9.66 C6.61,10 6.91,10.32 7.27,10.32 L7.27,10.32 Z"/>
</svg>