<?xml version="1.0" standalone="no"?>
<!DOCTYPE svg PUBLIC "-//W3C//DTD SVG 1.1//EN" "http://www.w3.org/Graphics/SVG/1.1/DTD/svg11.dtd">
<svg xmlns="http://www.w3.org/2000/svg">
<defs >
<font id="EncodeSans" horiz-adv-x="935" ><font-face
    font-family="Encode Sans Condensed Thin Light"
    units-per-em="2000"
    panose-1="0 0 0 0 0 0 0 0 0 0"
    ascent="2060"
    descent="-440"
    alphabetic="0" />
<glyph unicode=" " horiz-adv-x="485" />
<glyph unicode="!" horiz-adv-x="476" d="M200 347L175 905V1480H301V905L277 347H200ZM238 -11Q198 -11 173 12T147 75Q147 116 172 140T238 164Q279 164 304 140T329 75Q329 36 304 13T238 -11Z" />
<glyph unicode="&quot;" horiz-adv-x="715" d="M166 934L138 1616H266L238 934H166ZM477 934L449 1616H577L549 934H477Z" />
<glyph unicode="#" horiz-adv-x="1131" d="M621 0L775 1480H877L723 0H621ZM100 474V575H1031V474H100ZM254 0L408 1480H510L356 0H254ZM100 905V1006H1031V905H100Z" />
<glyph unicode="$" horiz-adv-x="1039" d="M450 -18Q368 -18 276 -4T99 39V147Q161 126 222 113T341 94T452 87Q582 87 667 120T795 220T837 385Q837 509 765 574T523 684L451 702Q264 750 172 846T79 1099Q79 1284 206 1391T585 1498Q666 1498 748 1487T898 1454V1347Q821
1371 743 1382T586 1393Q455 1393 370 1360T244 1262T202 1106Q202 986 268 920T495 811L567 793Q702 759 789 706T918 575T960 391Q960 260 901 169T727 30T450 -18ZM465 -240V11L576 20V-240H465ZM465 1472V1720H576V1472H465Z" />
<glyph unicode="%" horiz-adv-x="1782" d="M513 0L1159 1480H1269L622 0H513ZM434 576Q339 576 266 622T151 769T109 1037Q109 1204 150 1305T264 1452T434 1498Q530 1498 603 1452T717 1305T758 1037Q758 871 717 770T602 622T434 576ZM434 667Q499 667 548 701T626
815T654 1036Q654 1176 626 1257T549 1373T434 1408Q368 1408 319 1374T242 1259T214 1039Q214 899 241 818T318 702T434 667ZM1348 -18Q1252 -18 1179 28T1065 175T1024 443Q1024 610 1065 711T1179 858T1348 904Q1444 904 1517 858T1631 711T1672 443Q1672 276
1631 175T1517 28T1348 -18ZM1348 73Q1413 73 1462 106T1540 221T1568 441Q1568 582 1540 663T1463 778T1348 813Q1283 813 1234 779T1156 664T1128 445Q1128 305 1156 224T1233 108T1348 73Z" />
<glyph unicode="&amp;" horiz-adv-x="1468" d="M1405 -20L630 588Q505 686 434 765T334 921T305 1084Q305 1281 430 1389T808 1498Q875 1498 935 1491T1046 1470V1363Q989 1378 931 1385T810 1393Q676 1393 592 1357T468 1252T428 1084Q428 1013 450 953T529 828T693
677L1468 69L1405 -20ZM674 -18Q499 -18 382 35T206 183T147 403Q147 497 179 576T272 715T422 815L486 744Q377 692 323 610T269 415Q269 315 313 240T448 123T683 81Q823 81 922 125T1075 264T1128 507Q1128 572 1117 643T1085 781H1192Q1213 715 1223 645T1233
507Q1233 335 1167 218T975 42T674 -18Z" />
<glyph unicode="&apos;" horiz-adv-x="404" d="M166 934L138 1616H266L238 934H166Z" />
<glyph unicode="(" horiz-adv-x="644" d="M472 -440Q294 -217 213 43T131 588Q131 873 212 1133T472 1616H603Q479 1461 403 1295T290 952T254 588Q254 401 290 224T402 -119T603 -440H472Z" />
<glyph unicode=")" horiz-adv-x="644" d="M42 -440Q165 -285 241 -119T354 224T390 588Q390 775 354 952T242 1295T42 1616H172Q351 1394 432 1134T513 588Q513 303 432 43T172 -440H42Z" />
<glyph unicode="*" horiz-adv-x="896" d="M493 1194L626 1043L730 901L654 846L550 987L448 1163L346 987L242 846L166 901L270 1043L403 1194L207 1237L30 1295L59 1383L235 1326L421 1245L401 1446V1616H495V1446L475 1245L661 1326L837 1383L866 1295L688 1237L493
1194Z" />
<glyph unicode="+" horiz-adv-x="1070" d="M482 366V710H157V810H482V1154H588V810H913V710H588V366H482Z" />
<glyph unicode="," horiz-adv-x="436" d="M151 -308Q183 -218 201 -140T219 18L236 -11H218Q178 -11 153 13T127 79Q127 119 151 143T216 167Q259 167 284 139T309 49Q309 -49 285 -140T223 -308H151Z" />
<glyph unicode="-" horiz-adv-x="820" d="M157 510V613H663V510H157Z" />
<glyph unicode="." horiz-adv-x="436" d="M218 -11Q178 -11 153 13T127 77Q127 118 152 142T218 167Q259 167 284 143T309 77Q309 37 284 13T218 -11Z" />
<glyph unicode="/" horiz-adv-x="572" d="M0 -240L453 1616H572L118 -240H0Z" />
<glyph unicode="0" horiz-adv-x="1226" d="M613 -18Q463 -18 353 55T182 295T121 740Q121 1018 181 1184T351 1424T613 1498Q765 1498 875 1425T1045 1185T1105 740Q1105 462 1045 296T874 56T613 -18ZM613 88Q725 88 808 146T937 345T983 737Q983 990 938 1132T809
1333T613 1392Q501 1392 418 1334T289 1135T243 743Q243 490 288 348T417 147T613 88Z" />
<glyph unicode="1" horiz-adv-x="705" d="M397 0V1380L441 1360L24 1058V1181L441 1484H516V0H397Z" />
<glyph unicode="2" horiz-adv-x="964" d="M63 0V67L491 645Q565 745 610 824T674 970T694 1105Q694 1259 612 1326T366 1393Q279 1393 200 1379T46 1334V1442Q88 1459 141 1472T254 1491T373 1498Q584 1498 699 1406T815 1113Q815 1032 794 956T722 791T587 590L199
69L184 105H897V0H63Z" />
<glyph unicode="3" horiz-adv-x="993" d="M404 -18Q314 -18 225 -4T54 39V142Q140 113 230 98T402 83Q601 83 701 164T801 401Q801 546 707 627T414 709H247V811H325Q535 811 643 892T751 1123Q751 1257 666 1327T413 1397Q331 1397 251 1384T91 1341V1444Q138
1461 192 1473T304 1492T420 1498Q638 1498 753 1401T869 1128Q869 983 780 886T535 756L536 780Q723 757 820 658T918 397Q918 266 860 173T688 31T404 -18Z" />
<glyph unicode="4" horiz-adv-x="1157" d="M51 368V436L640 1480H764L174 434L154 470H1114V368H51ZM787 0V470L804 980H900V0H787Z" />
<glyph unicode="5" horiz-adv-x="1002" d="M431 -18Q340 -18 250 -3T80 40V143Q164 114 254 99T430 84Q629 84 727 166T826 410Q826 515 778 584T619 691T323 740L138 751L187 1480H883V1379H243L299 1426L255 792L175 852L361 841Q566 829 695 779T884 637T944
412Q944 203 814 93T431 -18Z" />
<glyph unicode="6" horiz-adv-x="1125" d="M631 -18Q519 -18 428 19T270 140T168 360T132 692Q132 973 201 1151T406 1413T735 1498Q803 1498 871 1489T996 1455V1351Q938 1374 870 1385T737 1396Q578 1396 470 1327T306 1108T251 719V682Q251 510 278 395T355
210T476 112T632 82Q722 82 793 115T906 221T948 409Q948 524 904 598T781 706T595 741Q531 741 463 725T331 675T223 585V697Q288 764 393 802T611 840Q744 840 846 794T1005 652T1063 413Q1063 269 1007 173T854 30T631 -18Z" />
<glyph unicode="7" horiz-adv-x="918" d="M175 0L741 1415L772 1375H12V1480H860V1413L300 0H175Z" />
<glyph unicode="8" horiz-adv-x="1226" d="M623 -18Q454 -18 338 28T163 161T104 371Q104 518 189 623T423 778L523 736Q377 694 300 600T222 380Q222 235 323 158T624 80Q807 80 905 155T1003 367Q1003 454 967 513T846 615T619 691Q449 731 347 789T199 929T153
1119Q153 1235 207 1320T365 1451T613 1498Q828 1498 950 1399T1072 1126Q1072 1035 1039 960T940 828T777 732L684 773Q830 834 895 914T961 1119Q961 1256 869 1328T611 1400Q444 1400 358 1326T272 1123Q272 1038 307 977T426 870T659 790Q828 749 929 693T1076
559T1122 375Q1122 256 1064 168T894 31T623 -18Z" />
<glyph unicode="9" horiz-adv-x="1125" d="M494 1498Q606 1498 697 1461T855 1340T957 1120T993 788Q993 507 924 329T719 67T390 -18Q322 -18 254 -9T129 25V129Q187 106 255 95T388 84Q547 84 655 153T819 372T874 761V798Q874 970 847 1085T770 1270T649 1368T493
1398Q403 1398 332 1365T219 1259T177 1071Q177 956 221 882T344 774T530 739Q594 739 662 755T794 805T902 895V783Q837 716 732 678T514 640Q381 640 279 686T120 828T62 1067Q62 1211 118 1307T271 1450T494 1498Z" />
<glyph unicode=":" horiz-adv-x="436" d="M218 -11Q178 -11 153 13T127 77Q127 118 152 142T218 167Q259 167 284 143T309 77Q309 37 284 13T218 -11ZM218 916Q178 916 153 940T127 1004Q127 1045 152 1069T218 1094Q259 1094 284 1070T309 1004Q309 964 284 940T218
916Z" />
<glyph unicode=";" horiz-adv-x="436" d="M151 -308Q183 -218 201 -140T219 18L236 -11H218Q178 -11 153 13T127 79Q127 119 151 143T216 167Q259 167 284 139T309 49Q309 -49 285 -140T223 -308H151ZM218 916Q178 916 153 940T127 1004Q127 1045 152 1069T218
1094Q259 1094 284 1070T309 1004Q309 964 284 940T218 916Z" />
<glyph unicode="&lt;" horiz-adv-x="1070" d="M913 381L157 709V811L913 1139V1032L244 747V774L913 488V381Z" />
<glyph unicode="=" horiz-adv-x="1070" d="M157 900V1000H913V900H157ZM157 520V620H913V520H157Z" />
<glyph unicode="&gt;" horiz-adv-x="1070" d="M157 381V488L826 774V747L157 1032V1139L913 811V709L157 381Z" />
<glyph unicode="?" horiz-adv-x="881" d="M357 333L337 750Q474 796 554 849T667 968T701 1122Q701 1256 615 1325T362 1395Q281 1395 201 1382T41 1340V1444Q88 1461 142 1473T254 1492T370 1498Q589 1498 704 1401T820 1128Q820 1022 784 943T666 800T447 684L435
333H357ZM396 -11Q356 -11 331 13T305 75Q305 116 330 140T396 164Q437 164 462 140T487 75Q487 37 463 13T396 -11Z" />
<glyph unicode="@" horiz-adv-x="1871" d="M983 -460Q700 -460 506 -358T212 -39T111 520Q111 860 209 1076T492 1395T941 1498Q1207 1498 1389 1398T1666 1094T1760 576Q1760 361 1715 231T1595 42T1427 -17Q1338 -17 1285 22T1211 127H1200Q1147 58 1062 21T877
-17Q728 -17 642 59T555 273Q555 412 644 489T925 586L1241 623L1247 536L930 499Q798 484 738 432T677 284Q677 185 734 133T900 81Q979 81 1058 115T1199 231V731Q1199 835 1167 892T1071 972T915 995Q855 995 779 983T626 944V1046Q692 1071 773 1083T926 1096Q1052
1096 1139 1062T1271 948T1316 729V243Q1316 154 1347 115T1444 76Q1501 76 1550 122T1630 275T1660 567Q1660 789 1615 947T1479 1207T1254 1356T941 1404Q767 1404 632 1355T404 1200T265 927T217 523Q217 283 265 114T410 -161T649 -316T983 -366Q1081 -366
1173 -352T1364 -308V-404Q1279 -430 1182 -445T983 -460Z" />
<glyph unicode="A" horiz-adv-x="1321" d="M32 0L578 1480H742L1288 0H1164L646 1419H672L154 0H32ZM297 501L327 606H994L1023 501H297Z" />
<glyph unicode="B" horiz-adv-x="1239" d="M530 -11Q471 -11 414 -9T299 -2T179 10V1457Q237 1469 297 1477T424 1490T567 1495Q761 1495 883 1452T1062 1323T1119 1105Q1119 1019 1088 946T988 823T806 756L809 771Q991 751 1076 652T1162 399Q1162 299 1127
222T1017 94T821 16T530 -11ZM549 89Q736 89 844 123T999 227T1045 402Q1045 559 946 634T635 709H277V811H607Q749 811 836 843T963 940T1003 1102Q1003 1258 905 1326T575 1394Q487 1394 422 1389T297 1372V104Q358 95 418 92T549 89Z" />
<glyph unicode="C" horiz-adv-x="1128" d="M754 -18Q609 -18 491 21T288 149T157 382T111 738Q111 1009 190 1176T417 1421T770 1498Q856 1498 934 1487T1090 1454V1345Q1010 1370 932 1380T772 1391Q601 1391 482 1329T300 1124T237 742Q237 493 301 351T482
149T761 89Q844 89 922 102T1090 146V38Q1015 11 932 -3T754 -18Z" />
<glyph unicode="D" horiz-adv-x="1375" d="M514 -11Q460 -11 408 -9T300 -3T179 10V1458Q236 1470 298 1478T422 1490T544 1494Q900 1494 1081 1309T1263 740Q1263 480 1179 314T928 69T514 -11ZM533 95Q735 95 869 161T1071 369T1139 740Q1139 966 1074 1109T876
1321T544 1389Q486 1389 425 1384T298 1368V109Q353 102 408 99T533 95Z" />
<glyph unicode="E" horiz-adv-x="1143" d="M179 0V1480H1062V1375H297V105H1072V0H179ZM257 708V813H965V708H257Z" />
<glyph unicode="F" horiz-adv-x="1102" d="M179 0V1480H1053V1374H298V0H179ZM268 700V806H957V700H268Z" />
<glyph unicode="G" horiz-adv-x="1326" d="M848 -11Q606 -11 443 66T195 309T111 738Q111 1010 197 1177T440 1421T806 1498Q891 1498 972 1487T1137 1453V1345Q1044 1371 966 1381T811 1391Q636 1391 508 1329T308 1123T237 738Q237 508 304 367T507 160T843
95Q917 95 980 101T1099 118L1054 65V720H1169V17Q1076 1 1002 -5T848 -11Z" />
<glyph unicode="H" horiz-adv-x="1424" d="M179 0V1480H298V815H1125V1480H1245V0H1125V705H298V0H179Z" />
<glyph unicode="I" horiz-adv-x="477" d="M179 0V1480H298V0H179Z" />
<glyph unicode="J" horiz-adv-x="477" d="M76 -342L-5 -286Q59 -197 99 -113T159 68T179 289V1480H298V262Q298 141 275 42T203 -149T76 -342Z" />
<glyph unicode="K" horiz-adv-x="1213" d="M1091 0L492 757L1052 1480H1188L614 743L615 780L1230 0H1091ZM179 0V1480H298V0H179ZM276 705V814H553V705H276Z" />
<glyph unicode="L" horiz-adv-x="1051" d="M179 0V1480H298V107H1039V0H179Z" />
<glyph unicode="M" horiz-adv-x="1729" d="M183 0V1480H322L884 286H851L1407 1480H1547V0H1433V1376H1475L922 203H807L250 1376H296V0H183Z" />
<glyph unicode="N" horiz-adv-x="1450" d="M179 0V1480H304L1194 129H1158V1480H1272V0H1146L257 1351H293V0H179Z" />
<glyph unicode="O" horiz-adv-x="1407" d="M704 -18Q526 -18 393 59T185 303T111 740Q111 1010 185 1177T393 1421T704 1498Q881 1498 1014 1421T1222 1177T1296 740Q1296 471 1222 304T1014 59T704 -18ZM704 88Q844 88 949 150T1112 354T1171 735Q1171 980 1113
1123T949 1329T704 1392Q563 1392 458 1330T295 1127T236 745Q236 500 294 357T458 151T704 88Z" />
<glyph unicode="P" horiz-adv-x="1211" d="M179 0V1459Q267 1476 355 1485T540 1495Q824 1495 970 1375T1117 998Q1117 756 971 628T506 500Q451 500 402 502T298 510V0H179ZM509 602Q766 602 881 699T996 995Q996 1204 885 1298T546 1393Q476 1393 416 1388T298
1373V615Q350 608 400 605T509 602Z" />
<glyph unicode="Q" horiz-adv-x="1407" d="M1252 -207Q988 -177 795 -128T470 -5T259 174T146 418T111 739Q111 1009 185 1176T393 1421T704 1498Q880 1498 1013 1422T1221 1179T1296 740Q1296 496 1232 329T1040 77T725 -9Q698 -9 671 -8T614 -2L630 33Q719 -6
826 -33T1048 -77T1271 -104L1252 -207ZM704 88Q844 88 949 150T1112 354T1171 735Q1171 980 1113 1123T949 1329T704 1392Q563 1392 458 1330T295 1127T236 745Q236 500 294 357T458 151T704 88Z" />
<glyph unicode="R" horiz-adv-x="1288" d="M179 0V1458Q232 1468 290 1476T414 1490T555 1495Q841 1495 979 1391T1117 1066Q1117 921 1050 824T848 678T515 629Q449 629 399 631T297 638V0H179ZM1088 0L554 699H692L1230 0H1088ZM514 730Q772 730 886 812T1001
1064Q1001 1182 956 1254T813 1360T559 1394Q477 1394 418 1388T297 1372V740Q338 736 370 734T437 731T514 730Z" />
<glyph unicode="S" horiz-adv-x="1039" d="M451 -18Q368 -18 276 -4T99 40V147Q161 127 222 114T341 94T454 87Q647 87 742 162T837 385Q837 509 765 574T523 684L451 702Q264 750 172 846T79 1099Q79 1284 206 1391T583 1498Q665 1498 747 1487T898 1454V1346Q821
1370 743 1381T584 1393Q454 1393 369 1360T243 1262T202 1106Q202 986 268 920T495 811L567 793Q702 759 789 706T918 575T960 391Q960 260 901 169T727 30T451 -18Z" />
<glyph unicode="T" horiz-adv-x="1147" d="M514 0V1373H14V1480H1133V1373H633V0H514Z" />
<glyph unicode="U" horiz-adv-x="1397" d="M700 -18Q518 -18 401 42T228 227T171 546V1480H291V532Q291 302 389 195T700 88Q913 88 1011 195T1109 532V1480H1226V546Q1226 352 1170 227T998 42T700 -18Z" />
<glyph unicode="V" horiz-adv-x="1283" d="M556 0L14 1480H142L658 59H631L1149 1480H1270L728 0H556Z" />
<glyph unicode="W" horiz-adv-x="2073" d="M486 0L61 1480H186L585 61H556L965 1480H1112L1520 61H1492L1894 1480H2011L1587 0H1428L1022 1402H1053L645 0H486Z" />
<glyph unicode="X" horiz-adv-x="1253" d="M1089 0L625 657L554 751L37 1480H177L627 846L697 753L1230 0H1089ZM22 0L554 751L627 846L1077 1480H1214L697 753L625 657L160 0H22Z" />
<glyph unicode="Y" horiz-adv-x="1147" d="M514 0V717L542 625L-26 1480H110L599 741H553L1036 1480H1164L606 625L634 716V0H514Z" />
<glyph unicode="Z" horiz-adv-x="1130" d="M62 0V68L918 1407L930 1375H74V1480H1056V1412L201 73L189 105H1068V0H62Z" />
<glyph unicode="[" horiz-adv-x="644" d="M199 -440V1616H682V1514H317V-338H681V-440H199Z" />
<glyph unicode="\" horiz-adv-x="575" d="M455 -240L0 1616H120L575 -240H455Z" />
<glyph unicode="]" horiz-adv-x="644" d="M-37 -440V-338H327V1514H-38V1616H446V-440H-37Z" />
<glyph unicode="^" horiz-adv-x="1131" d="M104 740L497 1480H633L1027 740H901L549 1414H582L230 740H104Z" />
<glyph unicode="_" horiz-adv-x="1100" d="M94 -102V0H1006V-102H94Z" />
<glyph unicode="`" horiz-adv-x="1028" d="M545 1258L313 1616H443L655 1258H545Z" />
<glyph unicode="a" horiz-adv-x="1007" d="M421 -17Q272 -17 186 59T99 273Q99 412 189 489T477 588L785 622L794 534L482 499Q343 484 282 431T221 284Q221 185 277 133T445 81Q524 81 602 115T743 230V731Q743 836 710 894T613 975T455 998Q394 998 317 987T163
948V1051Q229 1074 311 1086T466 1099Q594 1099 682 1065T815 950T860 727V0H759L750 124H741Q687 57 603 20T421 -17Z" />
<glyph unicode="b" horiz-adv-x="1103" d="M471 -18Q392 -18 311 -7T160 27V1616H278V970H286Q336 1026 413 1062T591 1099Q704 1099 797 1048T947 879T1003 562Q1003 266 867 124T471 -18ZM480 83Q676 83 778 192T881 550Q881 723 839 819T725 955T563 994Q482
994 406 960T278 852V110Q317 99 370 91T480 83Z" />
<glyph unicode="c" horiz-adv-x="853" d="M558 -19Q412 -19 310 39T154 220T100 541Q100 739 158 862T327 1042T601 1099Q655 1099 711 1092T817 1071V966Q764 981 712 988T611 995Q481 995 395 952T267 810T224 545Q224 376 263 275T381 130T574 86Q626 86 685
97T817 132V27Q753 4 688 -7T558 -19Z" />
<glyph unicode="d" horiz-adv-x="1103" d="M522 -18Q404 -18 309 34T157 205T100 519Q100 716 161 844T341 1036T635 1099Q684 1099 733 1095T825 1083V1616H943V0H841L833 118H823Q774 59 697 21T522 -18ZM543 87Q622 87 698 123T825 237V977Q786 986 734 992T632
998Q429 998 326 889T222 531Q222 359 263 263T376 127T543 87Z" />
<glyph unicode="e" horiz-adv-x="1009" d="M592 -19Q432 -19 323 38T157 218T100 542Q100 735 152 858T298 1040T521 1099Q648 1099 738 1041T877 858T925 540V499H163V589H840L809 564Q809 727 775 824T676 963T520 1006Q429 1006 362 964T259 825T222 564V526Q222
364 265 267T393 126T604 83Q665 83 731 94T873 129V26Q797 3 729 -8T592 -19Z" />
<glyph unicode="f" horiz-adv-x="694" d="M228 0V1269Q228 1390 269 1471T393 1594T597 1636Q632 1636 669 1633T741 1624V1520Q707 1526 673 1529T604 1532Q475 1532 411 1474T347 1274V0H228ZM17 981V1083H701V981H17Z" />
<glyph unicode="g" horiz-adv-x="1103" d="M475 -460Q404 -460 321 -448T167 -410V-306Q250 -333 325 -345T471 -358Q651 -358 738 -279T825 -1V114H817Q768 58 691 21T512 -16Q400 -16 307 35T157 204T100 519Q100 814 236 956T632 1099Q685 1099 739 1094T846
1078T943 1053V15Q943 -240 826 -350T475 -460ZM540 89Q620 89 696 124T825 231V973Q786 984 733 991T623 998Q427 998 325 889T222 531Q222 359 264 263T378 128T540 89Z" />
<glyph unicode="h" horiz-adv-x="1114" d="M160 0V1616H278V959H286Q354 1029 442 1064T629 1099Q727 1099 804 1064T924 947T967 728V0H849V724Q849 874 782 931T603 989Q549 989 490 974T376 923T278 831V0H160Z" />
<glyph unicode="i" horiz-adv-x="438" d="M160 0V1083H278V0H160ZM219 1339Q177 1339 154 1361T130 1421Q130 1461 153 1483T219 1506Q261 1506 284 1484T308 1421Q308 1383 285 1361T219 1339Z" />
<glyph unicode="j" horiz-adv-x="438" d="M56 -462L-24 -407Q40 -318 81 -231T141 -47T160 168V1083H278V176Q278 47 255 -60T183 -264T56 -462ZM218 1344Q176 1344 153 1366T129 1426Q129 1466 152 1488T218 1511Q260 1511 283 1489T307 1426Q307 1388 284 1366T218
1344Z" />
<glyph unicode="k" horiz-adv-x="1002" d="M883 0L434 554L852 1083H988L561 538V572L1020 0H883ZM260 503V605H491V503H260ZM160 0V1616H278V0H160Z" />
<glyph unicode="l" horiz-adv-x="438" d="M160 0V1616H278V0H160Z" />
<glyph unicode="m" horiz-adv-x="1667" d="M160 0V1083H261L270 957H279Q343 1028 424 1063T595 1099Q684 1099 753 1064T862 947T902 729V0H784V723Q784 874 725 932T568 991Q520 991 468 975T366 922T278 827V0H160ZM1401 0V723Q1401 874 1339 932T1180 991Q1131
991 1075 974T966 915T874 801L840 910Q921 1016 1017 1057T1202 1099Q1294 1099 1365 1064T1478 947T1520 727V0H1401Z" />
<glyph unicode="n" horiz-adv-x="1114" d="M160 0V1083H261L270 957H279Q347 1026 436 1062T625 1099Q725 1099 802 1063T923 946T967 727V0H849V723Q849 873 783 932T603 991Q551 991 493 976T378 926T278 832V0H160Z" />
<glyph unicode="o" horiz-adv-x="1087" d="M544 -19Q410 -19 311 38T156 219T100 541Q100 738 155 861T309 1041T544 1099Q678 1099 777 1042T932 862T987 541Q987 344 932 221T777 39T544 -19ZM544 83Q642 83 714 125T825 268T865 538Q865 712 826 812T714 955T544
998Q446 998 374 956T262 814T222 544Q222 370 261 270T373 126T544 83Z" />
<glyph unicode="p" horiz-adv-x="1103" d="M160 -440V1083H262L271 963H280Q329 1023 406 1061T581 1099Q697 1099 793 1048T946 879T1003 562Q1003 365 942 236T762 45T468 -18Q419 -18 370 -14T278 -3V-440H160ZM471 83Q674 83 777 192T881 550Q881 723 839
819T725 955T560 994Q481 994 405 959T278 844V104Q317 95 369 89T471 83Z" />
<glyph unicode="q" horiz-adv-x="1103" d="M825 -440V111H817Q768 55 691 19T512 -18Q399 -18 306 33T156 202T100 519Q100 815 236 957T632 1099Q684 1099 739 1094T846 1078T943 1053V-440H825ZM540 87Q620 87 696 121T825 229V973Q786 984 733 991T623 998Q427
998 325 889T222 530Q222 357 264 261T378 126T540 87Z" />
<glyph unicode="r" horiz-adv-x="701" d="M160 0V1083H260L270 937H279Q337 1013 424 1052T603 1092Q628 1092 648 1091T688 1085V973Q666 977 645 977T598 978Q543 978 484 961T370 906T278 812V0H160Z" />
<glyph unicode="s" horiz-adv-x="881" d="M402 -19Q324 -19 253 -9T114 24V125Q194 101 263 91T403 81Q553 81 621 134T690 283Q690 367 648 411T505 476L366 505Q219 538 158 610T96 795Q96 927 196 1013T504 1099Q571 1099 631 1092T750 1068V967Q684 985 627
992T505 1000Q398 1000 334 973T241 901T212 799Q212 726 251 679T391 609L529 581Q681 548 744 478T807 290Q807 148 705 65T402 -19Z" />
<glyph unicode="t" horiz-adv-x="724" d="M555 -18Q397 -18 309 63T220 326V1083L239 1480H339V346Q339 203 399 145T576 87Q607 87 640 91T712 105V0Q672 -9 634 -13T555 -18ZM9 981V1083H693V981H9Z" />
<glyph unicode="u" horiz-adv-x="1104" d="M486 -18Q388 -18 311 17T191 134T147 353V1083H265V357Q265 207 332 149T506 90Q559 90 617 106T729 157T826 249V1083H945V0H844L835 121H826Q757 52 669 17T486 -18Z" />
<glyph unicode="v" horiz-adv-x="1029" d="M437 0L20 1083H148L527 80H508L888 1083H1010L592 0H437Z" />
<glyph unicode="w" horiz-adv-x="1662" d="M388 0L65 1083H184L474 94H458L760 1083H906L1208 94H1191L1482 1083H1597L1274 0H1128L823 992H841L534 0H388Z" />
<glyph unicode="x" horiz-adv-x="978" d="M820 0L488 458L418 545L29 1083H168L491 636L561 548L959 0H820ZM22 0L418 545L491 636L815 1083H950L561 548L488 458L158 0H22Z" />
<glyph unicode="y" horiz-adv-x="1029" d="M302 -440L473 0L508 80L888 1083H1010L422 -440H302ZM437 0L20 1083H148L553 0H437Z" />
<glyph unicode="z" horiz-adv-x="895" d="M62 0V73L696 1013V981H74V1083H827V1010L193 70V102H839V0H62Z" />
<glyph unicode="{" horiz-adv-x="684" d="M591 -460Q417 -460 328 -376T239 -122V397Q239 490 195 531T65 573H43V674H65Q151 674 195 716T239 849V1298Q239 1467 328 1551T591 1636Q628 1636 662 1634T722 1625V1532H599Q478 1532 418 1478T357 1301V859Q357
750 315 691T178 615V632Q272 616 314 556T357 388V-125Q357 -247 417 -301T599 -356H722V-449Q697 -454 663 -457T591 -460Z" />
<glyph unicode="|" horiz-adv-x="469" d="M179 -440V1616H291V-440H179Z" />
<glyph unicode="}" horiz-adv-x="684" d="M93 -460Q56 -460 22 -457T-38 -449V-356H85Q207 -356 267 -302T327 -125V388Q327 496 370 556T506 632V615Q414 632 371 691T327 859V1301Q327 1424 267 1478T85 1532H-38V1625Q-12 1631 22 1633T93 1636Q268 1636 357
1552T446 1298V849Q446 758 490 716T619 674H641V573H619Q534 573 490 532T446 397V-122Q446 -291 357 -375T93 -460Z" />
<glyph unicode="~" horiz-adv-x="1070" d="M712 647Q658 647 610 667T515 710Q474 730 436 746T358 763Q299 763 250 737T157 655V771Q229 863 358 863Q412 863 461 843T554 800Q596 780 634 763T711 746Q770 746 820 773T913 855V739Q841 647 712 647Z" />
<glyph unicode="&#xa0;" horiz-adv-x="485" />
<glyph unicode="&#xa1;" horiz-adv-x="476" d="M200 733H277L301 176V-380H175V176L200 733ZM238 1094Q279 1094 304 1071T329 1006Q329 966 304 941T238 916Q197 916 172 940T147 1006Q147 1047 172 1070T238 1094Z" />
<glyph unicode="&#xa2;" horiz-adv-x="858" d="M558 -19Q411 -19 309 39T154 220T100 541Q100 739 157 862T327 1042T601 1099Q656 1099 710 1092T817 1071V966Q763 981 711 988T608 995Q478 995 393 952T266 810T224 545Q224 376 263 275T381 130T574 86Q626
86 685 97T817 132V27Q753 4 688 -7T558 -19ZM499 -240V8H605V-240H499ZM499 1074V1323H605V1074H499Z" />
<glyph unicode="&#xa3;" horiz-adv-x="1246" d="M305 45V1053Q305 1280 435 1389T817 1498Q898 1498 980 1487T1131 1454V1347Q1054 1371 976 1382T819 1393Q688 1393 600 1360T468 1252T423 1056V45H305ZM79 0V103H1170V0H79ZM79 701V799H957V701H79Z" />
<glyph unicode="&#xa4;" horiz-adv-x="1131" d="M342 920L209 1025L104 1124L180 1200L279 1097L385 962L342 920ZM790 920L746 962L852 1097L951 1200L1027 1124L923 1025L790 920ZM949 280L850 383L754 506L798 551L923 455L1025 356L949 280ZM182 280L106 356L209
455L333 551L377 506L281 383L182 280ZM566 403Q469 403 397 445T284 563T243 740Q243 840 283 915T396 1033T566 1075Q661 1075 733 1033T847 916T888 740Q888 639 847 563T734 445T566 403ZM566 488Q670 488 735 554T800 740Q800 851 740 921T567 992Q462 992
397 926T331 740Q331 622 396 555T566 488Z" />
<glyph unicode="&#xa5;" horiz-adv-x="1191" d="M536 0V717L564 625L0 1480H136L621 741H575L1061 1480H1189L628 625L656 716V0H536ZM218 308V397H974V308H218ZM218 651V740H974V651H218Z" />
<glyph unicode="&#xa6;" horiz-adv-x="469" d="M179 836V1616H291V836H179ZM179 -440V340H291V-440H179Z" />
<glyph unicode="&#xa7;" horiz-adv-x="990" d="M432 -19Q357 -19 286 -9T148 23V121Q228 98 296 89T433 79Q535 79 599 102T694 171T724 281Q724 364 682 408T539 474L393 505Q251 538 189 609T126 793Q126 866 159 925T254 1025L329 968Q279 937 256 894T232
799Q232 725 274 675T418 602L564 571Q714 538 776 470T839 289Q839 147 737 64T432 -19ZM738 454L661 510Q710 540 734 582T758 681Q758 765 713 811T566 881L419 912Q275 944 212 1014T149 1192Q149 1280 193 1348T328 1456T559 1496Q625 1496 685 1489T802 1467V1368Q736
1386 681 1392T564 1399Q454 1399 389 1373T294 1301T264 1198Q264 1126 304 1079T443 1008L591 978Q739 945 801 875T864 690Q864 613 831 554T738 454Z" />
<glyph unicode="&#xa8;" horiz-adv-x="1028" d="M809 1339Q771 1339 748 1361T725 1421Q725 1460 748 1482T809 1505Q847 1505 870 1483T893 1421Q893 1384 870 1362T809 1339ZM391 1339Q353 1339 330 1361T307 1421Q307 1460 330 1482T391 1505Q429 1505 452
1483T475 1421Q475 1384 452 1362T391 1339Z" />
<glyph unicode="&#xa9;" horiz-adv-x="1712" d="M856 -22Q632 -22 465 73T204 339T111 740Q111 969 204 1140T464 1407T856 1502Q1079 1502 1247 1407T1508 1141T1601 740Q1601 511 1508 340T1247 73T856 -22ZM895 324Q718 324 610 427T502 734Q502 930 610 1037T919
1144Q971 1144 1017 1138T1111 1117V1025Q1065 1038 1021 1044T925 1051Q771 1051 689 974T606 737Q606 574 686 496T904 417Q948 417 999 425T1111 456V364Q1062 344 1008 334T895 324ZM856 66Q1054 66 1201 150T1429 385T1511 740Q1511 943 1430 1094T1201 1330T856
1414Q658 1414 511 1330T282 1095T201 740Q201 537 282 386T510 150T856 66Z" />
<glyph unicode="&#xaa;" horiz-adv-x="850" d="M349 595Q222 595 150 659T77 832Q77 944 152 1007T396 1086L656 1113L665 1036L405 1010Q290 999 240 958T189 843Q189 767 236 726T376 684Q440 684 504 711T619 798V1195Q619 1274 592 1319T511 1382T376 1400Q323
1400 260 1391T132 1359V1453Q190 1473 258 1483T390 1493Q501 1493 577 1465T691 1369T730 1185V610H636L627 709H619Q573 655 502 625T349 595Z" />
<glyph unicode="&#xab;" horiz-adv-x="950" d="M374 139L119 561L374 984H498L244 561L498 139H374ZM746 139L491 561L746 984H870L616 561L870 139H746Z" />
<glyph unicode="&#xac;" horiz-adv-x="1334" d="M1081 193V710H157V810H1187V193H1081Z" />
<glyph unicode="&#xad;" horiz-adv-x="820" d="M157 510V613H663V510H157Z" />
<glyph unicode="&#xae;" horiz-adv-x="1519" d="M760 268Q579 268 442 345T227 561T150 882Q150 1064 227 1203T441 1420T760 1498Q941 1498 1078 1420T1293 1203T1370 882Q1370 700 1293 562T1079 346T760 268ZM927 600L771 828L846 854L1018 600H927ZM760 347Q919
347 1038 413T1222 599T1288 882Q1288 1044 1223 1165T1038 1352T760 1419Q600 1419 481 1353T297 1165T232 882Q232 720 297 600T481 413T760 347ZM550 600V1192H747Q869 1192 931 1144T993 1005Q993 916 932 868T747 820H631L630 600H550ZM631 892H761Q914 892
914 1005Q914 1120 761 1120H631V892Z" />
<glyph unicode="&#xaf;" horiz-adv-x="1028" d="M302 1380V1466H898V1380H302Z" />
<glyph unicode="&#xb0;" horiz-adv-x="981" d="M491 816Q391 816 315 860T194 981T150 1157Q150 1255 194 1332T314 1453T491 1497Q590 1497 667 1453T788 1332T832 1157Q832 1058 788 981T667 860T491 816ZM491 905Q599 905 668 973T738 1157Q738 1273 669 1340T491
1408Q383 1408 313 1341T243 1157Q243 1041 313 973T491 905Z" />
<glyph unicode="&#xb1;" horiz-adv-x="1070" d="M482 328V667H157V767H482V1107H588V767H913V667H588V328H482ZM157 0V100H913V0H157Z" />
<glyph unicode="&#xb2;" horiz-adv-x="770" d="M91 616V674L388 1058Q464 1155 497 1223T531 1355Q531 1452 474 1495T305 1539Q243 1539 187 1529T79 1499V1590Q126 1609 187 1618T315 1628Q467 1628 550 1565T634 1363Q634 1282 597 1204T472 1015L209 677L201
707H681V616H91Z" />
<glyph unicode="&#xb3;" horiz-adv-x="770" d="M320 604Q256 604 192 613T71 642V730Q132 710 195 700T317 689Q453 689 521 741T589 891Q589 983 526 1034T327 1086H202V1173H270Q410 1173 482 1224T554 1369Q554 1454 496 1498T322 1543Q266 1543 209 1534T96
1504V1592Q144 1610 206 1619T330 1628Q488 1628 571 1562T654 1375Q654 1279 594 1215T428 1128V1143Q554 1128 621 1062T688 886Q688 752 595 678T320 604Z" />
<glyph unicode="&#xb4;" horiz-adv-x="1028" d="M545 1258L757 1616H887L655 1258H545Z" />
<glyph unicode="&#xb5;" horiz-adv-x="1104" d="M500 -18Q406 -18 338 17T232 134T195 353V503H265V357Q265 207 332 149T506 90Q559 90 617 106T729 157T826 249V1083H945V0H844L835 121H826Q760 52 675 17T500 -18ZM147 -440V1083H265V-440H147Z" />
<glyph unicode="&#xb6;" horiz-adv-x="1211" d="M703 0V509Q666 504 632 502T556 500Q316 500 205 628T94 998Q94 1255 205 1375T533 1495Q606 1495 674 1491T802 1480V0H703ZM932 0V1480H1032V0H932Z" />
<glyph unicode="&#xb7;" horiz-adv-x="436" d="M218 470Q178 470 153 494T127 558Q127 600 152 624T218 648Q259 648 284 624T309 558Q309 518 284 494T218 470Z" />
<glyph unicode="&#xb8;" horiz-adv-x="1028" d="M606 -408Q563 -408 518 -399T439 -373V-303Q483 -325 525 -333T605 -342Q663 -342 691 -321T720 -255Q720 -166 603 -166H568V20H644V-139L611 -107Q701 -107 749 -146T797 -258Q797 -328 748 -368T606 -408Z" />
<glyph unicode="&#xb9;" horiz-adv-x="770" d="M376 637V1543L413 1518L139 1320V1423L413 1620H479V637H376ZM142 616V707H701V616H142Z" />
<glyph unicode="&#xba;" horiz-adv-x="925" d="M463 595Q291 595 187 703T83 1046Q83 1281 187 1387T463 1493Q634 1493 738 1387T843 1046Q843 890 796 791T663 643T463 595ZM463 690Q544 690 603 723T696 835T729 1046Q729 1179 696 1256T604 1366T463 1399Q382
1399 322 1367T229 1257T196 1046Q196 913 229 835T322 724T463 690Z" />
<glyph unicode="&#xbb;" horiz-adv-x="950" d="M79 139L334 561L79 984H204L458 561L204 139H79ZM451 139L706 561L451 984H576L830 561L576 139H451Z" />
<glyph unicode="&#xbc;" horiz-adv-x="1793" d="M376 637V1543L413 1518L139 1320V1423L413 1620H479V637H376ZM142 616V707H701V616H142ZM448 -136L1238 1616H1344L554 -136H448ZM1054 105V164L1427 864H1529L1157 163L1141 191H1767V105H1054ZM1532 -136V191L1550
526H1626V-136H1532Z" />
<glyph unicode="&#xbd;" horiz-adv-x="1793" d="M376 637V1543L413 1518L139 1320V1423L413 1620H479V637H376ZM142 616V707H701V616H142ZM448 -136L1238 1616H1344L554 -136H448ZM1114 -136V-78L1411 306Q1487 403 1520 471T1554 603Q1554 700 1497 743T1328
787Q1266 787 1210 777T1102 747V838Q1149 857 1210 866T1338 876Q1490 876 1574 813T1657 611Q1657 530 1620 452T1495 263L1232 -75L1224 -45H1704V-136H1114Z" />
<glyph unicode="&#xbe;" horiz-adv-x="1793" d="M320 604Q256 604 192 613T71 642V730Q132 710 195 700T317 689Q453 689 521 741T589 891Q589 983 526 1034T327 1086H202V1173H270Q410 1173 482 1224T554 1369Q554 1454 496 1498T322 1543Q266 1543 209 1534T96
1504V1592Q144 1610 206 1619T330 1628Q488 1628 571 1562T654 1375Q654 1279 594 1215T428 1128V1143Q554 1128 621 1062T688 886Q688 752 595 678T320 604ZM448 -136L1238 1616H1344L554 -136H448ZM1054 105V164L1427 864H1529L1157 163L1141 191H1767V105H1054ZM1532
-136V191L1550 526H1626V-136H1532Z" />
<glyph unicode="&#xbf;" horiz-adv-x="881" d="M524 750L544 333Q407 287 327 235T214 117T180 -33Q180 -159 266 -228T519 -297Q601 -297 681 -284T839 -241V-346Q793 -363 739 -375T627 -393T510 -400Q293 -400 177 -304T61 -38Q61 64 97 142T215 283T433 399L446
750H524ZM485 1094Q525 1094 550 1070T576 1008Q576 968 551 944T485 919Q444 919 419 944T394 1008Q394 1046 419 1070T485 1094Z" />
<glyph unicode="&#xc0;" horiz-adv-x="1321" d="M32 0L578 1480H742L1288 0H1164L646 1419H672L154 0H32ZM297 501L327 606H994L1023 501H297ZM607 1612L409 1890H539L715 1612H607Z" />
<glyph unicode="&#xc1;" horiz-adv-x="1321" d="M32 0L578 1480H742L1288 0H1164L646 1419H672L154 0H32ZM297 501L327 606H994L1023 501H297ZM606 1612L782 1890H913L715 1612H606Z" />
<glyph unicode="&#xc2;" horiz-adv-x="1321" d="M32 0L578 1480H742L1288 0H1164L646 1419H672L154 0H32ZM297 501L327 606H994L1023 501H297ZM360 1612L603 1890H719L962 1612H848L646 1849H676L474 1612H360Z" />
<glyph unicode="&#xc3;" horiz-adv-x="1321" d="M32 0L578 1480H742L1288 0H1164L646 1419H672L154 0H32ZM297 501L327 606H994L1023 501H297ZM811 1681Q765 1681 725 1694T646 1722Q612 1736 579 1746T510 1757Q458 1757 420 1740T346 1686V1777Q375 1808 416
1824T511 1840Q557 1840 598 1828T676 1799Q710 1786 743 1775T812 1764Q864 1764 902 1781T976 1835V1744Q947 1714 907 1698T811 1681Z" />
<glyph unicode="&#xc4;" horiz-adv-x="1321" d="M32 0L578 1480H742L1288 0H1164L646 1419H672L154 0H32ZM297 501L327 606H994L1023 501H297ZM888 1673Q850 1673 827 1694T804 1752Q804 1789 827 1810T888 1832Q927 1832 950 1811T973 1752Q973 1716 950 1695T888
1673ZM434 1673Q395 1673 372 1694T349 1752Q349 1789 372 1810T434 1832Q472 1832 495 1811T518 1752Q518 1716 495 1695T434 1673Z" />
<glyph unicode="&#xc5;" horiz-adv-x="1321" d="M32 0L578 1480H742L1288 0H1164L646 1419H672L154 0H32ZM297 501L327 606H994L1023 501H297ZM661 1605Q579 1605 525 1659T471 1794Q471 1877 525 1930T661 1983Q744 1983 797 1930T851 1794Q851 1713 798 1659T661
1605ZM661 1669Q715 1669 749 1703T784 1794Q784 1853 750 1886T661 1919Q607 1919 573 1886T538 1794Q538 1737 572 1703T661 1669Z" />
<glyph unicode="&#xc6;" horiz-adv-x="1805" d="M32 0L588 1480H891L889 1375H667L155 0H32ZM302 501L332 606H941V501H302ZM930 0L833 1480H1724V1375H956L1042 105H1734V0H930ZM955 708V813H1628V708H955Z" />
<glyph unicode="&#xc7;" horiz-adv-x="1128" d="M754 -18Q609 -18 491 21T288 149T157 382T111 738Q111 1009 190 1176T417 1421T770 1498Q856 1498 934 1487T1090 1454V1345Q1010 1370 932 1380T772 1391Q601 1391 482 1329T300 1124T237 742Q237 493 301 351T482
149T761 89Q844 89 922 102T1090 146V38Q1015 11 932 -3T754 -18ZM711 -408Q663 -408 613 -399T520 -371V-301Q575 -324 619 -333T707 -342Q770 -342 804 -322T839 -255Q839 -208 804 -187T706 -166H666V20H741V-139L717 -106Q809 -106 863 -144T918 -257Q918 -331
863 -369T711 -408Z" />
<glyph unicode="&#xc8;" horiz-adv-x="1143" d="M179 0V1480H1062V1375H297V105H1072V0H179ZM257 708V813H965V708H257ZM588 1612L390 1890H520L696 1612H588Z" />
<glyph unicode="&#xc9;" horiz-adv-x="1143" d="M179 0V1480H1062V1375H297V105H1072V0H179ZM257 708V813H965V708H257ZM587 1612L763 1890H894L696 1612H587Z" />
<glyph unicode="&#xca;" horiz-adv-x="1143" d="M179 0V1480H1062V1375H297V105H1072V0H179ZM257 708V813H965V708H257ZM341 1612L584 1890H700L943 1612H829L627 1849H657L455 1612H341Z" />
<glyph unicode="&#xcb;" horiz-adv-x="1143" d="M179 0V1480H1062V1375H297V105H1072V0H179ZM257 708V813H965V708H257ZM869 1673Q831 1673 808 1694T785 1752Q785 1789 808 1810T869 1832Q908 1832 931 1811T954 1752Q954 1716 931 1695T869 1673ZM415 1673Q376
1673 353 1694T330 1752Q330 1789 353 1810T415 1832Q453 1832 476 1811T499 1752Q499 1716 476 1695T415 1673Z" />
<glyph unicode="&#xcc;" horiz-adv-x="477" d="M179 0V1480H298V0H179ZM184 1612L-14 1890H116L292 1612H184Z" />
<glyph unicode="&#xcd;" horiz-adv-x="477" d="M179 0V1480H298V0H179ZM183 1612L359 1890H490L292 1612H183Z" />
<glyph unicode="&#xce;" horiz-adv-x="477" d="M179 0V1480H298V0H179ZM-63 1612L180 1890H296L539 1612H425L223 1849H253L51 1612H-63Z" />
<glyph unicode="&#xcf;" horiz-adv-x="477" d="M179 0V1480H298V0H179ZM465 1673Q427 1673 404 1694T381 1752Q381 1789 404 1810T465 1832Q504 1832 527 1811T550 1752Q550 1716 527 1695T465 1673ZM11 1673Q-28 1673 -51 1694T-74 1752Q-74 1789 -51 1810T11
1832Q49 1832 72 1811T95 1752Q95 1716 72 1695T11 1673Z" />
<glyph unicode="&#xd0;" horiz-adv-x="1375" d="M2 717V807H644V717H2ZM514 -11Q460 -11 408 -9T300 -3T179 10V1458Q236 1470 298 1478T422 1490T544 1494Q900 1494 1081 1309T1263 740Q1263 480 1179 314T928 69T514 -11ZM533 95Q735 95 869 161T1071 369T1139
740Q1139 966 1074 1109T876 1321T544 1389Q486 1389 425 1384T298 1368V109Q353 102 408 99T533 95Z" />
<glyph unicode="&#xd1;" horiz-adv-x="1450" d="M179 0V1480H304L1194 129H1158V1480H1272V0H1146L257 1351H293V0H179ZM876 1681Q830 1681 790 1694T711 1722Q677 1736 644 1746T575 1757Q523 1757 485 1740T411 1686V1777Q440 1808 481 1824T576 1840Q622 1840
663 1828T741 1799Q775 1786 808 1775T877 1764Q929 1764 967 1781T1041 1835V1744Q1012 1714 972 1698T876 1681Z" />
<glyph unicode="&#xd2;" horiz-adv-x="1407" d="M704 -18Q526 -18 393 59T185 303T111 740Q111 1010 185 1177T393 1421T704 1498Q881 1498 1014 1421T1222 1177T1296 740Q1296 471 1222 304T1014 59T704 -18ZM704 88Q844 88 949 150T1112 354T1171 735Q1171 980
1113 1123T949 1329T704 1392Q563 1392 458 1330T295 1127T236 745Q236 500 294 357T458 151T704 88ZM650 1612L452 1890H582L758 1612H650Z" />
<glyph unicode="&#xd3;" horiz-adv-x="1407" d="M704 -18Q526 -18 393 59T185 303T111 740Q111 1010 185 1177T393 1421T704 1498Q881 1498 1014 1421T1222 1177T1296 740Q1296 471 1222 304T1014 59T704 -18ZM704 88Q844 88 949 150T1112 354T1171 735Q1171 980
1113 1123T949 1329T704 1392Q563 1392 458 1330T295 1127T236 745Q236 500 294 357T458 151T704 88ZM649 1612L825 1890H956L758 1612H649Z" />
<glyph unicode="&#xd4;" horiz-adv-x="1407" d="M704 -18Q526 -18 393 59T185 303T111 740Q111 1010 185 1177T393 1421T704 1498Q881 1498 1014 1421T1222 1177T1296 740Q1296 471 1222 304T1014 59T704 -18ZM704 88Q844 88 949 150T1112 354T1171 735Q1171 980
1113 1123T949 1329T704 1392Q563 1392 458 1330T295 1127T236 745Q236 500 294 357T458 151T704 88ZM403 1612L646 1890H762L1005 1612H891L689 1849H719L517 1612H403Z" />
<glyph unicode="&#xd5;" horiz-adv-x="1407" d="M704 -18Q526 -18 393 59T185 303T111 740Q111 1010 185 1177T393 1421T704 1498Q881 1498 1014 1421T1222 1177T1296 740Q1296 471 1222 304T1014 59T704 -18ZM704 88Q844 88 949 150T1112 354T1171 735Q1171 980
1113 1123T949 1329T704 1392Q563 1392 458 1330T295 1127T236 745Q236 500 294 357T458 151T704 88ZM854 1681Q808 1681 768 1694T689 1722Q655 1736 622 1746T553 1757Q501 1757 463 1740T389 1686V1777Q418 1808 459 1824T554 1840Q600 1840 641 1828T719 1799Q753
1786 786 1775T855 1764Q907 1764 945 1781T1019 1835V1744Q990 1714 950 1698T854 1681Z" />
<glyph unicode="&#xd6;" horiz-adv-x="1407" d="M704 -18Q526 -18 393 59T185 303T111 740Q111 1010 185 1177T393 1421T704 1498Q881 1498 1014 1421T1222 1177T1296 740Q1296 471 1222 304T1014 59T704 -18ZM704 88Q844 88 949 150T1112 354T1171 735Q1171 980
1113 1123T949 1329T704 1392Q563 1392 458 1330T295 1127T236 745Q236 500 294 357T458 151T704 88ZM931 1673Q893 1673 870 1694T847 1752Q847 1789 870 1810T931 1832Q970 1832 993 1811T1016 1752Q1016 1716 993 1695T931 1673ZM477 1673Q438 1673 415 1694T392
1752Q392 1789 415 1810T477 1832Q515 1832 538 1811T561 1752Q561 1716 538 1695T477 1673Z" />
<glyph unicode="&#xd7;" horiz-adv-x="989" d="M196 392L126 461L425 760L126 1059L196 1128L495 830L793 1128L863 1059L564 760L863 461L793 392L495 690L196 392Z" />
<glyph unicode="&#xd8;" horiz-adv-x="1407" d="M213 0H107L1191 1480H1297L213 0ZM704 -18Q526 -18 393 59T185 303T111 740Q111 1010 185 1177T393 1421T704 1498Q881 1498 1014 1421T1222 1177T1296 740Q1296 471 1222 304T1014 59T704 -18ZM704 88Q844 88
949 150T1112 354T1171 735Q1171 980 1113 1123T949 1329T704 1392Q563 1392 458 1330T295 1127T236 745Q236 500 294 357T458 151T704 88Z" />
<glyph unicode="&#xd9;" horiz-adv-x="1397" d="M700 -18Q518 -18 401 42T228 227T171 546V1480H291V532Q291 302 389 195T700 88Q913 88 1011 195T1109 532V1480H1226V546Q1226 352 1170 227T998 42T700 -18ZM646 1612L448 1890H578L754 1612H646Z" />
<glyph unicode="&#xda;" horiz-adv-x="1397" d="M700 -18Q518 -18 401 42T228 227T171 546V1480H291V532Q291 302 389 195T700 88Q913 88 1011 195T1109 532V1480H1226V546Q1226 352 1170 227T998 42T700 -18ZM645 1612L821 1890H952L754 1612H645Z" />
<glyph unicode="&#xdb;" horiz-adv-x="1397" d="M700 -18Q518 -18 401 42T228 227T171 546V1480H291V532Q291 302 389 195T700 88Q913 88 1011 195T1109 532V1480H1226V546Q1226 352 1170 227T998 42T700 -18ZM399 1612L642 1890H758L1001 1612H887L685 1849H715L513
1612H399Z" />
<glyph unicode="&#xdc;" horiz-adv-x="1397" d="M700 -18Q518 -18 401 42T228 227T171 546V1480H291V532Q291 302 389 195T700 88Q913 88 1011 195T1109 532V1480H1226V546Q1226 352 1170 227T998 42T700 -18ZM927 1673Q889 1673 866 1694T843 1752Q843 1789 866
1810T927 1832Q966 1832 989 1811T1012 1752Q1012 1716 989 1695T927 1673ZM473 1673Q434 1673 411 1694T388 1752Q388 1789 411 1810T473 1832Q511 1832 534 1811T557 1752Q557 1716 534 1695T473 1673Z" />
<glyph unicode="&#xdd;" horiz-adv-x="1147" d="M514 0V717L542 625L-26 1480H110L599 741H553L1036 1480H1164L606 625L634 716V0H514ZM775 1612L951 1890H1082L884 1612H775Z" />
<glyph unicode="&#xde;" horiz-adv-x="1221" d="M179 0V1481H298V1238Q346 1246 407 1251T542 1257Q824 1257 970 1138T1117 761Q1117 519 971 391T507 263Q452 263 403 265T298 273V0H179ZM509 365Q766 365 881 462T996 758Q996 966 885 1061T546 1156Q476 1156
416 1151T298 1136V377Q350 371 400 368T509 365Z" />
<glyph unicode="&#xdf;" horiz-adv-x="1344" d="M863 -19Q787 -19 716 -9T578 22V123Q630 108 678 99T771 85T863 81Q1016 81 1085 134T1154 283Q1154 367 1112 411T969 476L830 505Q683 538 621 610T559 793Q559 925 659 1010T963 1096Q983 1096 1005 1095T1051
1092T1095 1086L1030 1041Q1038 1077 1043 1116T1048 1192Q1048 1321 1004 1397T884 1506T711 1539Q596 1539 515 1498T390 1366T347 1125V0H228V1129Q228 1300 285 1412T449 1580T706 1636Q832 1636 931 1590T1088 1446T1145 1189Q1145 1137 1138 1081T1119 986Q1090
992 1057 996T972 1000Q864 1000 799 973T705 901T676 799Q676 726 716 679T854 609L993 581Q1145 547 1208 477T1271 290Q1271 148 1168 65T863 -19ZM17 979V1083H292V979H17Z" />
<glyph unicode="&#xe0;" horiz-adv-x="1007" d="M421 -17Q272 -17 186 59T99 273Q99 412 189 489T477 588L785 622L794 534L482 499Q343 484 282 431T221 284Q221 185 277 133T445 81Q524 81 602 115T743 230V731Q743 836 710 894T613 975T455 998Q394 998 317
987T163 948V1051Q229 1074 311 1086T466 1099Q594 1099 682 1065T815 950T860 727V0H759L750 124H741Q687 57 603 20T421 -17ZM700 1258L468 1616H598L810 1258H700Z" />
<glyph unicode="&#xe1;" horiz-adv-x="1007" d="M421 -17Q272 -17 186 59T99 273Q99 412 189 489T477 588L785 622L794 534L482 499Q343 484 282 431T221 284Q221 185 277 133T445 81Q524 81 602 115T743 230V731Q743 836 710 894T613 975T455 998Q394 998 317
987T163 948V1051Q229 1074 311 1086T466 1099Q594 1099 682 1065T815 950T860 727V0H759L750 124H741Q687 57 603 20T421 -17ZM700 1258L912 1616H1042L810 1258H700Z" />
<glyph unicode="&#xe2;" horiz-adv-x="1007" d="M421 -17Q272 -17 186 59T99 273Q99 412 189 489T477 588L785 622L794 534L482 499Q343 484 282 431T221 284Q221 185 277 133T445 81Q524 81 602 115T743 230V731Q743 836 710 894T613 975T455 998Q394 998 317
987T163 948V1051Q229 1074 311 1086T466 1099Q594 1099 682 1065T815 950T860 727V0H759L750 124H741Q687 57 603 20T421 -17ZM477 1258L698 1616H812L1033 1258H930L740 1574H770L580 1258H477Z" />
<glyph unicode="&#xe3;" horiz-adv-x="1007" d="M421 -17Q272 -17 186 59T99 273Q99 412 189 489T477 588L785 622L794 534L482 499Q343 484 282 431T221 284Q221 185 277 133T445 81Q524 81 602 115T743 230V731Q743 836 710 894T613 975T455 998Q394 998 317
987T163 948V1051Q229 1074 311 1086T466 1099Q594 1099 682 1065T815 950T860 727V0H759L750 124H741Q687 57 603 20T421 -17ZM894 1361Q852 1361 814 1374T740 1404Q708 1418 677 1429T615 1440Q568 1440 531 1422T457 1366V1460Q516 1524 616 1524Q658 1524
696 1511T770 1482Q803 1468 833 1457T895 1445Q943 1445 980 1463T1053 1519V1425Q994 1361 894 1361Z" />
<glyph unicode="&#xe4;" horiz-adv-x="1007" d="M421 -17Q272 -17 186 59T99 273Q99 412 189 489T477 588L785 622L794 534L482 499Q343 484 282 431T221 284Q221 185 277 133T445 81Q524 81 602 115T743 230V731Q743 836 710 894T613 975T455 998Q394 998 317
987T163 948V1051Q229 1074 311 1086T466 1099Q594 1099 682 1065T815 950T860 727V0H759L750 124H741Q687 57 603 20T421 -17ZM964 1339Q926 1339 903 1361T880 1421Q880 1460 903 1482T964 1505Q1002 1505 1025 1483T1048 1421Q1048 1384 1025 1362T964 1339ZM546
1339Q508 1339 485 1361T462 1421Q462 1460 485 1482T546 1505Q584 1505 607 1483T630 1421Q630 1384 607 1362T546 1339Z" />
<glyph unicode="&#xe5;" horiz-adv-x="1007" d="M421 -17Q272 -17 186 59T99 273Q99 412 189 489T477 588L785 622L794 534L482 499Q343 484 282 431T221 284Q221 185 277 133T445 81Q524 81 602 115T743 230V731Q743 836 710 894T613 975T455 998Q394 998 317
987T163 948V1051Q229 1074 311 1086T466 1099Q594 1099 682 1065T815 950T860 727V0H759L750 124H741Q687 57 603 20T421 -17ZM755 1253Q673 1253 619 1307T565 1443Q565 1525 619 1578T755 1632Q838 1632 891 1579T945 1443Q945 1361 892 1307T755 1253ZM755
1318Q809 1318 843 1351T878 1443Q878 1501 844 1534T755 1568Q701 1568 667 1535T632 1443Q632 1385 666 1352T755 1318Z" />
<glyph unicode="&#xe6;" horiz-adv-x="1640" d="M1226 -19Q1069 -19 962 38T799 219T744 543L758 555Q758 744 806 864T944 1042T1157 1100Q1281 1100 1370 1042T1507 861T1555 541V499H827V589H1471L1439 559Q1439 726 1405 824T1307 964T1153 1007Q1063 1007
998 965T896 825T860 564V526Q860 364 902 267T1029 126T1238 83Q1298 83 1363 94T1503 129V26Q1429 3 1361 -8T1226 -19ZM429 -17Q327 -17 254 17T140 116T99 273Q99 365 139 436T269 548T506 589H779V500H508Q401 500 339 472T249 395T221 283Q221 184 278 133T447
81Q536 81 626 125T786 288L835 208Q743 77 639 30T429 -17ZM744 543V733Q744 837 711 894T613 975T455 998Q394 998 318 987T163 948V1051Q230 1075 310 1087T464 1099Q588 1099 673 1065T802 950T846 731V526L744 543Z" />
<glyph unicode="&#xe7;" horiz-adv-x="853" d="M558 -19Q412 -19 310 39T154 220T100 541Q100 739 158 862T327 1042T601 1099Q655 1099 711 1092T817 1071V966Q764 981 712 988T611 995Q481 995 395 952T267 810T224 545Q224 376 263 275T381 130T574 86Q626
86 685 97T817 132V27Q753 4 688 -7T558 -19ZM770 -408Q727 -408 682 -399T603 -373V-303Q647 -325 689 -333T769 -342Q827 -342 855 -321T884 -255Q884 -166 767 -166H732V20H808V-139L775 -107Q865 -107 913 -146T961 -258Q961 -328 912 -368T770 -408Z" />
<glyph unicode="&#xe8;" horiz-adv-x="1009" d="M592 -19Q432 -19 323 38T157 218T100 542Q100 735 152 858T298 1040T521 1099Q648 1099 738 1041T877 858T925 540V499H163V589H840L809 564Q809 727 775 824T676 963T520 1006Q429 1006 362 964T259 825T222 564V526Q222
364 265 267T393 126T604 83Q665 83 731 94T873 129V26Q797 3 729 -8T592 -19ZM722 1258L490 1616H620L832 1258H722Z" />
<glyph unicode="&#xe9;" horiz-adv-x="1009" d="M592 -19Q432 -19 323 38T157 218T100 542Q100 735 152 858T298 1040T521 1099Q648 1099 738 1041T877 858T925 540V499H163V589H840L809 564Q809 727 775 824T676 963T520 1006Q429 1006 362 964T259 825T222 564V526Q222
364 265 267T393 126T604 83Q665 83 731 94T873 129V26Q797 3 729 -8T592 -19ZM722 1258L934 1616H1064L832 1258H722Z" />
<glyph unicode="&#xea;" horiz-adv-x="1009" d="M592 -19Q432 -19 323 38T157 218T100 542Q100 735 152 858T298 1040T521 1099Q648 1099 738 1041T877 858T925 540V499H163V589H840L809 564Q809 727 775 824T676 963T520 1006Q429 1006 362 964T259 825T222 564V526Q222
364 265 267T393 126T604 83Q665 83 731 94T873 129V26Q797 3 729 -8T592 -19ZM499 1258L720 1616H834L1055 1258H952L762 1574H792L602 1258H499Z" />
<glyph unicode="&#xeb;" horiz-adv-x="1009" d="M592 -19Q432 -19 323 38T157 218T100 542Q100 735 152 858T298 1040T521 1099Q648 1099 738 1041T877 858T925 540V499H163V589H840L809 564Q809 727 775 824T676 963T520 1006Q429 1006 362 964T259 825T222 564V526Q222
364 265 267T393 126T604 83Q665 83 731 94T873 129V26Q797 3 729 -8T592 -19ZM986 1339Q948 1339 925 1361T902 1421Q902 1460 925 1482T986 1505Q1024 1505 1047 1483T1070 1421Q1070 1384 1047 1362T986 1339ZM568 1339Q530 1339 507 1361T484 1421Q484 1460
507 1482T568 1505Q606 1505 629 1483T652 1421Q652 1384 629 1362T568 1339Z" />
<glyph unicode="&#xec;" horiz-adv-x="438" d="M160 0V1083H278V0H160ZM164 1258L-68 1616H62L274 1258H164Z" />
<glyph unicode="&#xed;" horiz-adv-x="438" d="M160 0V1083H278V0H160ZM164 1258L376 1616H506L274 1258H164Z" />
<glyph unicode="&#xee;" horiz-adv-x="438" d="M160 0V1083H278V0H160ZM-59 1258L162 1616H276L497 1258H394L204 1574H234L44 1258H-59Z" />
<glyph unicode="&#xef;" horiz-adv-x="438" d="M160 0V1083H278V0H160ZM428 1339Q390 1339 367 1361T344 1421Q344 1460 367 1482T428 1505Q466 1505 489 1483T512 1421Q512 1384 489 1362T428 1339ZM10 1339Q-28 1339 -51 1361T-74 1421Q-74 1460 -51 1482T10
1505Q48 1505 71 1483T94 1421Q94 1384 71 1362T10 1339Z" />
<glyph unicode="&#xf0;" horiz-adv-x="1087" d="M545 -19Q411 -19 311 38T156 219T100 541Q100 738 155 861T308 1041T538 1098Q637 1098 722 1057T868 903L812 937Q775 1057 712 1175T554 1405T324 1616H475Q583 1538 675 1423T837 1170T946 880T986 577Q986
369 932 238T778 44T545 -19ZM545 83Q642 83 714 128T825 274T865 538Q865 711 826 811T714 955T544 998Q445 998 373 956T262 814T222 543Q222 370 261 270T373 126T545 83ZM208 1235L194 1316L949 1441L963 1360L208 1235Z" />
<glyph unicode="&#xf1;" horiz-adv-x="1114" d="M160 0V1083H261L270 957H279Q347 1026 436 1062T625 1099Q725 1099 802 1063T923 946T967 727V0H849V723Q849 873 783 932T603 991Q551 991 493 976T378 926T278 832V0H160ZM959 1361Q917 1361 879 1374T805 1404Q773
1418 742 1429T680 1440Q633 1440 596 1422T522 1366V1460Q581 1524 681 1524Q723 1524 761 1511T835 1482Q868 1468 898 1457T960 1445Q1008 1445 1045 1463T1118 1519V1425Q1059 1361 959 1361Z" />
<glyph unicode="&#xf2;" horiz-adv-x="1087" d="M544 -19Q410 -19 311 38T156 219T100 541Q100 738 155 861T309 1041T544 1099Q678 1099 777 1042T932 862T987 541Q987 344 932 221T777 39T544 -19ZM544 83Q642 83 714 125T825 268T865 538Q865 712 826 812T714
955T544 998Q446 998 374 956T262 814T222 544Q222 370 261 270T373 126T544 83ZM745 1258L513 1616H643L855 1258H745Z" />
<glyph unicode="&#xf3;" horiz-adv-x="1087" d="M544 -19Q410 -19 311 38T156 219T100 541Q100 738 155 861T309 1041T544 1099Q678 1099 777 1042T932 862T987 541Q987 344 932 221T777 39T544 -19ZM544 83Q642 83 714 125T825 268T865 538Q865 712 826 812T714
955T544 998Q446 998 374 956T262 814T222 544Q222 370 261 270T373 126T544 83ZM745 1258L957 1616H1087L855 1258H745Z" />
<glyph unicode="&#xf4;" horiz-adv-x="1087" d="M544 -19Q410 -19 311 38T156 219T100 541Q100 738 155 861T309 1041T544 1099Q678 1099 777 1042T932 862T987 541Q987 344 932 221T777 39T544 -19ZM544 83Q642 83 714 125T825 268T865 538Q865 712 826 812T714
955T544 998Q446 998 374 956T262 814T222 544Q222 370 261 270T373 126T544 83ZM522 1258L743 1616H857L1078 1258H975L785 1574H815L625 1258H522Z" />
<glyph unicode="&#xf5;" horiz-adv-x="1087" d="M544 -19Q410 -19 311 38T156 219T100 541Q100 738 155 861T309 1041T544 1099Q678 1099 777 1042T932 862T987 541Q987 344 932 221T777 39T544 -19ZM544 83Q642 83 714 125T825 268T865 538Q865 712 826 812T714
955T544 998Q446 998 374 956T262 814T222 544Q222 370 261 270T373 126T544 83ZM939 1361Q897 1361 859 1374T785 1404Q753 1418 722 1429T660 1440Q613 1440 576 1422T502 1366V1460Q561 1524 661 1524Q703 1524 741 1511T815 1482Q848 1468 878 1457T940 1445Q988
1445 1025 1463T1098 1519V1425Q1039 1361 939 1361Z" />
<glyph unicode="&#xf6;" horiz-adv-x="1087" d="M544 -19Q410 -19 311 38T156 219T100 541Q100 738 155 861T309 1041T544 1099Q678 1099 777 1042T932 862T987 541Q987 344 932 221T777 39T544 -19ZM544 83Q642 83 714 125T825 268T865 538Q865 712 826 812T714
955T544 998Q446 998 374 956T262 814T222 544Q222 370 261 270T373 126T544 83ZM1009 1339Q971 1339 948 1361T925 1421Q925 1460 948 1482T1009 1505Q1047 1505 1070 1483T1093 1421Q1093 1384 1070 1362T1009 1339ZM591 1339Q553 1339 530 1361T507 1421Q507
1460 530 1482T591 1505Q629 1505 652 1483T675 1421Q675 1384 652 1362T591 1339Z" />
<glyph unicode="&#xf7;" horiz-adv-x="1070" d="M157 710V810H913V710H157ZM535 330Q496 330 472 353T447 415Q447 455 471 478T535 502Q574 502 598 478T622 415Q622 377 598 354T535 330ZM535 1018Q496 1018 472 1041T447 1103Q447 1143 471 1166T535 1190Q574
1190 598 1167T622 1103Q622 1065 598 1042T535 1018Z" />
<glyph unicode="&#xf8;" horiz-adv-x="1087" d="M882 946Q932 879 959 779T987 541Q987 344 932 221T777 39T544 -19Q460 -19 390 4T264 77L207 -3H106L205 137Q155 205 128 305T100 541Q100 738 155 861T309 1041T544 1099Q627 1099 697 1077T822 1005L879 1086H981L882
946ZM544 999Q445 999 373 957T260 815T220 544Q220 442 235 366T280 238L761 915Q720 960 665 979T544 999ZM544 82Q642 82 715 124T827 267T867 538Q867 641 852 717T807 845L326 167Q366 122 421 102T544 82Z" />
<glyph unicode="&#xf9;" horiz-adv-x="1104" d="M486 -18Q388 -18 311 17T191 134T147 353V1083H265V357Q265 207 332 149T506 90Q559 90 617 106T729 157T826 249V1083H945V0H844L835 121H826Q757 52 669 17T486 -18ZM747 1258L515 1616H645L857 1258H747Z" />
<glyph unicode="&#xfa;" horiz-adv-x="1104" d="M486 -18Q388 -18 311 17T191 134T147 353V1083H265V357Q265 207 332 149T506 90Q559 90 617 106T729 157T826 249V1083H945V0H844L835 121H826Q757 52 669 17T486 -18ZM747 1258L959 1616H1089L857 1258H747Z" />
<glyph unicode="&#xfb;" horiz-adv-x="1104" d="M486 -18Q388 -18 311 17T191 134T147 353V1083H265V357Q265 207 332 149T506 90Q559 90 617 106T729 157T826 249V1083H945V0H844L835 121H826Q757 52 669 17T486 -18ZM524 1258L745 1616H859L1080 1258H977L787
1574H817L627 1258H524Z" />
<glyph unicode="&#xfc;" horiz-adv-x="1104" d="M486 -18Q388 -18 311 17T191 134T147 353V1083H265V357Q265 207 332 149T506 90Q559 90 617 106T729 157T826 249V1083H945V0H844L835 121H826Q757 52 669 17T486 -18ZM1011 1339Q973 1339 950 1361T927 1421Q927
1460 950 1482T1011 1505Q1049 1505 1072 1483T1095 1421Q1095 1384 1072 1362T1011 1339ZM593 1339Q555 1339 532 1361T509 1421Q509 1460 532 1482T593 1505Q631 1505 654 1483T677 1421Q677 1384 654 1362T593 1339Z" />
<glyph unicode="&#xfd;" horiz-adv-x="1029" d="M302 -440L473 0L508 80L888 1083H1010L422 -440H302ZM437 0L20 1083H148L553 0H437ZM717 1258L929 1616H1059L827 1258H717Z" />
<glyph unicode="&#xfe;" horiz-adv-x="1103" d="M160 -440V1616H278V968H286Q337 1026 414 1062T591 1099Q704 1099 797 1048T947 879T1003 562Q1003 365 942 236T762 45T468 -18Q419 -18 370 -14T278 -3V-440H160ZM471 83Q674 83 777 192T881 550Q881 723 839
819T725 955T563 994Q484 994 407 959T278 847V104Q317 95 369 89T471 83Z" />
<glyph unicode="&#xff;" horiz-adv-x="1029" d="M302 -440L473 0L508 80L888 1083H1010L422 -440H302ZM437 0L20 1083H148L553 0H437ZM981 1339Q943 1339 920 1361T897 1421Q897 1460 920 1482T981 1505Q1019 1505 1042 1483T1065 1421Q1065 1384 1042 1362T981
1339ZM563 1339Q525 1339 502 1361T479 1421Q479 1460 502 1482T563 1505Q601 1505 624 1483T647 1421Q647 1384 624 1362T563 1339Z" />
<glyph unicode="&#x2013;" horiz-adv-x="900" d="M0 513V609H900V513H0Z" />
<glyph unicode="&#x2014;" horiz-adv-x="1800" d="M0 513V609H1800V513H0Z" />
<glyph unicode="&#x2018;" horiz-adv-x="436" d="M222 1140Q178 1140 153 1168T127 1258Q127 1357 152 1449T213 1616H285Q253 1527 236 1449T218 1290L200 1319H218Q258 1319 283 1295T309 1229Q309 1189 285 1165T222 1140Z" />
<glyph unicode="&#x2019;" horiz-adv-x="436" d="M151 1152Q183 1242 201 1320T219 1478L236 1449H218Q178 1449 153 1474T127 1539Q127 1579 151 1603T216 1627Q259 1627 284 1599T309 1510Q309 1411 285 1320T223 1152H151Z" />
<glyph unicode="&#x201a;" horiz-adv-x="436" d="M151 -308Q183 -218 201 -140T219 18L236 -11H218Q178 -11 153 13T127 79Q127 119 151 143T216 167Q259 167 284 139T309 49Q309 -49 285 -140T223 -308H151Z" />
<glyph unicode="&#x201c;" horiz-adv-x="759" d="M222 1140Q178 1140 153 1168T127 1258Q127 1357 152 1449T213 1616H285Q253 1527 236 1449T218 1290L200 1319H218Q258 1319 283 1295T309 1229Q309 1189 285 1165T222 1140ZM544 1140Q500 1140 475 1168T449
1258Q449 1357 474 1449T535 1616H607Q575 1527 558 1449T540 1290L522 1319H540Q580 1319 605 1295T631 1229Q631 1189 607 1165T544 1140Z" />
<glyph unicode="&#x201d;" horiz-adv-x="759" d="M151 1152Q183 1242 201 1320T219 1478L236 1449H218Q178 1449 153 1474T127 1539Q127 1579 151 1603T216 1627Q259 1627 284 1599T309 1510Q309 1411 285 1320T223 1152H151ZM473 1152Q505 1242 523 1320T541
1478L558 1449H540Q500 1449 475 1474T449 1539Q449 1579 473 1603T538 1627Q581 1627 606 1599T631 1510Q631 1411 607 1320T545 1152H473Z" />
<glyph unicode="&#x201e;" horiz-adv-x="759" d="M151 -308Q183 -218 201 -140T219 18L236 -11H218Q178 -11 153 13T127 79Q127 119 151 143T216 167Q259 167 284 139T309 49Q309 -49 285 -140T223 -308H151ZM473 -308Q505 -218 523 -140T541 18L558 -11H540Q500
-11 475 13T449 79Q449 119 473 143T538 167Q581 167 606 139T631 49Q631 -49 607 -140T545 -308H473Z" />
<glyph unicode="&#x2022;" horiz-adv-x="698" d="M349 338Q287 338 237 367T157 446T127 560Q127 624 156 674T236 753T349 782Q411 782 461 753T541 674T571 560Q571 496 542 446T462 367T349 338Z" />
<glyph unicode="&#x2039;" horiz-adv-x="578" d="M374 139L119 561L374 984H498L244 561L498 139H374Z" />
<glyph unicode="&#x203a;" horiz-adv-x="578" d="M79 139L334 561L79 984H204L458 561L204 139H79Z" />
</font>
</defs>
</svg>
