<?xml version="1.0" standalone="no"?>
<!DOCTYPE svg PUBLIC "-//W3C//DTD SVG 1.1//EN" "http://www.w3.org/Graphics/SVG/1.1/DTD/svg11.dtd">
<svg xmlns="http://www.w3.org/2000/svg">
<defs >
<font id="EncodeSans" horiz-adv-x="935" ><font-face
    font-family="Encode Sans Condensed Thin SemiBold"
    units-per-em="2000"
    panose-1="0 0 0 0 0 0 0 0 0 0"
    ascent="2060"
    descent="-440"
    alphabetic="0" />
<glyph unicode=" " horiz-adv-x="498" />
<glyph unicode="!" horiz-adv-x="563" d="M202 434L142 948V1480H421V948L364 434H202ZM281 -15Q203 -15 155 27T107 141Q107 214 154 256T281 299Q362 299 409 256T456 141Q456 71 408 28T281 -15Z" />
<glyph unicode="&quot;" horiz-adv-x="856" d="M148 870L97 1616H359L308 870H148ZM548 870L497 1616H759L708 870H548Z" />
<glyph unicode="#" horiz-adv-x="1220" d="M633 0L787 1480H992L838 0H633ZM100 415V618H1120V415H100ZM228 0L382 1480H587L433 0H228ZM100 862V1065H1120V862H100Z" />
<glyph unicode="$" horiz-adv-x="1121" d="M483 -19Q387 -19 285 -4T93 40V260Q155 240 223 227T358 206T480 199Q592 199 660 223T760 293T792 406Q792 491 740 537T549 619L449 645Q257 694 160 795T62 1063Q62 1267 209 1383T654 1499Q744 1499 831 1488T988
1458V1238Q915 1259 832 1270T669 1281Q544 1281 470 1256T362 1186T329 1077Q329 997 376 952T548 873L648 847Q789 812 880 756T1016 618T1060 424Q1060 285 992 186T795 34T483 -19ZM437 -240V44L685 48V-240H437ZM437 1447V1720H685V1447H437Z" />
<glyph unicode="%" horiz-adv-x="2007" d="M565 0L1224 1480H1442L783 0H565ZM471 571Q358 571 273 620T139 772T91 1035Q91 1195 139 1297T272 1449T471 1499Q584 1499 669 1450T802 1298T850 1035Q850 875 802 773T669 621T471 571ZM471 741Q520 741 558 768T618
859T640 1034Q640 1146 619 1210T559 1302T471 1330Q420 1330 382 1303T323 1211T301 1036Q301 925 322 861T382 769T471 741ZM1536 -18Q1424 -18 1339 31T1205 183T1156 446Q1156 606 1204 708T1338 860T1536 910Q1649 910 1734 861T1868 709T1916 446Q1916 286
1868 184T1735 32T1536 -18ZM1536 151Q1586 151 1624 178T1684 269T1706 445Q1706 556 1685 621T1625 713T1536 740Q1486 740 1448 713T1388 622T1366 447Q1366 336 1388 271T1448 179T1536 151Z" />
<glyph unicode="&amp;" horiz-adv-x="1565" d="M1441 -20L594 574Q462 666 390 744T289 898T260 1056Q260 1264 405 1381T847 1499Q920 1499 983 1493T1103 1474V1254Q1049 1267 988 1274T865 1281Q741 1281 667 1254T560 1175T527 1051Q527 1001 544 958T602
871T718 769L1565 175L1441 -20ZM689 -18Q499 -18 372 35T181 182T117 404Q117 500 152 578T252 713T399 801L537 692Q462 648 423 584T383 433Q383 354 420 296T531 207T717 175Q836 175 925 215T1063 344T1113 580Q1113 641 1103 708T1075 840H1290Q1308 776
1316 710T1325 582Q1325 384 1249 251T1031 50T689 -18Z" />
<glyph unicode="&apos;" horiz-adv-x="456" d="M148 870L97 1616H359L308 870H148Z" />
<glyph unicode="(" horiz-adv-x="696" d="M453 -440Q273 -227 192 33T111 588Q111 883 192 1143T453 1616H730Q607 1463 530 1300T417 959T381 588Q381 394 417 217T530 -123T730 -440H453Z" />
<glyph unicode=")" horiz-adv-x="696" d="M-34 -440Q89 -287 166 -124T279 217T315 588Q315 782 279 959T166 1299T-34 1616H242Q424 1404 504 1144T585 588Q585 293 505 33T242 -440H-34Z" />
<glyph unicode="*" horiz-adv-x="975" d="M585 1154L723 1017L818 885L674 780L578 911L487 1093L397 911L301 780L156 885L252 1017L389 1154L200 1185L30 1239L85 1409L254 1354L429 1264L398 1458V1616H577V1458L545 1264L721 1354L889 1409L945 1239L775 1185L585
1154Z" />
<glyph unicode="+" horiz-adv-x="1091" d="M439 332V658H128V862H439V1188H652V862H963V658H652V332H439Z" />
<glyph unicode="," horiz-adv-x="523" d="M147 -333Q191 -230 215 -143T240 34L295 -15H261Q183 -15 135 29T87 149Q87 226 133 269T257 313Q343 313 389 260T435 99Q435 -16 397 -129T298 -333H147Z" />
<glyph unicode="-" horiz-adv-x="884" d="M128 458V673H756V458H128Z" />
<glyph unicode="." horiz-adv-x="523" d="M262 -15Q183 -15 135 29T87 149Q87 225 134 269T262 313Q342 313 389 268T436 149Q436 75 388 30T262 -15Z" />
<glyph unicode="/" horiz-adv-x="728" d="M0 -240L468 1616H728L259 -240H0Z" />
<glyph unicode="0" horiz-adv-x="1307" d="M653 -19Q482 -19 359 59T168 304T101 740Q101 1008 167 1175T357 1421T653 1499Q825 1499 948 1421T1138 1176T1205 740Q1205 472 1138 305T948 59T653 -19ZM654 202Q743 202 807 250T906 416T941 738Q941 946 907 1063T808
1229T654 1278Q564 1278 500 1230T400 1064T365 742Q365 534 399 417T499 251T654 202Z" />
<glyph unicode="1" horiz-adv-x="796" d="M372 0V1316L468 1231L26 922V1175L468 1485H640V0H372Z" />
<glyph unicode="2" horiz-adv-x="1043" d="M52 0V144L466 673Q533 758 572 825T629 948T647 1058Q647 1174 579 1227T360 1281Q273 1281 189 1266T34 1223V1443Q78 1460 137 1472T261 1492T387 1499Q644 1499 778 1400T912 1083Q912 1006 892 931T824 773T696
589L349 153L339 223H986V0H52Z" />
<glyph unicode="3" horiz-adv-x="1061" d="M421 -19Q322 -19 227 -6T46 34V238Q132 213 228 199T412 184Q582 184 662 245T743 422Q743 534 667 594T416 655H213V861H356Q530 861 610 920T691 1088Q691 1190 621 1243T406 1296Q323 1296 238 1282T75 1241V1445Q123
1461 182 1473T307 1492T433 1499Q688 1499 818 1397T948 1110Q948 973 868 880T647 756L648 774Q816 751 906 658T996 407Q996 274 933 179T742 32T421 -19Z" />
<glyph unicode="4" horiz-adv-x="1240" d="M41 322V469L577 1480H837L304 468L273 531H1205V322H41ZM766 0V531L794 980H1007V0H766Z" />
<glyph unicode="5" horiz-adv-x="1072" d="M448 -19Q348 -19 253 -4T73 37V241Q157 216 253 201T439 186Q609 186 688 247T768 427Q768 506 728 558T588 641T309 681L122 692L173 1480H961V1271H302L419 1385L379 793L219 892L407 882Q626 869 761 816T959 668T1022
433Q1022 213 877 97T448 -19Z" />
<glyph unicode="6" horiz-adv-x="1215" d="M667 -19Q543 -19 441 20T265 145T151 365T111 692Q111 967 191 1146T423 1412T795 1499Q875 1499 949 1489T1086 1454V1246Q1022 1270 951 1281T807 1292Q662 1292 565 1236T420 1063T372 761V654Q372 516 393 424T453
278T546 201T669 178Q740 178 795 204T883 285T915 428Q915 515 882 571T787 653T642 680Q587 680 530 667T420 625T327 551V745Q387 807 486 841T692 876Q827 876 932 829T1098 685T1159 436Q1159 291 1098 189T927 34T667 -19Z" />
<glyph unicode="7" horiz-adv-x="993" d="M160 0L679 1337L765 1257H11V1480H936V1336L435 0H160Z" />
<glyph unicode="8" horiz-adv-x="1307" d="M659 -19Q465 -19 338 29T149 165T87 370Q87 505 170 605T407 756L587 686Q462 647 401 570T339 399Q339 289 418 230T660 170Q814 170 890 225T966 382Q966 448 935 494T828 576T615 646Q435 690 329 754T176 904T130
1097Q130 1217 191 1307T371 1448T666 1499Q906 1499 1039 1399T1173 1125Q1173 1043 1143 972T1049 844T882 746L716 817Q836 872 888 939T941 1100Q941 1202 870 1256T663 1310Q521 1310 453 1254T385 1107Q385 1042 414 996T519 911T738 837Q918 789 1023 728T1172
586T1217 397Q1217 276 1154 182T967 35T659 -19Z" />
<glyph unicode="9" horiz-adv-x="1215" d="M548 1499Q672 1499 774 1460T950 1335T1064 1115T1104 788Q1104 513 1024 334T792 68T420 -19Q340 -19 266 -9T129 26V234Q193 210 264 199T408 188Q553 188 650 244T795 417T843 719V826Q843 964 822 1056T762 1202T669
1279T546 1302Q475 1302 420 1276T332 1195T300 1052Q300 965 333 909T428 827T573 800Q628 800 685 813T795 855T888 929V735Q828 673 729 639T523 604Q388 604 283 651T117 795T56 1044Q56 1189 117 1291T288 1446T548 1499Z" />
<glyph unicode=":" horiz-adv-x="523" d="M262 -15Q183 -15 135 29T87 149Q87 225 134 269T262 313Q342 313 389 268T436 149Q436 75 388 30T262 -15ZM262 778Q183 778 135 822T87 942Q87 1018 134 1062T262 1106Q342 1106 389 1061T436 942Q436 868 388 823T262 778Z" />
<glyph unicode=";" horiz-adv-x="523" d="M147 -333Q191 -230 215 -143T240 34L295 -15H261Q183 -15 135 29T87 149Q87 226 133 269T257 313Q343 313 389 260T435 99Q435 -16 397 -129T298 -333H147ZM262 778Q183 778 135 822T87 942Q87 1018 134 1062T262 1106Q342
1106 389 1061T436 942Q436 868 388 823T262 778Z" />
<glyph unicode="&lt;" horiz-adv-x="1091" d="M963 308L128 637V883L963 1212V1005L281 745V778L963 515V308Z" />
<glyph unicode="=" horiz-adv-x="1091" d="M128 872V1075H963V872H128ZM128 445V648H963V445H128Z" />
<glyph unicode="&gt;" horiz-adv-x="1091" d="M128 308V515L810 778V745L128 1005V1212L963 883V637L128 308Z" />
<glyph unicode="?" horiz-adv-x="960" d="M349 427L304 808Q438 841 513 880T619 971T650 1086Q650 1186 580 1238T363 1291Q281 1291 196 1277T34 1235V1445Q82 1461 141 1473T266 1492T392 1499Q647 1499 777 1397T907 1107Q907 1001 866 921T741 781T531 680L511
427H349ZM430 -15Q352 -15 304 27T256 141Q256 214 303 256T430 299Q511 299 558 256T605 141Q605 72 558 29T430 -15Z" />
<glyph unicode="@" horiz-adv-x="2029" d="M1061 -460Q748 -460 532 -357T204 -37T91 520Q91 859 201 1075T520 1394T1022 1498Q1318 1498 1522 1398T1832 1094T1938 582Q1938 363 1884 231T1735 40T1518 -19Q1413 -19 1342 19T1234 129H1218Q1176 51 1095 16T920
-19Q758 -19 667 64T575 290Q575 440 677 523T1003 625L1260 649L1286 502L1027 477Q928 467 882 429T835 317Q835 243 880 207T1002 170Q1053 170 1110 191T1211 261V681Q1211 762 1185 808T1102 874T958 894Q894 894 817 882T665 843L666 1044Q741 1070 831 1083T1001
1097Q1159 1097 1262 1057T1417 924T1468 670V290Q1468 219 1495 188T1574 156Q1623 156 1663 192T1726 319T1750 573Q1750 774 1705 916T1570 1148T1343 1280T1022 1323Q840 1323 704 1279T476 1140T340 892T294 522Q294 303 340 149T481 -101T720 -241T1061 -285Q1173
-285 1279 -271T1495 -229V-405Q1393 -431 1284 -445T1061 -460Z" />
<glyph unicode="A" horiz-adv-x="1419" d="M19 0L516 1480H903L1400 0H1135L692 1361H723L281 0H19ZM333 425L391 640H1027L1085 425H333Z" />
<glyph unicode="B" horiz-adv-x="1307" d="M545 -15Q484 -15 416 -12T279 -3T146 12V1450Q212 1464 286 1475T438 1491T596 1497Q809 1497 944 1453T1142 1318T1205 1091Q1205 1008 1174 938T1081 821T924 756L926 769Q1079 749 1163 658T1247 411Q1247 308 1209
229T1088 95T871 13T545 -15ZM612 184Q758 184 842 210T962 288T998 421Q998 542 922 598T677 655H377V859H647Q759 859 826 883T923 956T953 1078Q953 1195 880 1246T629 1298Q563 1298 510 1294T407 1280V194Q461 188 510 186T612 184Z" />
<glyph unicode="C" horiz-adv-x="1207" d="M827 -19Q654 -19 518 23T286 156T141 391T91 737Q91 996 179 1165T436 1416T843 1499Q928 1499 1007 1490T1162 1461V1238Q1089 1257 1015 1266T862 1275Q699 1275 590 1222T427 1052T372 741Q372 542 427 425T588 256T851
205Q929 205 1005 217T1162 254V31Q1090 8 1004 -5T827 -19Z" />
<glyph unicode="D" horiz-adv-x="1465" d="M532 -14Q472 -14 409 -12T279 -4T146 9V1450Q211 1464 285 1474T436 1490T586 1496Q976 1496 1174 1312T1373 740Q1373 476 1280 310T1000 65T532 -14ZM598 206Q765 206 876 259T1043 431T1098 741Q1098 932 1043 1050T878
1222T603 1277Q559 1277 510 1273T413 1260V215Q458 210 502 208T598 206Z" />
<glyph unicode="E" horiz-adv-x="1223" d="M146 0V1480H1141V1263H410V217H1151V0H146ZM307 649V866H1041V649H307Z" />
<glyph unicode="F" horiz-adv-x="1182" d="M146 0V1480H1137V1260H413V0H146ZM320 621V841H1036V621H320Z" />
<glyph unicode="G" horiz-adv-x="1398" d="M907 -15Q636 -15 455 65T183 312T91 737Q91 997 185 1165T458 1416T890 1499Q976 1499 1059 1489T1223 1459V1236Q1141 1257 1065 1266T912 1275Q733 1275 613 1222T432 1050T371 734Q371 548 428 432T600 261T887 207Q951
207 1012 212T1125 226L1012 124V720H1263V16Q1168 0 1081 -7T907 -15Z" />
<glyph unicode="H" horiz-adv-x="1497" d="M146 0V1480H413V876H1084V1480H1351V0H1084V639H413V0H146Z" />
<glyph unicode="I" horiz-adv-x="559" d="M146 0V1480H413V0H146Z" />
<glyph unicode="J" horiz-adv-x="559" d="M154 -348L-17 -232Q42 -151 78 -74T131 92T147 296V1480H413V290Q413 166 388 61T305 -143T154 -348Z" />
<glyph unicode="K" horiz-adv-x="1297" d="M1041 0L502 755L1008 1480H1292L765 725L769 796L1335 0H1041ZM146 0V1480H413V0H146ZM375 639V876H611V639H375Z" />
<glyph unicode="L" horiz-adv-x="1121" d="M146 0V1480H413V225H1111V0H146Z" />
<glyph unicode="M" horiz-adv-x="1836" d="M150 0V1480H474L941 441H904L1362 1480H1686V0H1436V1246H1494L1030 211H806L331 1246H400V0H150Z" />
<glyph unicode="N" horiz-adv-x="1517" d="M146 0V1480H416L1169 326H1119V1480H1371V0H1101L348 1154H398V0H146Z" />
<glyph unicode="O" horiz-adv-x="1519" d="M759 -19Q558 -19 408 62T175 311T91 740Q91 1001 174 1169T408 1418T759 1499Q961 1499 1111 1418T1344 1169T1427 740Q1427 480 1344 312T1111 62T759 -19ZM759 200Q881 200 969 253T1104 423T1152 734Q1152 933 1104
1053T968 1226T759 1280Q639 1280 551 1228T414 1058T366 746Q366 546 414 426T550 253T759 200Z" />
<glyph unicode="P" horiz-adv-x="1287" d="M146 0V1455Q246 1475 350 1486T570 1497Q887 1497 1047 1371T1208 973Q1208 716 1051 583T575 449Q532 449 494 450T413 456V0H146ZM578 653Q771 653 859 729T947 971Q947 1140 860 1216T593 1293Q541 1293 498 1290T413
1278V663Q454 658 493 656T578 653Z" />
<glyph unicode="Q" horiz-adv-x="1519" d="M1362 -286Q1067 -244 851 -181T489 -30T255 171T130 424T91 735Q91 998 174 1167T408 1418T759 1499Q961 1499 1111 1419T1344 1170T1427 740Q1427 507 1357 343T1146 91T795 4Q761 4 726 6T652 13L729 81Q837 38 949
8T1177 -41T1406 -74L1362 -286ZM759 200Q881 200 969 253T1104 423T1152 734Q1152 933 1104 1053T968 1226T759 1280Q639 1280 551 1228T414 1058T366 746Q366 545 413 426T549 253T759 200Z" />
<glyph unicode="R" horiz-adv-x="1353" d="M146 0V1450Q209 1463 280 1474T427 1491T584 1497Q894 1497 1048 1385T1203 1034Q1203 880 1130 776T918 620T583 567Q532 567 492 569T409 573V0H146ZM1027 0L535 688H824L1323 0H1027ZM587 769Q775 769 863 832T951
1034Q951 1126 915 1184T803 1269T610 1297Q550 1297 503 1292T409 1279V778Q441 775 468 773T524 770T587 769Z" />
<glyph unicode="S" horiz-adv-x="1121" d="M489 -19Q388 -19 285 -3T93 43V263Q155 242 223 228T360 207T489 199Q650 199 721 253T792 406Q792 491 740 537T549 619L449 645Q257 694 160 795T62 1063Q62 1267 208 1383T646 1499Q741 1499 829 1488T988 1455V1235Q915
1258 830 1269T660 1281Q539 1281 467 1256T362 1186T329 1077Q329 997 376 952T548 873L648 847Q789 812 880 756T1016 618T1060 424Q1060 285 992 186T797 34T489 -19Z" />
<glyph unicode="T" horiz-adv-x="1247" d="M489 0V1255H13V1480H1233V1255H757V0H489Z" />
<glyph unicode="U" horiz-adv-x="1467" d="M737 -19Q530 -19 398 47T203 250T139 594V1480H407V568Q407 376 488 290T737 203Q905 203 985 289T1066 568V1480H1329V594Q1329 386 1266 250T1072 48T737 -19Z" />
<glyph unicode="V" horiz-adv-x="1390" d="M498 0L4 1480H285L731 113H673L1124 1480H1386L892 0H498Z" />
<glyph unicode="W" horiz-adv-x="2221" d="M439 0L39 1480H311L663 120H596L968 1480H1268L1630 120H1569L1927 1480H2182L1782 0H1437L1081 1315H1151L784 0H439Z" />
<glyph unicode="X" horiz-adv-x="1341" d="M1057 0L668 567L512 762L13 1480H312L671 961L827 765L1356 0H1057ZM-17 0L512 762L671 961L1030 1480H1321L827 765L668 567L278 0H-17Z" />
<glyph unicode="Y" horiz-adv-x="1247" d="M491 0V746L546 549L-45 1480H242L670 802H591L1014 1480H1281L703 549L759 743V0H491Z" />
<glyph unicode="Z" horiz-adv-x="1209" d="M60 0V147L826 1310L832 1256H71V1480H1138V1333L372 170L366 224H1149V0H60Z" />
<glyph unicode="[" horiz-adv-x="696" d="M166 -440V1616H728V1407H429V-231H723V-440H166Z" />
<glyph unicode="\" horiz-adv-x="729" d="M469 -240L0 1616H260L729 -240H469Z" />
<glyph unicode="]" horiz-adv-x="696" d="M-27 -440V-231H267V1407H-32V1616H530V-440H-27Z" />
<glyph unicode="^" horiz-adv-x="1220" d="M76 740L482 1480H737L1144 740H886L559 1349H661L334 740H76Z" />
<glyph unicode="_" horiz-adv-x="1179" d="M90 -210V-1H1089V-210H90Z" />
<glyph unicode="`" horiz-adv-x="1109" d="M480 1240L219 1616H499L720 1240H480Z" />
<glyph unicode="a" horiz-adv-x="1086" d="M419 -19Q256 -19 165 65T73 290Q73 440 175 524T506 626L758 650L786 498L531 475Q426 465 380 425T334 315Q334 244 376 206T500 168Q554 168 609 189T709 259V688Q709 771 683 818T599 885T449 905Q387 905 308 894T154
860V1061Q231 1084 322 1096T494 1108Q655 1108 759 1068T915 932T966 672V0H749L730 113H717Q667 46 589 14T419 -19Z" />
<glyph unicode="b" horiz-adv-x="1194" d="M521 -20Q423 -20 321 -6T130 37V1616H393V982H406Q455 1040 528 1074T695 1108Q809 1108 905 1053T1058 879T1116 567Q1116 276 968 128T521 -20ZM543 183Q695 183 773 267T851 545Q851 680 819 755T731 860T600 890Q543
890 488 869T393 804V202Q423 194 462 189T543 183Z" />
<glyph unicode="c" horiz-adv-x="931" d="M615 -20Q442 -20 322 40T140 226T78 544Q78 738 145 863T340 1048T651 1108Q714 1108 773 1102T887 1082V871Q835 882 785 888T685 894Q570 894 496 860T385 749T349 547Q349 419 383 341T486 229T655 194Q707 194 762
203T887 233V22Q826 2 757 -9T615 -20Z" />
<glyph unicode="d" horiz-adv-x="1194" d="M519 -19Q399 -19 299 35T138 209T78 523Q78 715 144 845T339 1042T657 1109Q695 1109 732 1106T801 1098V1616H1064V0H843L826 116H813Q765 56 691 19T519 -19ZM593 198Q650 198 706 221T801 293V891Q772 897 733 901T656
906Q501 906 422 822T343 544Q343 410 374 335T462 229T593 198Z" />
<glyph unicode="e" horiz-adv-x="1081" d="M648 -20Q455 -20 329 38T140 222T78 546Q78 731 135 856T301 1044T562 1108Q709 1108 810 1045T964 854T1016 538V467H226V625H816L770 603Q770 727 746 800T675 904T559 936Q490 936 441 905T367 801T341 604V502Q341
384 374 314T483 213T684 182Q747 182 816 192T958 220V19Q874 -2 799 -11T648 -20Z" />
<glyph unicode="f" horiz-adv-x="772" d="M210 0V1199Q210 1338 262 1435T416 1584T667 1636Q708 1636 746 1633T822 1624V1415Q791 1420 763 1422T704 1425Q584 1425 528 1375T471 1211V0H210ZM23 882V1091H778V882H23Z" />
<glyph unicode="g" horiz-adv-x="1194" d="M501 -460Q419 -460 328 -449T152 -414V-205Q241 -231 325 -243T482 -255Q648 -255 724 -190T801 32V116H788Q740 59 667 25T499 -9Q387 -9 291 46T137 218T78 523Q78 810 227 959T674 1108Q739 1108 808 1102T942 1082T1064
1051V79Q1064 -207 925 -333T501 -460ZM594 207Q651 207 706 228T801 294V888Q772 896 733 901T651 906Q502 906 423 823T343 546Q343 414 375 340T463 237T594 207Z" />
<glyph unicode="h" horiz-adv-x="1192" d="M130 0V1616H393V977H406Q466 1041 545 1074T720 1108Q819 1108 899 1068T1025 936T1072 695V0H809V678Q809 792 760 835T629 879Q588 879 545 868T463 833T393 771V0H130Z" />
<glyph unicode="i" horiz-adv-x="524" d="M130 0V1091H393V0H130ZM262 1277Q178 1277 137 1315T95 1420Q95 1488 136 1525T262 1563Q347 1563 388 1526T429 1420Q429 1353 388 1315T262 1277Z" />
<glyph unicode="j" horiz-adv-x="524" d="M137 -469L-34 -355Q26 -274 62 -195T114 -26T130 174V1091H393V186Q393 58 368 -51T287 -262T137 -469ZM259 1280Q175 1280 134 1318T92 1423Q92 1491 133 1528T259 1566Q344 1566 385 1529T426 1423Q426 1356 385 1318T259
1280Z" />
<glyph unicode="k" horiz-adv-x="1129" d="M870 0L466 560L841 1091H1124L734 530V600L1159 0H870ZM368 453V666H563V453H368ZM130 0V1616H393V0H130Z" />
<glyph unicode="l" horiz-adv-x="523" d="M130 0V1616H393V0H130Z" />
<glyph unicode="m" horiz-adv-x="1766" d="M130 0V1091H348L366 975H379Q439 1041 517 1074T689 1108Q784 1108 859 1068T977 939T1020 702V0H763V680Q763 793 720 836T604 880Q567 880 528 869T454 832T393 768V0H130ZM1383 0V680Q1383 793 1337 836T1218 880Q1180
880 1139 868T1061 829T997 755L941 934Q1017 1029 1110 1068T1295 1108Q1396 1108 1475 1068T1599 936T1645 694V0H1383Z" />
<glyph unicode="n" horiz-adv-x="1192" d="M130 0V1091H348L366 976H379Q442 1040 526 1074T707 1108Q813 1108 895 1067T1025 936T1072 694V0H809V679Q809 792 761 836T629 880Q589 880 546 869T463 834T393 771V0H130Z" />
<glyph unicode="o" horiz-adv-x="1171" d="M586 -20Q431 -20 317 41T141 226T78 543Q78 736 139 861T314 1047T586 1108Q744 1108 858 1047T1032 861T1093 544Q1093 353 1031 228T855 41T586 -20ZM586 182Q662 182 716 215T799 326T828 542Q828 681 799 760T716
873T586 906Q510 906 456 873T372 762T343 546Q343 407 372 328T455 215T586 182Z" />
<glyph unicode="p" horiz-adv-x="1194" d="M130 -440V1091H352L368 973H381Q429 1034 503 1071T675 1108Q795 1108 895 1054T1056 881T1116 566Q1116 374 1051 244T856 47T537 -20Q500 -20 463 -17T393 -10V-440H130ZM538 183Q694 183 772 267T851 545Q851 680
819 755T731 860T602 891Q544 891 488 869T393 796V198Q423 192 462 188T538 183Z" />
<glyph unicode="q" horiz-adv-x="1194" d="M801 -440V106H788Q740 48 667 14T499 -20Q385 -20 289 35T136 209T78 521Q78 813 227 960T673 1108Q739 1108 808 1102T942 1082T1064 1051V-440H801ZM594 198Q651 198 706 219T801 285V888Q772 896 733 901T651 906Q502
906 423 822T343 543Q343 409 375 334T463 229T594 198Z" />
<glyph unicode="r" horiz-adv-x="779" d="M130 0V1091H346L367 948H380Q430 1028 509 1066T680 1104Q704 1104 726 1102T767 1097V858Q743 862 717 863T664 865Q615 865 564 852T468 811T393 743V0H130Z" />
<glyph unicode="s" horiz-adv-x="951" d="M430 -20Q340 -20 256 -9T97 26V223Q177 199 259 187T427 175Q547 175 598 210T649 309Q649 362 621 390T526 431L359 463Q207 493 139 569T71 771Q71 921 190 1014T556 1108Q633 1108 704 1100T836 1074V877Q772 895
704 904T564 913Q468 913 415 895T339 845T317 777Q317 732 344 703T438 659L604 628Q752 599 823 528T895 320Q895 162 775 71T430 -20Z" />
<glyph unicode="t" horiz-adv-x="810" d="M592 -20Q405 -20 304 74T202 373V1091L249 1480H465V414Q465 293 512 246T660 199Q688 199 717 202T781 213V2Q739 -7 690 -13T592 -20ZM15 882V1091H771V882H15Z" />
<glyph unicode="u" horiz-adv-x="1183" d="M487 -19Q380 -19 298 22T168 153T121 394V1091H383V410Q383 297 431 253T558 209Q597 209 639 220T721 256T790 318V1091H1053V0H835L817 113H805Q741 48 659 15T487 -19Z" />
<glyph unicode="v" horiz-adv-x="1128" d="M398 0L5 1091H280L583 204H560L863 1091H1123L729 0H398Z" />
<glyph unicode="w" horiz-adv-x="1769" d="M352 0L49 1091H300L522 250H506L743 1091H1038L1272 250H1252L1479 1091H1720L1419 0H1124L878 871H896L647 0H352Z" />
<glyph unicode="x" horiz-adv-x="1084" d="M794 0L540 367L387 549L8 1091H299L546 737L696 553L1086 0H794ZM1 0L387 549L546 737L791 1091H1074L696 553L540 367L285 0H1Z" />
<glyph unicode="y" horiz-adv-x="1128" d="M311 -440L471 0L560 204L863 1091H1123L570 -440H311ZM398 0L5 1091H280L644 0H398Z" />
<glyph unicode="z" horiz-adv-x="980" d="M64 0V165L630 932V882H75V1091H917V925L352 158V209H928V0H64Z" />
<glyph unicode="{" horiz-adv-x="736" d="M606 -460Q408 -460 307 -365T206 -86V379Q206 451 169 487T63 523H19V732H63Q131 732 168 768T206 876V1262Q206 1447 307 1541T606 1636Q653 1636 694 1633T768 1624V1423H647Q558 1423 514 1384T469 1256V884Q469 757
404 689T188 612V643Q339 635 404 567T469 371V-80Q469 -168 513 -207T647 -247H768V-448Q735 -453 694 -456T606 -460Z" />
<glyph unicode="|" horiz-adv-x="530" d="M146 -440V1616H384V-440H146Z" />
<glyph unicode="}" horiz-adv-x="736" d="M130 -460Q83 -460 43 -457T-32 -448V-247H89Q178 -247 222 -208T267 -80V371Q267 498 333 566T548 643V612Q399 621 333 689T267 884V1256Q267 1345 223 1384T89 1423H-32V1624Q2 1629 42 1632T130 1636Q329 1636 429
1542T530 1262V876Q530 805 567 769T673 732H717V523H673Q605 523 568 487T530 379V-86Q530 -270 430 -365T130 -460Z" />
<glyph unicode="~" horiz-adv-x="1091" d="M736 599Q679 599 627 619T524 662Q479 682 437 699T351 716Q286 716 234 690T128 607V819Q213 916 355 916Q413 916 465 896T567 853Q613 832 655 816T740 799Q806 799 859 825T963 908V695Q879 599 736 599Z" />
<glyph unicode="&#xa0;" horiz-adv-x="498" />
<glyph unicode="&#xa1;" horiz-adv-x="563" d="M202 643H364L421 136V-380H142V136L202 643ZM282 1106Q360 1106 408 1062T456 942Q456 868 409 823T282 777Q201 777 154 822T107 942Q107 1019 155 1062T282 1106Z" />
<glyph unicode="&#xa2;" horiz-adv-x="936" d="M615 -20Q442 -20 322 40T140 226T78 544Q78 738 145 863T340 1048T651 1108Q715 1108 773 1102T887 1082V871Q834 882 784 888T684 894Q568 894 494 860T385 749T349 547Q349 419 383 341T486 229T655 194Q707 194
762 203T887 233V22Q826 2 757 -9T615 -20ZM478 -240V33H704V-240H478ZM478 1058V1331H704V1058H478Z" />
<glyph unicode="&#xa3;" horiz-adv-x="1316" d="M279 82V1017Q279 1256 428 1377T875 1499Q965 1499 1052 1488T1209 1458V1238Q1136 1259 1053 1270T891 1281Q765 1281 688 1256T575 1174T539 1027V82H279ZM75 0V216H1252V0H75ZM75 651V849H1022V651H75Z" />
<glyph unicode="&#xa4;" horiz-adv-x="1220" d="M386 864L205 1015L93 1123L226 1256L334 1145L486 963L386 864ZM834 864L734 963L886 1145L994 1256L1127 1123L1015 1015L834 864ZM993 224L885 335L738 511L839 612L1015 465L1126 357L993 224ZM227 224L94 357L205
465L381 612L482 511L335 335L227 224ZM610 381Q507 381 427 426T302 551T256 740Q256 847 301 927T427 1052T610 1097Q712 1097 792 1053T918 928T964 740Q964 632 918 552T792 426T610 381ZM610 531Q695 531 749 586T804 740Q804 831 753 890T612 949Q526 949
471 894T416 740Q416 642 471 587T610 531Z" />
<glyph unicode="&#xa5;" horiz-adv-x="1269" d="M502 0V746L557 549L-32 1480H255L681 802H603L1027 1480H1294L715 549L770 743V0H502ZM188 275V436H1084V275H188ZM188 612V773H1084V612H188Z" />
<glyph unicode="&#xa6;" horiz-adv-x="530" d="M146 836V1616H384V836H146ZM146 -440V340H384V-440H146Z" />
<glyph unicode="&#xa7;" horiz-adv-x="1076" d="M460 -20Q381 -20 299 -10T142 21V208Q223 186 301 176T458 166Q546 166 597 182T671 228T694 300Q694 354 666 382T571 424L375 463Q242 492 172 565T101 764Q101 847 142 910T255 1017L396 921Q356 888 338 853T319
778Q319 725 350 690T457 637L654 598Q795 568 864 501T934 315Q934 161 815 71T460 -20ZM813 457L666 556Q715 590 735 624T756 700Q756 758 725 792T616 843L420 882Q279 911 208 980T136 1162Q136 1261 187 1336T348 1454T629 1497Q699 1497 767 1490T895 1469V1282Q830
1298 770 1304T647 1311Q541 1311 482 1293T400 1243T376 1175Q376 1129 404 1100T498 1055L699 1017Q836 989 905 918T974 718Q974 630 931 566T813 457Z" />
<glyph unicode="&#xa8;" horiz-adv-x="1109" d="M835 1281Q764 1281 726 1318T687 1420Q687 1485 725 1522T835 1560Q906 1560 944 1523T983 1420Q983 1355 945 1318T835 1281ZM365 1281Q294 1281 256 1318T217 1420Q217 1485 255 1522T365 1560Q436 1560 474
1523T513 1420Q513 1355 475 1318T365 1281Z" />
<glyph unicode="&#xa9;" horiz-adv-x="1677" d="M839 -22Q614 -22 446 73T185 339T91 740Q91 969 184 1140T446 1407T839 1502Q1063 1502 1231 1407T1492 1141T1586 740Q1586 511 1493 340T1231 73T839 -22ZM892 324Q703 324 589 429T474 733Q474 929 590 1036T911
1144Q964 1144 1011 1138T1103 1119V953Q1057 964 1016 969T927 974Q800 974 736 915T671 735Q671 614 734 554T910 494Q953 494 998 501T1103 526V359Q1059 342 1006 333T892 324ZM839 125Q1023 125 1156 200T1362 414T1434 740Q1434 928 1362 1066T1157 1279T839
1355Q654 1355 521 1280T315 1066T243 740Q243 552 315 414T520 201T839 125Z" />
<glyph unicode="&#xaa;" horiz-adv-x="912" d="M339 594Q200 594 125 663T49 844Q49 969 134 1035T410 1114L622 1131L650 1006L443 990Q362 984 326 955T290 873Q290 818 324 789T424 760Q464 760 504 775T578 823V1165Q578 1220 558 1253T490 1300T365 1314Q309
1314 245 1305T118 1277V1459Q186 1478 263 1487T409 1497Q550 1497 641 1463T776 1350T820 1135V610H617L599 701H587Q546 647 481 621T339 594Z" />
<glyph unicode="&#xab;" horiz-adv-x="1148" d="M346 135L94 565L346 996H614L362 565L614 135H346ZM826 135L574 565L826 996H1094L842 565L1094 135H826Z" />
<glyph unicode="&#xac;" horiz-adv-x="1333" d="M999 196V658H128V862H1212V196H999Z" />
<glyph unicode="&#xad;" horiz-adv-x="884" d="M128 458V673H756V458H128Z" />
<glyph unicode="&#xae;" horiz-adv-x="1460" d="M730 268Q549 268 412 345T197 561T120 882Q120 1064 197 1203T411 1420T730 1498Q911 1498 1048 1420T1263 1203T1340 882Q1340 700 1263 562T1049 346T730 268ZM869 600L723 812L840 838L1003 600H869ZM730 383Q878
383 987 445T1157 619T1218 882Q1218 1034 1158 1146T988 1321T730 1383Q583 1383 473 1321T303 1147T243 882Q243 731 303 619T473 445T730 383ZM515 600V1192H719Q847 1192 910 1143T974 997Q974 901 912 853T719 804H638L635 600H515ZM638 904H739Q856 904 856
997Q856 1092 739 1092H638V904Z" />
<glyph unicode="&#xaf;" horiz-adv-x="1109" d="M261 1340V1502H939V1340H261Z" />
<glyph unicode="&#xb0;" horiz-adv-x="974" d="M487 772Q381 772 298 819T168 948T120 1135Q120 1241 167 1323T298 1451T487 1498Q593 1498 676 1452T806 1323T854 1135Q854 1030 807 948T676 819T487 772ZM487 930Q573 930 629 985T686 1135Q686 1231 629 1285T487
1340Q402 1340 346 1286T289 1136Q289 1041 345 986T487 930Z" />
<glyph unicode="&#xb1;" horiz-adv-x="1091" d="M439 361V670H128V874H439V1184H652V874H963V670H652V361H439ZM128 1V204H963V1H128Z" />
<glyph unicode="&#xb2;" horiz-adv-x="831" d="M84 616V728L371 1077Q437 1159 466 1215T496 1322Q496 1394 450 1427T299 1461Q239 1461 180 1451T72 1422V1592Q122 1610 190 1619T329 1629Q513 1629 609 1561T706 1342Q706 1264 671 1188T553 1013L322 736L319
789H751V616H84Z" />
<glyph unicode="&#xb3;" horiz-adv-x="831" d="M336 603Q268 603 200 612T69 638V796Q132 778 200 769T327 759Q442 759 495 797T548 906Q548 975 500 1011T339 1048H179V1207H303Q411 1207 461 1243T512 1344Q512 1407 465 1440T319 1473Q263 1473 202 1464T88
1434V1593Q137 1609 207 1619T342 1629Q527 1629 620 1560T714 1363Q714 1271 661 1210T515 1127V1139Q627 1123 687 1061T748 893Q748 757 646 680T336 603Z" />
<glyph unicode="&#xb4;" horiz-adv-x="1109" d="M480 1240L701 1616H981L720 1240H480Z" />
<glyph unicode="&#xb5;" horiz-adv-x="1183" d="M538 -19Q452 -19 387 22T286 153T250 394V595H383V410Q383 297 431 253T559 209Q597 209 639 220T721 256T790 318V1091H1053V0H835L817 113H805Q751 48 683 15T538 -19ZM121 -440V1090H383V-440H121Z" />
<glyph unicode="&#xb6;" horiz-adv-x="1287" d="M630 0V454Q603 451 578 450T522 449Q298 449 189 582T79 973Q79 1245 193 1371T543 1497Q616 1497 687 1493T821 1480V0H630ZM951 0V1480H1141V0H951Z" />
<glyph unicode="&#xb7;" horiz-adv-x="523" d="M262 395Q183 395 135 439T87 559Q87 636 134 680T262 724Q342 724 389 679T436 559Q436 485 388 440T262 395Z" />
<glyph unicode="&#xb8;" horiz-adv-x="1109" d="M599 -433Q551 -433 505 -424T422 -400V-292Q463 -310 507 -318T588 -326Q641 -326 667 -308T693 -250Q693 -173 587 -173H544V20H675V-131L614 -89Q723 -89 779 -134T835 -261Q835 -340 776 -386T599 -433Z" />
<glyph unicode="&#xb9;" horiz-adv-x="831" d="M352 641V1496L427 1432L136 1239V1427L427 1620H564V641H352ZM134 616V789H770V616H134Z" />
<glyph unicode="&#xba;" horiz-adv-x="986" d="M493 594Q288 594 172 708T56 1047Q56 1271 172 1384T493 1497Q698 1497 814 1383T930 1047Q930 898 878 798T727 646T493 594ZM493 777Q552 777 595 802T661 886T685 1047Q685 1149 662 1207T595 1290T493 1314Q435
1314 392 1290T325 1208T301 1047Q301 945 324 886T391 802T493 777Z" />
<glyph unicode="&#xbb;" horiz-adv-x="1148" d="M54 135L306 565L54 996H322L574 565L322 135H54ZM534 135L786 565L534 996H802L1054 565L802 135H534Z" />
<glyph unicode="&#xbc;" horiz-adv-x="1999" d="M352 641V1496L427 1432L136 1239V1427L427 1620H564V641H352ZM134 616V789H770V616H134ZM489 -136L1289 1616H1510L709 -136H489ZM1195 73V187L1524 864H1722L1395 187L1374 234H1976V73H1195ZM1661 -136V234L1699
526H1848V-136H1661Z" />
<glyph unicode="&#xbd;" horiz-adv-x="1999" d="M352 641V1496L427 1432L136 1239V1427L427 1620H564V641H352ZM134 616V789H770V616H134ZM489 -136L1289 1616H1510L709 -136H489ZM1252 -136V-24L1539 325Q1605 407 1634 463T1664 570Q1664 642 1618 675T1467
709Q1407 709 1348 699T1240 670V840Q1290 858 1358 867T1497 877Q1681 877 1777 809T1874 590Q1873 512 1838 436T1721 261L1490 -16L1487 37H1919V-136H1252Z" />
<glyph unicode="&#xbe;" horiz-adv-x="1999" d="M336 603Q268 603 200 612T69 638V796Q132 778 200 769T327 759Q442 759 495 797T548 906Q548 975 500 1011T339 1048H179V1207H303Q411 1207 461 1243T512 1344Q512 1407 465 1440T319 1473Q263 1473 202 1464T88
1434V1593Q137 1609 207 1619T342 1629Q527 1629 620 1560T714 1363Q714 1271 661 1210T515 1127V1139Q627 1123 687 1061T748 893Q748 757 646 680T336 603ZM489 -136L1289 1616H1510L709 -136H489ZM1195 73V187L1524 864H1722L1395 187L1374 234H1976V73H1195ZM1661
-136V234L1699 526H1848V-136H1661Z" />
<glyph unicode="&#xbf;" horiz-adv-x="960" d="M611 664L657 283Q523 250 448 211T342 121T311 8Q311 -88 381 -140T597 -192Q680 -192 765 -178T926 -136V-345Q879 -362 819 -374T695 -393T569 -400Q314 -400 184 -298T54 -13Q54 92 95 172T219 310T429 411L449
664H611ZM530 1106Q609 1106 656 1064T704 949Q704 878 658 835T530 792Q450 792 403 835T356 949Q356 1020 403 1063T530 1106Z" />
<glyph unicode="&#xc0;" horiz-adv-x="1419" d="M19 0L516 1480H903L1400 0H1135L692 1361H723L281 0H19ZM333 425L391 640H1027L1085 425H333ZM590 1600L370 1896H648L828 1600H590Z" />
<glyph unicode="&#xc1;" horiz-adv-x="1419" d="M19 0L516 1480H903L1400 0H1135L692 1361H723L281 0H19ZM333 425L391 640H1027L1085 425H333ZM589 1600L769 1896H1047L827 1600H589Z" />
<glyph unicode="&#xc2;" horiz-adv-x="1419" d="M19 0L516 1480H903L1400 0H1135L692 1361H723L281 0H19ZM333 425L391 640H1027L1085 425H333ZM343 1600L595 1896H823L1075 1600H869L687 1822H731L549 1600H343Z" />
<glyph unicode="&#xc3;" horiz-adv-x="1419" d="M19 0L516 1480H903L1400 0H1135L692 1361H723L281 0H19ZM333 425L391 640H1027L1085 425H333ZM875 1636Q823 1636 779 1649T693 1677Q655 1691 617 1701T539 1712Q480 1712 437 1695T349 1642V1800Q386 1835 432
1852T543 1869Q595 1869 639 1857T725 1828Q764 1815 801 1804T879 1792Q938 1792 982 1809T1069 1863V1705Q1032 1670 986 1653T875 1636Z" />
<glyph unicode="&#xc4;" horiz-adv-x="1419" d="M19 0L516 1480H903L1400 0H1135L692 1361H723L281 0H19ZM333 425L391 640H1027L1085 425H333ZM958 1625Q886 1625 849 1658T811 1751Q811 1811 848 1844T958 1878Q1030 1878 1067 1845T1105 1751Q1105 1692 1068
1659T958 1625ZM460 1625Q388 1625 351 1658T313 1751Q313 1811 350 1844T460 1878Q532 1878 569 1845T607 1751Q607 1692 570 1659T460 1625Z" />
<glyph unicode="&#xc5;" horiz-adv-x="1419" d="M19 0L516 1480H903L1400 0H1135L692 1361H723L281 0H19ZM333 425L391 640H1027L1085 425H333ZM709 1589Q619 1589 560 1646T501 1792Q501 1881 560 1938T709 1996Q799 1996 858 1939T917 1792Q917 1704 858 1647T709
1589ZM709 1688Q754 1688 782 1716T811 1792Q811 1841 783 1869T709 1897Q665 1897 636 1869T607 1792Q607 1744 635 1716T709 1688Z" />
<glyph unicode="&#xc6;" horiz-adv-x="1950" d="M19 0L521 1480H982L981 1263H702L283 0H19ZM335 424L394 641H1005V424H335ZM964 0L857 1480H1868V1263H1132L1212 217H1878V0H964ZM1051 649V866H1768V649H1051Z" />
<glyph unicode="&#xc7;" horiz-adv-x="1207" d="M827 -19Q654 -19 518 23T286 156T141 391T91 737Q91 996 179 1165T436 1416T843 1499Q928 1499 1007 1490T1162 1461V1238Q1089 1257 1015 1266T862 1275Q699 1275 590 1222T427 1052T372 741Q372 542 427 425T588
256T851 205Q929 205 1005 217T1162 254V31Q1090 8 1004 -5T827 -19ZM722 -433Q668 -433 618 -424T523 -399V-291Q573 -309 620 -317T710 -326Q770 -326 802 -309T834 -251Q834 -210 802 -192T709 -173H663V20H795V-131L739 -89Q854 -89 915 -132T977 -259Q977
-341 913 -387T722 -433Z" />
<glyph unicode="&#xc8;" horiz-adv-x="1223" d="M146 0V1480H1141V1263H410V217H1151V0H146ZM307 649V866H1041V649H307ZM547 1600L327 1896H605L785 1600H547Z" />
<glyph unicode="&#xc9;" horiz-adv-x="1223" d="M146 0V1480H1141V1263H410V217H1151V0H146ZM307 649V866H1041V649H307ZM546 1600L726 1896H1004L784 1600H546Z" />
<glyph unicode="&#xca;" horiz-adv-x="1223" d="M146 0V1480H1141V1263H410V217H1151V0H146ZM307 649V866H1041V649H307ZM300 1600L552 1896H780L1032 1600H826L644 1822H688L506 1600H300Z" />
<glyph unicode="&#xcb;" horiz-adv-x="1223" d="M146 0V1480H1141V1263H410V217H1151V0H146ZM307 649V866H1041V649H307ZM915 1625Q843 1625 806 1658T768 1751Q768 1811 805 1844T915 1878Q987 1878 1024 1845T1062 1751Q1062 1692 1025 1659T915 1625ZM417 1625Q345
1625 308 1658T270 1751Q270 1811 307 1844T417 1878Q489 1878 526 1845T564 1751Q564 1692 527 1659T417 1625Z" />
<glyph unicode="&#xcc;" horiz-adv-x="559" d="M146 0V1480H413V0H146ZM161 1600L-59 1896H219L399 1600H161Z" />
<glyph unicode="&#xcd;" horiz-adv-x="559" d="M146 0V1480H413V0H146ZM160 1600L340 1896H618L398 1600H160Z" />
<glyph unicode="&#xce;" horiz-adv-x="559" d="M146 0V1480H413V0H146ZM-86 1600L166 1896H394L646 1600H440L258 1822H302L120 1600H-86Z" />
<glyph unicode="&#xcf;" horiz-adv-x="559" d="M146 0V1480H413V0H146ZM529 1625Q457 1625 420 1658T382 1751Q382 1811 419 1844T529 1878Q601 1878 638 1845T676 1751Q676 1692 639 1659T529 1625ZM31 1625Q-41 1625 -78 1658T-116 1751Q-116 1811 -79 1844T31
1878Q103 1878 140 1845T178 1751Q178 1692 141 1659T31 1625Z" />
<glyph unicode="&#xd0;" horiz-adv-x="1465" d="M3 675V849H707V675H3ZM532 -14Q472 -14 409 -12T279 -4T146 9V1450Q211 1464 285 1474T436 1490T586 1496Q976 1496 1174 1312T1373 740Q1373 476 1280 310T1000 65T532 -14ZM598 206Q765 206 876 259T1043 431T1098
741Q1098 932 1043 1050T878 1222T603 1277Q559 1277 510 1273T413 1260V215Q458 210 502 208T598 206Z" />
<glyph unicode="&#xd1;" horiz-adv-x="1517" d="M146 0V1480H416L1169 326H1119V1480H1371V0H1101L348 1154H398V0H146ZM925 1636Q873 1636 829 1649T743 1677Q705 1691 667 1701T589 1712Q530 1712 487 1695T399 1642V1800Q436 1835 482 1852T593 1869Q645 1869
689 1857T775 1828Q814 1815 851 1804T929 1792Q988 1792 1032 1809T1119 1863V1705Q1082 1670 1036 1653T925 1636Z" />
<glyph unicode="&#xd2;" horiz-adv-x="1519" d="M759 -19Q558 -19 408 62T175 311T91 740Q91 1001 174 1169T408 1418T759 1499Q961 1499 1111 1418T1344 1169T1427 740Q1427 480 1344 312T1111 62T759 -19ZM759 200Q881 200 969 253T1104 423T1152 734Q1152 933
1104 1053T968 1226T759 1280Q639 1280 551 1228T414 1058T366 746Q366 546 414 426T550 253T759 200ZM640 1600L420 1896H698L878 1600H640Z" />
<glyph unicode="&#xd3;" horiz-adv-x="1519" d="M759 -19Q558 -19 408 62T175 311T91 740Q91 1001 174 1169T408 1418T759 1499Q961 1499 1111 1418T1344 1169T1427 740Q1427 480 1344 312T1111 62T759 -19ZM759 200Q881 200 969 253T1104 423T1152 734Q1152 933
1104 1053T968 1226T759 1280Q639 1280 551 1228T414 1058T366 746Q366 546 414 426T550 253T759 200ZM639 1600L819 1896H1097L877 1600H639Z" />
<glyph unicode="&#xd4;" horiz-adv-x="1519" d="M759 -19Q558 -19 408 62T175 311T91 740Q91 1001 174 1169T408 1418T759 1499Q961 1499 1111 1418T1344 1169T1427 740Q1427 480 1344 312T1111 62T759 -19ZM759 200Q881 200 969 253T1104 423T1152 734Q1152 933
1104 1053T968 1226T759 1280Q639 1280 551 1228T414 1058T366 746Q366 546 414 426T550 253T759 200ZM393 1600L645 1896H873L1125 1600H919L737 1822H781L599 1600H393Z" />
<glyph unicode="&#xd5;" horiz-adv-x="1519" d="M759 -19Q558 -19 408 62T175 311T91 740Q91 1001 174 1169T408 1418T759 1499Q961 1499 1111 1418T1344 1169T1427 740Q1427 480 1344 312T1111 62T759 -19ZM759 200Q881 200 969 253T1104 423T1152 734Q1152 933
1104 1053T968 1226T759 1280Q639 1280 551 1228T414 1058T366 746Q366 546 414 426T550 253T759 200ZM925 1636Q873 1636 829 1649T743 1677Q705 1691 667 1701T589 1712Q530 1712 487 1695T399 1642V1800Q436 1835 482 1852T593 1869Q645 1869 689 1857T775 1828Q814
1815 851 1804T929 1792Q988 1792 1032 1809T1119 1863V1705Q1082 1670 1036 1653T925 1636Z" />
<glyph unicode="&#xd6;" horiz-adv-x="1519" d="M759 -19Q558 -19 408 62T175 311T91 740Q91 1001 174 1169T408 1418T759 1499Q961 1499 1111 1418T1344 1169T1427 740Q1427 480 1344 312T1111 62T759 -19ZM759 200Q881 200 969 253T1104 423T1152 734Q1152 933
1104 1053T968 1226T759 1280Q639 1280 551 1228T414 1058T366 746Q366 546 414 426T550 253T759 200ZM1008 1625Q936 1625 899 1658T861 1751Q861 1811 898 1844T1008 1878Q1080 1878 1117 1845T1155 1751Q1155 1692 1118 1659T1008 1625ZM510 1625Q438 1625 401
1658T363 1751Q363 1811 400 1844T510 1878Q582 1878 619 1845T657 1751Q657 1692 620 1659T510 1625Z" />
<glyph unicode="&#xd7;" horiz-adv-x="1026" d="M241 345L98 488L370 760L98 1032L241 1175L513 903L785 1175L928 1032L656 760L928 488L785 345L513 617L241 345Z" />
<glyph unicode="&#xd8;" horiz-adv-x="1519" d="M285 -2H97L1231 1481H1418L285 -2ZM759 -19Q558 -19 408 62T175 311T91 740Q91 1001 174 1169T408 1418T759 1499Q961 1499 1111 1418T1344 1169T1427 740Q1427 480 1344 312T1111 62T759 -19ZM759 200Q881 200
969 253T1104 423T1152 734Q1152 933 1104 1053T968 1226T759 1280Q639 1280 551 1228T414 1058T366 746Q366 546 414 426T550 253T759 200Z" />
<glyph unicode="&#xd9;" horiz-adv-x="1467" d="M737 -19Q530 -19 398 47T203 250T139 594V1480H407V568Q407 376 488 290T737 203Q905 203 985 289T1066 568V1480H1329V594Q1329 386 1266 250T1072 48T737 -19ZM618 1600L398 1896H676L856 1600H618Z" />
<glyph unicode="&#xda;" horiz-adv-x="1467" d="M737 -19Q530 -19 398 47T203 250T139 594V1480H407V568Q407 376 488 290T737 203Q905 203 985 289T1066 568V1480H1329V594Q1329 386 1266 250T1072 48T737 -19ZM617 1600L797 1896H1075L855 1600H617Z" />
<glyph unicode="&#xdb;" horiz-adv-x="1467" d="M737 -19Q530 -19 398 47T203 250T139 594V1480H407V568Q407 376 488 290T737 203Q905 203 985 289T1066 568V1480H1329V594Q1329 386 1266 250T1072 48T737 -19ZM371 1600L623 1896H851L1103 1600H897L715 1822H759L577
1600H371Z" />
<glyph unicode="&#xdc;" horiz-adv-x="1467" d="M737 -19Q530 -19 398 47T203 250T139 594V1480H407V568Q407 376 488 290T737 203Q905 203 985 289T1066 568V1480H1329V594Q1329 386 1266 250T1072 48T737 -19ZM986 1625Q914 1625 877 1658T839 1751Q839 1811
876 1844T986 1878Q1058 1878 1095 1845T1133 1751Q1133 1692 1096 1659T986 1625ZM488 1625Q416 1625 379 1658T341 1751Q341 1811 378 1844T488 1878Q560 1878 597 1845T635 1751Q635 1692 598 1659T488 1625Z" />
<glyph unicode="&#xdd;" horiz-adv-x="1247" d="M491 0V746L546 549L-45 1480H242L670 802H591L1014 1480H1281L703 549L759 743V0H491ZM504 1600L684 1896H962L742 1600H504Z" />
<glyph unicode="&#xde;" horiz-adv-x="1297" d="M146 0V1480H413V1273Q447 1278 489 1281T578 1285Q890 1285 1049 1159T1208 760Q1208 503 1051 370T577 236Q533 236 495 238T413 243V0H146ZM578 441Q771 441 859 516T947 758Q947 927 860 1003T593 1080Q541
1080 498 1077T413 1066V450Q454 445 493 443T578 441Z" />
<glyph unicode="&#xdf;" horiz-adv-x="1505" d="M970 -20Q892 -20 809 -10T651 21V218Q702 204 755 195T862 180T967 175Q1098 175 1150 210T1203 309Q1203 362 1176 390T1080 431L913 463Q761 492 693 568T625 770Q625 921 742 1011T1096 1101Q1116 1101 1143
1100T1198 1097T1248 1093L1101 977Q1112 1019 1118 1063T1124 1150Q1124 1260 1085 1325T976 1420T816 1450Q703 1450 627 1410T512 1285T473 1066V0H210V1065Q210 1249 280 1376T481 1570T797 1636Q948 1636 1065 1584T1248 1420T1315 1132Q1315 1072 1306 1013T1283
902Q1251 907 1214 910T1130 913Q1029 913 973 895T894 845T872 777Q872 732 899 703T992 659L1159 628Q1307 599 1378 528T1449 320Q1449 162 1327 71T970 -20ZM23 878V1091H315V878H23Z" />
<glyph unicode="&#xe0;" horiz-adv-x="1086" d="M419 -19Q256 -19 165 65T73 290Q73 440 175 524T506 626L758 650L786 498L531 475Q426 465 380 425T334 315Q334 244 376 206T500 168Q554 168 609 189T709 259V688Q709 771 683 818T599 885T449 905Q387 905 308
894T154 860V1061Q231 1084 322 1096T494 1108Q655 1108 759 1068T915 932T966 672V0H749L730 113H717Q667 46 589 14T419 -19ZM676 1240L415 1616H695L916 1240H676Z" />
<glyph unicode="&#xe1;" horiz-adv-x="1086" d="M419 -19Q256 -19 165 65T73 290Q73 440 175 524T506 626L758 650L786 498L531 475Q426 465 380 425T334 315Q334 244 376 206T500 168Q554 168 609 189T709 259V688Q709 771 683 818T599 885T449 905Q387 905 308
894T154 860V1061Q231 1084 322 1096T494 1108Q655 1108 759 1068T915 932T966 672V0H749L730 113H717Q667 46 589 14T419 -19ZM676 1240L897 1616H1177L916 1240H676Z" />
<glyph unicode="&#xe2;" horiz-adv-x="1086" d="M419 -19Q256 -19 165 65T73 290Q73 440 175 524T506 626L758 650L786 498L531 475Q426 465 380 425T334 315Q334 244 376 206T500 168Q554 168 609 189T709 259V688Q709 771 683 818T599 885T449 905Q387 905 308
894T154 860V1061Q231 1084 322 1096T494 1108Q655 1108 759 1068T915 932T966 672V0H749L730 113H717Q667 46 589 14T419 -19ZM457 1240L686 1616H906L1135 1240H942L775 1527H817L650 1240H457Z" />
<glyph unicode="&#xe3;" horiz-adv-x="1086" d="M419 -19Q256 -19 165 65T73 290Q73 440 175 524T506 626L758 650L786 498L531 475Q426 465 380 425T334 315Q334 244 376 206T500 168Q554 168 609 189T709 259V688Q709 771 683 818T599 885T449 905Q387 905 308
894T154 860V1061Q231 1084 322 1096T494 1108Q655 1108 759 1068T915 932T966 672V0H749L730 113H717Q667 46 589 14T419 -19ZM949 1306Q902 1306 861 1321T780 1354Q744 1370 710 1382T639 1395Q586 1395 543 1376T457 1313V1483Q528 1557 643 1557Q690 1557
732 1542T812 1509Q849 1494 883 1481T953 1468Q1007 1468 1050 1488T1135 1550V1380Q1064 1306 949 1306Z" />
<glyph unicode="&#xe4;" horiz-adv-x="1086" d="M419 -19Q256 -19 165 65T73 290Q73 440 175 524T506 626L758 650L786 498L531 475Q426 465 380 425T334 315Q334 244 376 206T500 168Q554 168 609 189T709 259V688Q709 771 683 818T599 885T449 905Q387 905 308
894T154 860V1061Q231 1084 322 1096T494 1108Q655 1108 759 1068T915 932T966 672V0H749L730 113H717Q667 46 589 14T419 -19ZM1031 1281Q960 1281 922 1318T883 1420Q883 1485 921 1522T1031 1560Q1102 1560 1140 1523T1179 1420Q1179 1355 1141 1318T1031 1281ZM561
1281Q490 1281 452 1318T413 1420Q413 1485 451 1522T561 1560Q632 1560 670 1523T709 1420Q709 1355 671 1318T561 1281Z" />
<glyph unicode="&#xe5;" horiz-adv-x="1086" d="M419 -19Q256 -19 165 65T73 290Q73 440 175 524T506 626L758 650L786 498L531 475Q426 465 380 425T334 315Q334 244 376 206T500 168Q554 168 609 189T709 259V688Q709 771 683 818T599 885T449 905Q387 905 308
894T154 860V1061Q231 1084 322 1096T494 1108Q655 1108 759 1068T915 932T966 672V0H749L730 113H717Q667 46 589 14T419 -19ZM796 1235Q706 1235 647 1292T588 1439Q588 1527 647 1584T796 1642Q886 1642 945 1585T1004 1439Q1004 1350 945 1293T796 1235ZM796
1334Q841 1334 869 1362T898 1439Q898 1487 870 1515T796 1543Q752 1543 723 1515T694 1439Q694 1391 722 1363T796 1334Z" />
<glyph unicode="&#xe6;" horiz-adv-x="1698" d="M1268 -20Q1079 -20 956 38T772 222T711 547L751 567Q751 741 803 862T955 1045T1193 1108Q1331 1108 1429 1046T1580 857T1633 539V467H917V625H1433L1387 601Q1387 727 1363 800T1293 905T1179 937Q1111 937 1064
906T991 801T966 604V502Q966 384 999 314T1106 213T1303 182Q1365 182 1434 192T1575 220V19Q1492 -2 1417 -11T1268 -20ZM441 -19Q323 -19 241 19T116 126T73 292Q73 390 118 465T263 582T522 625H764V472H545Q467 472 421 452T354 395T334 313Q334 243 377 206T503
168Q572 168 637 198T760 309L839 180Q753 67 651 24T441 -19ZM711 547V687Q711 771 683 818T597 885T448 905Q387 905 308 894T155 860V1061Q235 1085 320 1096T483 1108Q635 1108 733 1066T879 929T927 680V538L711 547Z" />
<glyph unicode="&#xe7;" horiz-adv-x="931" d="M615 -20Q442 -20 322 40T140 226T78 544Q78 738 145 863T340 1048T651 1108Q714 1108 773 1102T887 1082V871Q835 882 785 888T685 894Q570 894 496 860T385 749T349 547Q349 419 383 341T486 229T655 194Q707 194
762 203T887 233V22Q826 2 757 -9T615 -20ZM796 -433Q748 -433 702 -424T619 -400V-292Q660 -310 704 -318T785 -326Q838 -326 864 -308T890 -250Q890 -173 784 -173H741V20H872V-131L811 -89Q920 -89 976 -134T1032 -261Q1032 -340 973 -386T796 -433Z" />
<glyph unicode="&#xe8;" horiz-adv-x="1081" d="M648 -20Q455 -20 329 38T140 222T78 546Q78 731 135 856T301 1044T562 1108Q709 1108 810 1045T964 854T1016 538V467H226V625H816L770 603Q770 727 746 800T675 904T559 936Q490 936 441 905T367 801T341 604V502Q341
384 374 314T483 213T684 182Q747 182 816 192T958 220V19Q874 -2 799 -11T648 -20ZM693 1240L432 1616H712L933 1240H693Z" />
<glyph unicode="&#xe9;" horiz-adv-x="1081" d="M648 -20Q455 -20 329 38T140 222T78 546Q78 731 135 856T301 1044T562 1108Q709 1108 810 1045T964 854T1016 538V467H226V625H816L770 603Q770 727 746 800T675 904T559 936Q490 936 441 905T367 801T341 604V502Q341
384 374 314T483 213T684 182Q747 182 816 192T958 220V19Q874 -2 799 -11T648 -20ZM693 1240L914 1616H1194L933 1240H693Z" />
<glyph unicode="&#xea;" horiz-adv-x="1081" d="M648 -20Q455 -20 329 38T140 222T78 546Q78 731 135 856T301 1044T562 1108Q709 1108 810 1045T964 854T1016 538V467H226V625H816L770 603Q770 727 746 800T675 904T559 936Q490 936 441 905T367 801T341 604V502Q341
384 374 314T483 213T684 182Q747 182 816 192T958 220V19Q874 -2 799 -11T648 -20ZM474 1240L703 1616H923L1152 1240H959L792 1527H834L667 1240H474Z" />
<glyph unicode="&#xeb;" horiz-adv-x="1081" d="M648 -20Q455 -20 329 38T140 222T78 546Q78 731 135 856T301 1044T562 1108Q709 1108 810 1045T964 854T1016 538V467H226V625H816L770 603Q770 727 746 800T675 904T559 936Q490 936 441 905T367 801T341 604V502Q341
384 374 314T483 213T684 182Q747 182 816 192T958 220V19Q874 -2 799 -11T648 -20ZM1048 1281Q977 1281 939 1318T900 1420Q900 1485 938 1522T1048 1560Q1119 1560 1157 1523T1196 1420Q1196 1355 1158 1318T1048 1281ZM578 1281Q507 1281 469 1318T430 1420Q430
1485 468 1522T578 1560Q649 1560 687 1523T726 1420Q726 1355 688 1318T578 1281Z" />
<glyph unicode="&#xec;" horiz-adv-x="524" d="M130 0V1091H393V0H130ZM142 1240L-119 1616H161L382 1240H142Z" />
<glyph unicode="&#xed;" horiz-adv-x="524" d="M130 0V1091H393V0H130ZM142 1240L363 1616H643L382 1240H142Z" />
<glyph unicode="&#xee;" horiz-adv-x="524" d="M130 0V1091H393V0H130ZM-77 1240L152 1616H372L601 1240H408L241 1527H283L116 1240H-77Z" />
<glyph unicode="&#xef;" horiz-adv-x="524" d="M130 0V1091H393V0H130ZM497 1281Q426 1281 388 1318T349 1420Q349 1485 387 1522T497 1560Q568 1560 606 1523T645 1420Q645 1355 607 1318T497 1281ZM27 1281Q-44 1281 -82 1318T-121 1420Q-121 1485 -83 1522T27
1560Q98 1560 136 1523T175 1420Q175 1355 137 1318T27 1281Z" />
<glyph unicode="&#xf0;" horiz-adv-x="1171" d="M587 -21Q430 -21 316 40T140 226T78 543Q78 736 139 860T309 1043T563 1103Q655 1103 737 1065T875 931L785 935Q748 1058 676 1178T501 1409T266 1616H580Q688 1535 781 1421T945 1171T1055 889T1094 598Q1094
382 1033 246T858 44T587 -21ZM587 181Q662 181 716 216T799 329T828 540Q828 679 799 758T716 871T586 905Q510 905 456 872T372 760T343 544Q343 406 372 327T455 215T587 181ZM193 1197L164 1345L1037 1499L1066 1351L193 1197Z" />
<glyph unicode="&#xf1;" horiz-adv-x="1192" d="M130 0V1091H348L366 976H379Q442 1040 526 1074T707 1108Q813 1108 895 1067T1025 936T1072 694V0H809V679Q809 792 761 836T629 880Q589 880 546 869T463 834T393 771V0H130ZM755 1306Q708 1306 667 1321T586
1354Q550 1370 516 1382T445 1395Q392 1395 349 1376T263 1313V1483Q334 1557 449 1557Q496 1557 538 1542T618 1509Q655 1494 689 1481T759 1468Q813 1468 856 1488T941 1550V1380Q870 1306 755 1306Z" />
<glyph unicode="&#xf2;" horiz-adv-x="1171" d="M586 -20Q431 -20 317 41T141 226T78 543Q78 736 139 861T314 1047T586 1108Q744 1108 858 1047T1032 861T1093 544Q1093 353 1031 228T855 41T586 -20ZM586 182Q662 182 716 215T799 326T828 542Q828 681 799 760T716
873T586 906Q510 906 456 873T372 762T343 546Q343 407 372 328T455 215T586 182ZM722 1240L461 1616H741L962 1240H722Z" />
<glyph unicode="&#xf3;" horiz-adv-x="1171" d="M586 -20Q431 -20 317 41T141 226T78 543Q78 736 139 861T314 1047T586 1108Q744 1108 858 1047T1032 861T1093 544Q1093 353 1031 228T855 41T586 -20ZM586 182Q662 182 716 215T799 326T828 542Q828 681 799 760T716
873T586 906Q510 906 456 873T372 762T343 546Q343 407 372 328T455 215T586 182ZM722 1240L943 1616H1223L962 1240H722Z" />
<glyph unicode="&#xf4;" horiz-adv-x="1171" d="M586 -20Q431 -20 317 41T141 226T78 543Q78 736 139 861T314 1047T586 1108Q744 1108 858 1047T1032 861T1093 544Q1093 353 1031 228T855 41T586 -20ZM586 182Q662 182 716 215T799 326T828 542Q828 681 799 760T716
873T586 906Q510 906 456 873T372 762T343 546Q343 407 372 328T455 215T586 182ZM503 1240L732 1616H952L1181 1240H988L821 1527H863L696 1240H503Z" />
<glyph unicode="&#xf5;" horiz-adv-x="1171" d="M586 -20Q431 -20 317 41T141 226T78 543Q78 736 139 861T314 1047T586 1108Q744 1108 858 1047T1032 861T1093 544Q1093 353 1031 228T855 41T586 -20ZM586 182Q662 182 716 215T799 326T828 542Q828 681 799 760T716
873T586 906Q510 906 456 873T372 762T343 546Q343 407 372 328T455 215T586 182ZM995 1306Q948 1306 907 1321T826 1354Q790 1370 756 1382T685 1395Q632 1395 589 1376T503 1313V1483Q574 1557 689 1557Q736 1557 778 1542T858 1509Q895 1494 929 1481T999 1468Q1053
1468 1096 1488T1181 1550V1380Q1110 1306 995 1306Z" />
<glyph unicode="&#xf6;" horiz-adv-x="1171" d="M586 -20Q431 -20 317 41T141 226T78 543Q78 736 139 861T314 1047T586 1108Q744 1108 858 1047T1032 861T1093 544Q1093 353 1031 228T855 41T586 -20ZM586 182Q662 182 716 215T799 326T828 542Q828 681 799 760T716
873T586 906Q510 906 456 873T372 762T343 546Q343 407 372 328T455 215T586 182ZM1077 1281Q1006 1281 968 1318T929 1420Q929 1485 967 1522T1077 1560Q1148 1560 1186 1523T1225 1420Q1225 1355 1187 1318T1077 1281ZM607 1281Q536 1281 498 1318T459 1420Q459
1485 497 1522T607 1560Q678 1560 716 1523T755 1420Q755 1355 717 1318T607 1281Z" />
<glyph unicode="&#xf7;" horiz-adv-x="1091" d="M128 658V862H963V658H128ZM546 222Q473 222 430 262T386 372Q386 442 429 482T546 523Q620 523 663 482T706 372Q706 305 662 264T546 222ZM546 997Q473 997 430 1037T386 1147Q386 1217 429 1257T546 1298Q620
1298 663 1257T706 1147Q706 1079 662 1038T546 997Z" />
<glyph unicode="&#xf8;" horiz-adv-x="1171" d="M967 956Q1028 887 1060 784T1093 544Q1093 353 1031 228T855 41T586 -20Q507 -20 439 -3T316 51L270 -12H98L204 136Q143 205 111 306T78 543Q78 736 139 861T314 1047T586 1108Q664 1108 731 1091T853 1039L899
1103H1072L967 956ZM586 909Q508 909 452 876T366 764T336 546Q336 483 345 434T371 351L733 856Q705 885 668 897T586 909ZM586 179Q664 179 720 212T805 324T835 542Q835 608 826 658T800 744L436 234Q465 205 502 192T586 179Z" />
<glyph unicode="&#xf9;" horiz-adv-x="1183" d="M487 -19Q380 -19 298 22T168 153T121 394V1091H383V410Q383 297 431 253T558 209Q597 209 639 220T721 256T790 318V1091H1053V0H835L817 113H805Q741 48 659 15T487 -19ZM723 1240L462 1616H742L963 1240H723Z" />
<glyph unicode="&#xfa;" horiz-adv-x="1183" d="M487 -19Q380 -19 298 22T168 153T121 394V1091H383V410Q383 297 431 253T558 209Q597 209 639 220T721 256T790 318V1091H1053V0H835L817 113H805Q741 48 659 15T487 -19ZM723 1240L944 1616H1224L963 1240H723Z" />
<glyph unicode="&#xfb;" horiz-adv-x="1183" d="M487 -19Q380 -19 298 22T168 153T121 394V1091H383V410Q383 297 431 253T558 209Q597 209 639 220T721 256T790 318V1091H1053V0H835L817 113H805Q741 48 659 15T487 -19ZM504 1240L733 1616H953L1182 1240H989L822
1527H864L697 1240H504Z" />
<glyph unicode="&#xfc;" horiz-adv-x="1183" d="M487 -19Q380 -19 298 22T168 153T121 394V1091H383V410Q383 297 431 253T558 209Q597 209 639 220T721 256T790 318V1091H1053V0H835L817 113H805Q741 48 659 15T487 -19ZM1078 1281Q1007 1281 969 1318T930 1420Q930
1485 968 1522T1078 1560Q1149 1560 1187 1523T1226 1420Q1226 1355 1188 1318T1078 1281ZM608 1281Q537 1281 499 1318T460 1420Q460 1485 498 1522T608 1560Q679 1560 717 1523T756 1420Q756 1355 718 1318T608 1281Z" />
<glyph unicode="&#xfd;" horiz-adv-x="1128" d="M311 -440L471 0L560 204L863 1091H1123L570 -440H311ZM398 0L5 1091H280L644 0H398ZM700 1240L921 1616H1201L940 1240H700Z" />
<glyph unicode="&#xfe;" horiz-adv-x="1194" d="M130 -440V1616H393V982H406Q455 1040 528 1074T696 1108Q810 1108 905 1053T1058 879T1116 566Q1116 374 1051 244T856 47T537 -20Q500 -20 463 -17T393 -10V-440H130ZM538 183Q694 183 772 267T851 545Q851 680
819 755T731 860T601 890Q544 890 488 869T393 799V198Q423 192 462 188T538 183Z" />
<glyph unicode="&#xff;" horiz-adv-x="1128" d="M311 -440L471 0L560 204L863 1091H1123L570 -440H311ZM398 0L5 1091H280L644 0H398ZM1055 1281Q984 1281 946 1318T907 1420Q907 1485 945 1522T1055 1560Q1126 1560 1164 1523T1203 1420Q1203 1355 1165 1318T1055
1281ZM585 1281Q514 1281 476 1318T437 1420Q437 1485 475 1522T585 1560Q656 1560 694 1523T733 1420Q733 1355 695 1318T585 1281Z" />
<glyph unicode="&#x2013;" horiz-adv-x="900" d="M0 472V659H900V472H0Z" />
<glyph unicode="&#x2014;" horiz-adv-x="1800" d="M0 472V659H1800V472H0Z" />
<glyph unicode="&#x2018;" horiz-adv-x="523" d="M271 970Q181 970 135 1023T88 1184Q88 1300 126 1413T225 1616H376Q332 1515 307 1428T282 1249L228 1299H261Q340 1299 388 1255T436 1134Q436 1057 391 1014T271 970Z" />
<glyph unicode="&#x2019;" horiz-adv-x="523" d="M147 985Q191 1088 215 1175T240 1352L295 1303H261Q183 1303 135 1347T87 1467Q87 1544 133 1587T257 1631Q343 1631 389 1578T435 1417Q435 1302 397 1189T298 985H147Z" />
<glyph unicode="&#x201a;" horiz-adv-x="523" d="M147 -333Q191 -230 215 -143T240 34L295 -15H261Q183 -15 135 29T87 149Q87 226 133 269T257 313Q343 313 389 260T435 99Q435 -16 397 -129T298 -333H147Z" />
<glyph unicode="&#x201c;" horiz-adv-x="966" d="M271 970Q181 970 135 1023T88 1184Q88 1300 126 1413T225 1616H376Q332 1515 307 1428T282 1249L228 1299H261Q340 1299 388 1255T436 1134Q436 1057 391 1014T271 970ZM715 970Q625 970 579 1023T532 1184Q532
1300 570 1413T669 1616H820Q776 1515 751 1428T726 1249L672 1299H705Q784 1299 832 1255T880 1134Q880 1057 835 1014T715 970Z" />
<glyph unicode="&#x201d;" horiz-adv-x="966" d="M147 985Q191 1088 215 1175T240 1352L295 1303H261Q183 1303 135 1347T87 1467Q87 1544 133 1587T257 1631Q343 1631 389 1578T435 1417Q435 1302 397 1189T298 985H147ZM591 985Q635 1088 659 1175T684 1352L739
1303H705Q627 1303 579 1347T531 1467Q531 1544 577 1587T701 1631Q787 1631 833 1578T879 1417Q879 1302 841 1189T742 985H591Z" />
<glyph unicode="&#x201e;" horiz-adv-x="966" d="M147 -333Q191 -230 215 -143T240 34L295 -15H261Q183 -15 135 29T87 149Q87 226 133 269T257 313Q343 313 389 260T435 99Q435 -16 397 -129T298 -333H147ZM591 -333Q635 -230 659 -143T684 34L739 -15H705Q627
-15 579 29T531 149Q531 226 577 269T701 313Q787 313 833 260T879 99Q879 -16 841 -129T742 -333H591Z" />
<glyph unicode="&#x2022;" horiz-adv-x="743" d="M371 275Q292 275 227 312T125 413T87 560Q87 643 125 707T227 808T372 845Q451 845 515 808T618 707T656 560Q656 477 619 413T516 312T371 275Z" />
<glyph unicode="&#x2039;" horiz-adv-x="668" d="M346 135L94 565L346 996H614L362 565L614 135H346Z" />
<glyph unicode="&#x203a;" horiz-adv-x="668" d="M54 135L306 565L54 996H322L574 565L322 135H54Z" />
</font>
</defs>
</svg>
