<?xml version="1.0" encoding="UTF-8"?>
<svg width="16px" height="16px" viewBox="0 0 16 16" version="1.1" xmlns="http://www.w3.org/2000/svg">
  <path fill="context-fill #666" d="M11.93,5.91 C12.492,2.67 9.46,0.16 6,0.16 C2.69,0.16 0,2.39 0,5.12 C0,6.43 0.57,7.674 1.53,8.53 L0.37,10.66 C0.22,10.938 0.49,11.26 0.79,11.14 L4,9.85 C4.56,10 4.99,10 5.41,10 C5.91,7.47 8.73,5.41 11.93,5.91 Z"/>
  <path fill="context-fill #666" d="M11,6.5 C8.29,6.5 6,8.48 6,10.83 C6,13.91 9.54,16.17 12.67,14.85 C12.88,14.93 15,15.73 15.21,15.81 C15.49,15.91 15.76,15.62 15.63,15.35 C15.44,14.98 14.91,13.92 14.74,13.58 C15.55,12.85 16,11.912 16,10.83 C16,8.48 13.71,6.5 11,6.5 Z"/>
</svg>