<?xml version="1.0" encoding="utf-8"?>
<!-- Generator: Adobe Illustrator 22.1.0, SVG Export Plug-In . SVG Version: 6.00 Build 0)  -->
<svg version="1.1" id="Livello_1" xmlns="http://www.w3.org/2000/svg" xmlns:xlink="http://www.w3.org/1999/xlink" x="0px" y="0px"
	 viewBox="0 0 16 16" style="enable-background:new 0 0 16 16;" xml:space="preserve">
<style type="text/css">
	.st0{fill:#FFFFFF;}
</style>
<path class="st0" d="M15.3,3.3c-0.4,0-0.7,0.3-0.7,0.7c0,0.4,0.3,0.7,0.7,0.7h0.3C15.9,4.7,16,4.8,16,5v2c0,0.2-0.1,0.3-0.3,0.3
	h-0.3c-0.4,0-0.7,0.3-0.7,0.7c0,0.4,0.3,0.7,0.7,0.7h0.3C15.9,8.7,16,8.8,16,9v2c0,0.2-0.1,0.3-0.3,0.3h-0.3c-0.4,0-0.7,0.3-0.7,0.7
	c0,0.4,0.3,0.7,0.7,0.7h0.3c0.2,0,0.3,0.2,0.3,0.3v2c0,0.6-0.4,1-1,1h-2c-0.2,0-0.3-0.1-0.3-0.3v-0.3c0-0.4-0.3-0.7-0.7-0.7
	s-0.7,0.3-0.7,0.7v0.3c0,0.2-0.1,0.3-0.3,0.3H9c-0.2,0-0.3-0.1-0.3-0.3v-0.3c0-0.4-0.3-0.7-0.7-0.7c-0.4,0-0.7,0.3-0.7,0.7v0.3
	C7.3,15.9,7.2,16,7,16H5c-0.2,0-0.3-0.1-0.3-0.3v-0.3c0-0.4-0.3-0.7-0.7-0.7c-0.4,0-0.7,0.3-0.7,0.7v0.3C3.3,15.9,3.2,16,3,16H1
	c-0.6,0-1-0.4-1-1v-2c0-0.2,0.2-0.3,0.3-0.3h0.3c0.4,0,0.7-0.3,0.7-0.7c0-0.4-0.3-0.7-0.7-0.7H0.3C0.2,11.3,0,11.2,0,11V9
	c0-0.2,0.2-0.3,0.3-0.3h0.3C1,8.7,1.3,8.4,1.3,8c0-0.4-0.3-0.7-0.7-0.7H0.3C0.2,7.3,0,7.2,0,7V5c0-0.2,0.2-0.3,0.3-0.3h0.3
	C1,4.7,1.3,4.4,1.3,4c0-0.4-0.3-0.7-0.7-0.7H0.3C0.2,3.3,0,3.2,0,3V1c0-0.6,0.4-1,1-1h2c0.2,0,0.3,0.2,0.3,0.3v0.3
	C3.3,1,3.6,1.3,4,1.3c0.4,0,0.7-0.3,0.7-0.7V0.3C4.7,0.2,4.8,0,5,0h2c0.2,0,0.3,0.2,0.3,0.3v0.3C7.3,1,7.6,1.3,8,1.3
	c0.4,0,0.7-0.3,0.7-0.7V0.3C8.7,0.2,8.8,0,9,0h2c0.2,0,0.3,0.2,0.3,0.3v0.3c0,0.3,0.3,0.7,0.7,0.7c0.4,0,0.7-0.3,0.7-0.7V0.3
	C12.7,0.2,12.8,0,13,0h2c0.6,0,1,0.4,1,1v2c0,0.2-0.1,0.3-0.3,0.3H15.3z M2.7,2.7v10.7h10.7V2.7H2.7z"/>
<path class="st0" d="M9.4,6.3c0.2,0,0.4,0.2,0.4,0.4V8v0.9c0,0.1,0,0.1,0,0.1s0,0.1,0,0.1c0,0,0.1,0,0.2,0c0.4,0.1,0.7-0.5,0.7-1.3
	c0-0.7-0.2-1.3-0.7-1.8C9.6,5.6,8.8,5.3,7.8,5.3C6.4,5.3,5.3,6.5,5.3,8s1.2,2.7,2.6,2.7c0.5,0,0.9-0.1,1.3-0.4
	c0.2-0.1,0.4,0,0.5,0.1c0.1,0.2,0,0.4-0.1,0.5c-0.5,0.3-1.1,0.5-1.7,0.5C6,11.5,4.5,9.9,4.5,8c0-1.9,1.5-3.5,3.3-3.5
	c1.2,0,2.1,0.4,2.8,1.1c0.5,0.6,0.9,1.4,0.9,2.2c0,1.1-0.6,2.1-1.5,2.1c-0.3,0-0.6-0.1-0.7-0.3C9.2,9.6,9.2,9.5,9.1,9.5
	C8.8,9.8,8.4,9.9,7.9,9.9C6.9,9.9,6,9,6,8c0-1.1,0.9-2,1.9-2C8.3,6,8.7,6.2,9,6.5C9.1,6.3,9.3,6.3,9.4,6.3L9.4,6.3z M7.9,6.9
	C7.3,6.9,6.8,7.4,6.8,8c0,0.6,0.5,1.1,1.1,1.1C8.5,9.1,9,8.6,9,8S8.5,6.9,7.9,6.9L7.9,6.9z"/>
</svg>
