<?xml version="1.0" encoding="UTF-8"?>
<svg width="16px" height="16px" viewBox="0 0 16 16" version="1.1" xmlns="http://www.w3.org/2000/svg">
  <path fill="context-fill #666" d="M15.33,3.33 C14.96,3.33 14.66,3.63 14.66,4 C14.66,4.368 14.966,4.66 15.33,4.66 L15.66,4.66 C15.85,4.66 16,4.81 16,5 L16,7 C16,7.184 15.85,7.33 15.66,7.33 L15.33,7.33 C14.966,7.33 14.66,7.63 14.66,8 C14.66,8.368 14.966,8.66 15.33,8.66 L15.66,8.66 C15.85,8.66 16,8.816 16,9 L16,11 C16,11.184 15.85,11.33 15.66,11.33 L15.33,11.33 C14.966,11.33 14.66,11.632667 14.66,12 C14.66,12.368 14.966,12.66 15.33,12.66 L15.66,12.66 C15.85,12.66 16,12.816 16,13 L16,15 C16,15.55 15.55,16 15,16 L13,16 C12.816,16 12.66,15.85 12.66,15.66 L12.66,15.33 C12.66,14.966 12.3673333,14.66 12,14.66 C11.632667,14.66 11.33,14.966 11.33,15.33 L11.33,15.66 C11.33,15.85 11.184,16 11,16 L9,16 C8.816,16 8.66,15.85 8.66,15.66 L8.66,15.33 C8.66,14.966 8.36733333,14.66 8,14.66 C7.63,14.66 7.33,14.966 7.33,15.33 L7.33,15.66 C7.33,15.85 7.184,16 7,16 L5,16 C4.816,16 4.66,15.85 4.66,15.66 L4.66,15.33 C4.66,14.966 4.36,14.66 4,14.66 C3.63,14.66 3.33,14.966 3.33,15.33 L3.33,15.66 C3.33,15.85 3.184,16 3,16 L1,16 C0.44,16 0,15.55 0,15 L0,13 C0,12.816 0.15,12.66 0.33,12.66 L0.66,12.66 C1.034,12.66 1.33,12.368 1.33,12 C1.33,11.632667 1.034,11.33 0.66,11.33 L0.33,11.33 C0.15,11.33 0,11.184 0,11 L0,9 C0,8.816 0.15,8.66 0.33,8.66 L0.66,8.66 C1.034,8.66 1.33,8.368 1.33,8 C1.33,7.63 1.034,7.33 0.66,7.33 L0.33,7.33 C0.15,7.33 0,7.184 0,7 L0,5 C0,4.816 0.15,4.66 0.33,4.66 L0.66,4.66 C1.034,4.66 1.33,4.368 1.33,4 C1.33,3.63 1.034,3.33 0.66,3.33 L0.33,3.33 C0.15,3.33 0,3.184 0,3 L0,1 C0,0.44 0.44,0 1,0 L3,0 C3.184,0 3.33,0.15 3.33,0.33 L3.33,0.66 C3.33,1 3.63,1.33 4,1.33 C4.36733333,1.33 4.66,1 4.66,0.66 L4.66,0.33 C4.66,0.15 4.816,0 5,0 L7,0 C7.184,0 7.33,0.15 7.33,0.33 L7.33,0.66 C7.33,1 7.63,1.33 8,1.33 C8.36,1.33 8.66,1 8.66,0.66 L8.66,0.33 C8.66,0.15 8.81,0 9,0 L11,0 C11.18,0 11.33,0.15 11.33,0.33 L11.33,0.66 C11.33,1 11.63,1.33 12,1.33 C12.36,1.33 12.66,1 12.66,0.66 L12.66,0.33 C12.66,0.15 12.8,0 13,0 L15,0 C15.55,0 16,0.44 16,1 L16,3 C16,3.184 15.85,3.33 15.66,3.33 L15.33,3.33 Z M2.66,2.66 L2.66,13.33 L13.33,13.33 L13.33,2.66 L2.66,2.66 Z"/>
  <path fill="context-fill #666" d="M9.4,6.27 C9.6,6.27 9.77,6.45 9.77,6.66 L9.77,8 L9.77,8.93 C9.77,9 9.77,9 9.77,9 C9.77,9 9.78,9.1 9.8,9.1 C9.8,9.1 9.9,9.1 10,9.1 C10.42,9.16 10.74,8.6 10.74,7.85 C10.74,7.2 10.5,6.58 10,6.1 C9.58,5.57 8.8,5.27 7.83,5.27 C6.41,5.27 5.25,6.5 5.25,8 C5.25,9.5 6.42,10.72 7.85,10.72 C8.31161208,10.72 8.77805622,10.5928106 9.1620664,10.359715 C9.34502195,10.2487582 9.57915157,10.314717 9.6835536,10.5032654 C9.78448864,10.6868718 9.72,10.92 9.54,11 C9,11.33 8.44,11.5 7.85,11.5 C6,11.5 4.5,9.92856027 4.5,8 C4.5,6.07184097 5.99376157,4.5 7.83476145,4.5 C9.00888374,4.5 9.98303269,4.88041503 10.6443477,5.60356796 C11.1887155,6.19925689 11.5,7.01732481 11.5,7.8506667 C11.5,9 10.8768176,9.944 10,9.944 C9.67584151,9.944 9.4240406,9.85475835 9.25113829,9.67203116 C9.19617221,9.61322536 9.15253282,9.54 9.1,9.48 C8.78,9.77 8.35,9.944 7.9,9.94 C6.88,9.944 6,9 6,8 C6,6.92 6.88,6 7.91,6 C8.34,6 8.74,6.2 9,6.47 C9.13,6.35 9.25,6.27 9.4,6.27733333 Z M7.9166531,6.94443766 C7.31953389,6.94443766 6.83331977,7.43065179 6.83331977,8.027771 C6.83331977,8.62528956 7.31410425,9.1 7.9,9.1 C8.5,9.1 9,8.6 9,8 C9,7.4 8.5,6.94 7.9,6.94 Z"/>
</svg>