<?xml version="1.0" encoding="utf-8"?>
<!-- Generator: Adobe Illustrator 22.1.0, SVG Export Plug-In . SVG Version: 6.00 Build 0)  -->
<svg version="1.1" id="Livello_1" xmlns="http://www.w3.org/2000/svg" xmlns:xlink="http://www.w3.org/1999/xlink" x="0px" y="0px"
	 viewBox="0 0 16 16" style="enable-background:new 0 0 16 16;" xml:space="preserve">
<style type="text/css">
	.st0{fill:#FFFFFF;}
</style>
<path class="st0" d="M15.1,5.9h-1.8V5.3C13.3,2.9,11.4,1,9,1C6.6,1,4.7,2.9,4.7,5.3v0.6H2.8c-0.3,0-0.6,0.3-0.6,0.6v9.8
	c0,0.3,0.3,0.6,0.6,0.6h12.3c0.4,0,0.6-0.3,0.6-0.6V6.5C15.8,6.2,15.5,5.9,15.1,5.9z M9.7,11.3v2.3c0,0.4-0.3,0.7-0.7,0.7
	c-0.4,0-0.7-0.3-0.7-0.7v-2.3C7.9,11,7.6,10.6,7.6,10c0-0.7,0.6-1.3,1.4-1.3c0.8,0,1.4,0.6,1.4,1.3C10.4,10.6,10,11,9.7,11.3z
	 M12,5.9H5.9V5.3c0-1.7,1.4-3.1,3.1-3.1s3,1.4,3,3.1V5.9z"/>
</svg>
