<?xml version="1.0" encoding="utf-8"?>
<!-- Generator: Adobe Illustrator 22.1.0, SVG Export Plug-In . SVG Version: 6.00 Build 0)  -->
<svg version="1.1" id="Livello_1" xmlns="http://www.w3.org/2000/svg" xmlns:xlink="http://www.w3.org/1999/xlink" x="0px" y="0px"
	 viewBox="0 0 16 16" style="enable-background:new 0 0 16 16;" xml:space="preserve">
<style type="text/css">
	.st0{fill:#FFFFFF;}
</style>
<path class="st0" d="M14,3.7c0-0.1,0-0.2-0.1-0.2L10.6,0c-0.1,0-0.1,0-0.3,0h-6C4.2,0,4,0.2,4,0.3v1h2.6c0.1,0,0.2,0,0.2,0.1
	l3.7,3.7c0.1,0.1,0.1,0.2,0.1,0.2V14h3c0.2,0,0.3-0.1,0.3-0.3V3.7z M10,4V0.7L13.3,4H10z"/>
<path class="st0" d="M0.3,2C0.2,2,0,2.2,0,2.3v13.3C0,15.9,0.2,16,0.3,16h9.3c0.2,0,0.3-0.1,0.3-0.3v-10c0-0.1,0-0.2-0.1-0.2L6.6,2
	C6.5,2,6.4,2,6.3,2H0.3z M6,6V2.7L9.3,6H6z"/>
</svg>
