<?xml version="1.0" encoding="UTF-8"?>
<svg width="16px" height="16px" viewBox="0 0 16 16" version="1.1" xmlns="http://www.w3.org/2000/svg">
  <path fill="context-fill #666" d="m 8,6.93 -4.027,-6.6 C 3.92,0.24 3.82,0.21 3.74,0.26 3.4,0.46 3.148,0.81 3,1.23 c -0.1,0.4 0,0.8 0.1,1.2 0.2,0.38 4.43,7.53 4.432,7.53 L 6.47,12.1 c -0.4,-1 -1.35,-1.68 -2.47,-1.68 -1.47,0 -2.67,1.2 -2.67,2.6 0,1.47 1.19,2.67 2.67,2.67 1.44,0 2.61,-1.15 2.66,-2.57 l 1.33,-2.52 1.33,2.52 c 0,1.42 1.2,2.57 2.66,2.57 1.46,0 2.66,-1.2 2.66,-2.66 0,-1.5 -1.2,-2.66 -2.66,-2.66 -1.1,0 -2,0.7 -2.5,1.7 L 8.4,9.95 c 0,0 4,-6.83 4.43,-7.53 0.2,-0.33 0.25,-0.77 0.15,-1.2 -0.1,-0.4 -0.36,-0.77 -0.7,-0.97 0,0 -0.2,0 -0.2,0 z m -2,6.16 c 0,1.1 -0.9,2 -2,2 -1.1,0 -2,-0.9 -2,-2 0,-1.1 0.9,-2 2,-2 1.1,0 2,0.9 2,2 z m 6,-2 c 1,0 2,0.9 2,2 0,1.1 -0.9,2 -2,2 -1.1,0 -2,-0.9 -2,-2 v 0 c 0,-1.1 0.9,-2 2,-2 z"/>
</svg>