<?xml version="1.0" encoding="UTF-8"?>
<svg width="16px" height="16px" viewBox="0 0 16 16" version="1.1" xmlns="http://www.w3.org/2000/svg">
  <path fill="context-fill #666" d="M 10,0 H 8 v 4 h 2 v 0 z"/>
  <path fill="context-fill #666" d="M 16,1.3 14.7,0 H 12 V 5 H 4 V 0 H 0.66 L 0,0.66 V 15.33 L 0.66,16 h 14.7 L 16,15.33 Z M 14,15 H 2 V 6 h 12 z"/>
  <path fill="context-fill #666" d="M 11.3,7.4 C 10.85,6.88 8,10.16 6.53,12.48 L 4.9,10.86 c -0.16,-0.16 -0.39,-0.12 -0.55,0 -0.16,0.16 -0.19,0.37 0,0.53 L 6.3,13.4 C 6.48,13.58 6.79,13.68 6.924,13.34 8.44,10.57 9.96,8.87 11.3,7.4 Z"/>
</svg>