<?xml version="1.0" encoding="UTF-8"?>
<svg width="16px" height="16px" viewBox="0 0 16 16" version="1.1" xmlns="http://www.w3.org/2000/svg">
  <path fill="context-fill #666" d="M 14.38,7.42 C 14.31,7.18 14,7.1 13.85,7.26 13.39,7.65 12.87,7.96 12.32,8.19 12.18,4.12 9.18,0.74 5.17,0.104 4.9,0.06 4.7,0.36 4.83,0.6 5.84,2.32 5.92,4.4 5.12,6.16 4.73,5.62 4.44,5 4.25,4.38 4.18,4.16 3.9,4 3.72,4.22 2.2,5.5 1.3,7.35 1.3,9.3 1.3,13 4.35,16 8,16 c 3.67,0 6.66,-2.99 6.66,-6.66 0,-0.65 0,-1.3 -0.28,-1.91 z M 8,15.66 c -1.51,0 -2.66,-1.22 -2.66,-2.74 C 5.3,10.71 6.92,8.62 9.1,8.12 7.86,9 7.92,10.81 8.41,11.55 8.75,11.27 9,10.97 9.1,10.52 10.25,10.97 10.66,11.94 10.66,13 c 0,1.51 -1.15,2.66 -2.66,2.66 z"/>
</svg>