<?xml version="1.0" encoding="UTF-8"?>
<svg width="12px" height="12px" viewBox="0 0 12 12" version="1.1" xmlns="http://www.w3.org/2000/svg">
  <path fill="context-fill #00b1d4" d="M2.25,7.5 L1.25,7.5 C1.11,7.5 1,7.612 1,7.75 C1,7.88 1.11,8 1.25,8 L2.25,8 C2.38,8 2.5,7.88 2.5,7.75 C2.5,7.61 2.38,7.5 2.25,7.5 L2.25,7.5 Z"/>
  <path fill="context-fill #00b1d4" d="M10.25,2.5 L2.5,2.5 L2.5,1.5 L3.75,1.5 C3.88,1.5 4,1.38 4,1.25 L4,0.25 C4,0.11 3.88,0 3.75,0 L2.25,0 C2.11,0 2,0.11 2,0.25 L2,2.5 L1.75,2.5 C0.78,2.5 0,3.285 0,4.25 L0,8.75 C0,8.88 0.11,9 0.25,9 L6.5,9 L6.5,11.75 C6.5,11.88 6.61,12 6.75,12 C6.88,12 7,11.88 7,11.75 L7,9 L11.75,9 C11.88,9 12,8.88 12,8.75 L12,4.25 C12,3.28 11.21,2.5 10.25,2.5 L10.25,2.5 Z M3,8.5 L0.5,8.5 L0.5,4.25 C0.5,3.56 1,3 1.75,3 C2.44,3 3,3.56 3,4.25 L3,8.5 L3,8.5 Z"/>
</svg>