<svg width="14" height="14" viewBox="0 0 14 14" xmlns="http://www.w3.org/2000/svg">
  <path fill="context-fill #fff" d="M6.42 3.08H1.46C.66 3.08 0 3.74 0 4.54v6.42c0 .8.65 1.46 1.46 1.46h11.08c.8 0 1.46-.66 1.46-1.46V4.54c0-.8-.65-1.46-1.46-1.46H9.92v9.34h-3.5V3.08zM4.86 8.9l-3.24 2.37c-.05.05-.12.07-.18.08-.1 0-.17-.03-.23-.1-.1-.12-.1-.3.1-.4l3.2-2.37c.1-.1.3-.1.4.02.1.12.1.3 0 .4zm.05-1.63L1.2 4.64c-.07-.04-.1-.1-.12-.16-.03-.08 0-.17.04-.24.1-.14.27-.17.4-.07L5.26 6.8c.13.08.16.27.07.4-.1.13-.28.16-.4.07zm8 3.94c0 .1-.1.2-.2.2h-.2l-1.7-1.27c-.1-.1-.13-.26-.04-.4.1-.12.27-.15.4-.06l1.73 1.26c.12.1.15.3.06.4zm.1-6.9c.08.1.1.2.08.3-.02.1-.06.1-.12.2L11 6c-.13.1-.3.06-.4-.07-.1-.13-.07-.3.06-.4l1.82-1.3c.14-.1.32-.07.4.06zM6 6.4c0-.28.23-.5.5-.5h3.3c.28 0 .5.23.5.5v2.8c0 .28-.23.5-.5.5H6.5c-.28 0-.5-.23-.5-.5V6.4zm1 .67V8.5c0 .28.23.5.5.5h1.38c.28 0 .5-.2.5-.5V7.06c0-.27-.23-.5-.5-.5H7.5c-.28 0-.5.22-.5.5zm-4.37-6h8.75c.16 0 .3-.13.3-.3 0-.15-.14-.28-.3-.28H2.62c-.16 0-.3.1-.3.3 0 .1.14.2.3.2z"/>
  <path fill="context-fill #fff" d="M8.92 11.42h-1.5V1.32H1.46v1.42h5.96v-1.3h1.5v1.3h3.62V1.32H8.92zm-2.7 1.6h3.9V.06h-3.9z"/>
</svg>