<?xml version="1.0" encoding="utf-8"?>
<!-- Generator: Adobe Illustrator 22.1.0, SVG Export Plug-In . SVG Version: 6.00 Build 0)  -->
<svg version="1.1" id="Livello_1" xmlns="http://www.w3.org/2000/svg" xmlns:xlink="http://www.w3.org/1999/xlink" x="0px" y="0px"
	 viewBox="0 0 16 16" style="enable-background:new 0 0 16 16;" xml:space="preserve">
<style type="text/css">
	.st0{fill:#FFFFFF;}
</style>
<path class="st0" d="M2,2H0.3C0.2,2,0,2.2,0,2.3v13.4C0,15.9,0.2,16,0.3,16h7v-2.7H2V2z"/>
<path class="st0" d="M11.3,2.3C11.3,2.2,11.2,2,11,2H9.3v6h2V2.3z"/>
<path class="st0" d="M3,4.7h5.3c0.2,0,0.4-0.2,0.4-0.4V1.7c0-0.2-0.2-0.4-0.4-0.4h-1C7.2,0.6,6.4,0,5.7,0C4.9,0,4.2,0.6,4,1.3H3
	c-0.2,0-0.3,0.2-0.3,0.4v2.6C2.7,4.5,2.8,4.7,3,4.7z"/>
<path class="st0" d="M16,10.3c0-0.1,0-0.2-0.1-0.3l-1.3-1.2c-0.1-0.1-0.1-0.1-0.2-0.1h-6C8.1,8.7,8,8.8,8,9v6.7
	C8,15.9,8.1,16,8.3,16h7.4c0.2,0,0.3-0.1,0.3-0.3V10.3z M9.7,10H13c0.2,0,0.3,0.1,0.3,0.3c0,0.2-0.1,0.3-0.3,0.3H9.7
	c-0.2,0-0.4-0.2-0.4-0.3C9.3,10.1,9.5,10,9.7,10z M14.3,14.7H9.7c-0.2,0-0.4-0.2-0.4-0.3c0-0.2,0.2-0.3,0.4-0.3h4.7
	c0.2,0,0.3,0.1,0.3,0.3C14.7,14.5,14.5,14.7,14.3,14.7z M14.3,13.3H9.7c-0.2,0-0.4-0.1-0.4-0.3c0-0.2,0.2-0.3,0.4-0.3h4.7
	c0.2,0,0.3,0.1,0.3,0.3C14.7,13.2,14.5,13.3,14.3,13.3z M14.3,12H9.7c-0.2,0-0.4-0.1-0.4-0.3c0-0.2,0.2-0.3,0.4-0.3h4.7
	c0.2,0,0.3,0.2,0.3,0.3C14.7,11.9,14.5,12,14.3,12z"/>
</svg>
