<?xml version="1.0" encoding="UTF-8"?>
<svg width="12px" height="12px" viewBox="0 0 12 12" version="1.1" xmlns="http://www.w3.org/2000/svg">
  <path fill="context-fill #b2f2ff" d="M0.15,5.27 C0,5.3 0,5.4 0,5.5 C0,5.6 0,5.69 0.15,5.73 L4.31,7.34 L11.57,0.55 L0.15,5.27 L0.15,5.27 Z"/>
  <path fill="context-fill #b2f2ff" d="M4.5,7.85 L4.5,7.84 L4.5,11.25 C4.5,11.38 4.61,11.5 4.75,11.5 C4.83,11.5 4.92,11.45 4.96,11.37 L6.6,8.55 L9.62,10.21 C9.7,10.25 9.78,10.26 9.85,10.22 C9.92,10.19 9.97,10.13 9.99,10 L11.98,0.85 L4.5,7.85 L4.5,7.85 Z"/>
</svg>