<?xml version="1.0" encoding="UTF-8"?>
<svg width="16px" height="16px" viewBox="0 0 14 14" version="1.1" xmlns="http://www.w3.org/2000/svg">
  <path fill="context-fill #4c4c4c" d="M4.58,1.25 C4.52,1.19 4.45,1.16 4.37,1.16 L0.29,1.16 C0.13,1.16 0,1.3 0,1.45 L0,5.54 C0,5.61 0,5.69 0,5.74 L8.25,13.91 C8.36,14 8.55,14 8.66,13.91 L12.74,9.83 C12.86,9.71 12.86,9.53 12.74,9.41 L4.58,1.25 L4.58,1.25 Z M2.91,5.25 C2.27,5.25 1.75,4.72 1.75,4 C1.75,3.44 2.27,2.91 2.91,2.91 C3.55,2.91 4,3.44 4,4 C4,4.72 3.55,5.25 2.91,5.25 L2.91,5.25 Z"/>
  <path fill="context-fill #4c4c4c" d="M13.91,7.66 L6.33,0 C6.27,0 6.2,0 6.12,0 L2,0 C1.88,0 1.75,0.13 1.75,0.29 C1.75,0.45 1.88,0.58 2,0.57 L6,0.57 L13.3,7.87 L12.91,8.24 C12.8,8.36 12.8,8.54 12.91,8.66 C13,8.77 13.21,8.77 13.33,8.66 L13.91,8 C14,7.96 14,7.77 13.91,7.66 L13.91,7.66 Z"/>
</svg>