<?xml version="1.0" encoding="UTF-8"?>
<svg width="16px" height="16px" viewBox="0 0 16 16" version="1.1" xmlns="http://www.w3.org/2000/svg">
  <path fill="context-fill #666" d="M8.7053,13.0587 C8.752,12.8953 8.84,12.746 8.96,12.627 L11.237,10.35 L8.67,9.432 L8.67,7.9613 C9.6687,7.1867 10.396,5.7293 10.326,4.1587 C9.7667,4.3547 9.2227,4.3907 9.0273,4.3907 C8.2313,4.3907 7.6047,4.0407 7.073,3.3007 C6.504,3.898 5.4993,4.33 4.583,4.33 C4.0613,4.33 3.6273,4.2393 3.018,3.9147 C2.896,5.7707 3.6647,7.186 4.67,7.9607 L4.67,9.4313 L1.548,10.5453 C0.622,10.877 0,11.76 0,12.7427 L0,14.3 C0,14.5173 0.1493,14.667 0.3,14.667 L8.2453,14.667 L8.7,13 Z"/>
  <path fill="context-fill #666" d="M8.73331706,12.8666585 L11.2666829,10.3 L8.67,9.432 L8.67,7.9613 C9.67,7.1866 10.326,5.77723144 10.326,4.1587 C10.326,1.73555078 8.50439142,-3.43428989e-14 6.67,-3.19744231e-14 C4.82894192,-2.96059473e-14 3.018,1.8300053 3.018,3.9147 C3.018,5.77873115 3.6647,7.186 4.67,7.9607 L4.67,9.4313 L1.548,10.5453 C0.622,10.877 0,11.76 0,12.7427 L0,14.3 C0,14.5173 0.1493,14.667 0.3,14.667 L8.22001139,14.667 L8.73331706,12.8666585 Z"/>
  <path fill="context-fill #666" d="m 12.228871,10.327528 2.138155,2.138271 -2.528453,2.52859 -2.1381557,-2.138272 z"/>
  <path fill="context-fill #666" d="M 15.935505,10.42465 14.268261,8.7586495 c -0.129993,-0.13 -0.341314,-0.13 -0.471307,0 l -1.096608,1.0987 2.137884,2.1373338 1.097275,-1.098 c 0.129993,-0.131334 0.129993,-0.342 0,-0.472 z"/>
  <path fill="context-fill #666" d="m 11.264423,15.377983 -1.943895,-1.944 -0.6073005,2.15 c -0.031331,0.112 -0.008,0.235333 0.080663,0.322667 0.087328,0.08733 0.2093221,0.110666 0.321316,0.08133 z"/>
</svg>
