<?xml version="1.0" encoding="UTF-8"?>
<svg width="16px" height="16px" viewBox="0 0 16 16" version="1.1" xmlns="http://www.w3.org/2000/svg">
  <path fill="context-fill #666" d="M8,11 L8,11.27 L10,12 C11.11,12.4 11.83,13.44 11.83,14.59 L11.83,16 L14.65,16 C14.84,16 15,15.84 15,15.64 L15,14.59 C15,13.74 14.47,12.97 13.68,12.68 L11.16,11.776 L11.16,10.74 C11.99,10 12.53,8.91 12.51,7.61 C12.47,4.71 10.16,4 9.42,4 C8.69,4 8.63,4.15 8.21,4.41 C9.56,5.82 9.95,9.16 8,11 Z"/>
  <path fill="context-fill #666" d="M9.7,12.68 L7.21,11.776 L7.21,10.74 C8,10 8.54,8.66 8.52,7.36 C8.49,5.47 7,4 5.5,4 C3.97,4 2.470187,5.54 2.47,7.36 C2.47,8.94 2.91,10 3.78,10.74 L3.78,11.77 L1.23,12.69 C0.52,12.97 0,13.74 0,14.59 L0,15.64 C0,15.84 0.154,16 0.34,16 L10.65,16 C10.84,16 11,15.84 11,15.64 L11,14.59 C11,13.74 10.47,12.97 9.7,12.68 Z"/>
  <path fill="context-fill #666" d="M14.87,1.87 L13.61,1.87 L13.61,0.62 C13.61,0.27 13.33,0 12.98,0 C12.64,0 12.36,0.28 12.36,0.62 L12.36,1.87 L11.12,1.87 C10.78,1.87 10.5,2.15 10.5,2.49 C10.5,2.83 10.78,3.11 11.12,3.11 L12.36,3.11 L12.36,4.37 C12.36,4.72 12.64,5 12.98,5 C13.33,5 13.61,4.72 13.61,4.37 L13.61,3.11 L14.87,3.11 C15.22,3.11 15.5,2.83 15.5,2.49 C15.5,2.15 15.22,1.87 14.87,1.87 Z"/>
</svg>