<?xml version="1.0" encoding="UTF-8"?>
<svg width="13px" height="14px" viewBox="0 0 14 14" version="1.1" xmlns="http://www.w3.org/2000/svg">
  <path fill="#fff" d="M2,1.16 C1.88,1.16 1.75,1.29 1.75,1.45 C1.75,1.61 1.88,1.75 2,1.75 L10.79,1.75 C10.95,1.75 11,1.61 11,1.45 C11,1.29 10.95,1.16 10.79,1.16 L2,1.16 Z"/>
  <path fill="#fff" d="M0.29,4.66 L1.45,4.66 C1.61,4.66 1.75,4.53 1.75,4.375 C1.75,4.21 1.61,4 1.45,4 L0.29,4 C0.13,4 0,4.21 0,4.37 C0,4.53 0.13,4.66 0.29,4.66 Z"/>
  <path fill="#fff" d="M0.29,7 L1.45,7 C1.61,7 1.75,6.86 1.75,6.73 C1.75,6.54 1.61,6.41 1.45,6.41 L0.29,6.41 C0.13,6.41 0,6.54 0,6.73 C0,6.86 0.13,7 0.29,7 Z"/>
  <path fill="#fff" d="M0.29,9.33 L1.45,9.33 C1.61,9.33 1.75,9.2 1.75,9 C1.75,8.88 1.61,8.75 1.45,8.75 L0.29,8.75 C0.13,8.75 0,8.88 0,9 C0,9.2 0.13,9.33 0.29,9.33 Z"/>
  <path fill="#fff" d="M1.75,11.37 C1.75,11.21 1.61,11 1.45,11 L0.29,11 C0.13,11 0,11.214 0,11.375 C0,11.53 0.13,11.66 0.29,11.66 L1.45,11.66 C1.61,11.66 1.75,11.53 1.75,11.37 Z"/>
  <path fill="#fff" d="M11.37,2.33 L2,2.33 C1.55,2.33 1.16,1.94 1.16,1.45 C1.16,0.97 1.55,0.58 2,0.58 L11.37,0.58 C11.53,0.58 11.66,0.45 11.66,0.29 C11.66,0.13 11.53,0 11.37,0 L2,0 C1.23,0 0.58,0.65 0.58,1.45 L0.58,3.5 L1.45,3.5 C1.94,3.5 2.33,3.89 2.33,4.37 C2.33,4.85 1.94,5.25 1.45,5.25 L0.58,5.25 L0.58,5.83 L1.45,5.83 C1.94,5.83 2.33,6.22 2.33,6.73 C2.33,7.19 1.94,7.58 1.45,7.58 L0.58,7.58 L0.58,8.16 L1.45,8.16 C1.94,8.16 2.33,8.55 2.33,9 C2.33,9.52 1.94,9.91 1.45,9.91 L0.58,9.91 L0.58,10.5 L1.45,10.5 C1.94,10.5 2.33,10.89 2.33,11.375 C2.33,11.85 1.94,12.25 1.45,12.25 L0.58,12.25 L0.58,12.54 C0.58,13.34 1.23,14 2,14 L11.37,14 C11.53,14 11.66,13.86 11.66,13.7 L11.66,2.62 C11.66,2.46 11.53,2.33 11.37,2.33 Z M8.75,10.79 C8.75,10.95 8.61,11 8.45,11 L7,11 L7,9.62 C7,9.3 6.73,9 6.41,9 C6,9 5.83,9.3 5.83,9.62 L5.83,11 L4.37,11 C4.21,11 4,10.95 4,10.79 L4,8.16 L8.75,8.16 L8.75,10.79 Z M9.62,7.58 L3.2,7.58 C2.93,7.58 2.81,7.24 3,7 L6.23,4.44 C6.33,4.35 6.49,4.35 6.6,4.44 L9.8,7 C10,7.24 9.89,7.58 9.62,7.58 Z"/>
</svg>