<?xml version="1.0" encoding="UTF-8"?>
<svg width="16px" height="16px" viewBox="0 0 16 16" version="1.1" xmlns="http://www.w3.org/2000/svg">
  <path fill="context-fill #666" d="M10.92 1.3H9.6C9.44.57 8.78 0 8 0c-.8 0-1.45.57-1.6 1.3H5.08c-.17 0-.32.18-.32.36v2.6c0 .18.14.3.32.3h5.85c.18 0 .32-.15.32-.3v-2.6c0-.18-.14-.36-.32-.36z"/>
  <path fill="context-fill #666" d="M14.17 2H11.9v1.3h.97c.18 0 .32.15.32.3v10.7c0 .2-.17.3-.33.3H3.12c-.18 0-.32-.15-.32-.3V3.66c0-.18.14-.36.33-.36h.97V2H1.82c-.18 0-.32.15-.32.3v13.3c0 .25.14.4.32.4h12.35c.18 0 .33-.15.33-.4V2.3c0-.15-.15-.3-.33-.3z"/>
  <path fill="context-fill #666" d="M5.3 9H7V7.3c0-.23.76-.5 1-.5.23 0 1.05.27 1 .5V9h1.7c.23 0 .5.76.5 1 0 .23-.26 1-.5 1H9v1.7c0 .23-.76.5-1 .5s-1.05-.28-1-.5V11H5.3c-.23 0-.5-.76-.5-1 0-.23.27-1.07.5-1z"/>
</svg>