<?xml version="1.0" encoding="UTF-8"?>
<svg width="16px" height="16px" viewBox="0 0 16 16" version="1.1" xmlns="http://www.w3.org/2000/svg">
  <path fill="context-fill #666" d="M15.6,1.3 L13.3,1.3 L13.3,0.33 C13.3,0.15 13.18,0 13,0 L11,0 C10.8,0 10.6,0.15 10.6,0.33 L10.6,1.3 L5.3,1.3 L5.3,0.33 C5.3,0.15 5.184,0 5,0 L3,0 C2.8,0 2.66,0.15 2.66,0.33 L2.66,1.3 L0.33,1.3 C0.15,1.3 0,1.48 0,1.66 L0,5.3 L16,5.3 L16,1.66 C16,1.48 15.85,1.3 15.6,1.3 Z M4.66,2.66 L3.3,2.66 L3.3,0.6 L4.66,0.6 L4.66,2.66 Z M12.6,2.66 L11.3,2.66 L11.3,0.6 L12.6,0.6 L12.6,2.66 Z"/>
  <path fill="context-fill #666" d="m 16,5 v 10 c 0,0.47 -0.52,1 -1,1 H 1 C 0.52,16 0,15.47 0,15 V 5 H 1 V 15 H 15 V 5 Z"/>
  <path fill="context-fill #666" d="M 4.76,9.25 C 4.65,9.13 4.6,8.89 4.72,8.77 L 6.1,7.39 C 6.2,7.3 6.4,7.3 6.5,7.36 6.63,7.43 6.7,7.6 6.7,7.73 v 4.91 h 1 C 7.85,12.65 8,12.85 8,13 8,13.15 7.85,13.35 7.7,13.35 H 4.95 c -0.15,0 -0.3,-0.2 -0.3,-0.35 0,-0.15 0.15,-0.35 0.3,-0.35 H 6 V 8.5 L 5.2,9.28 C 5.1,9.4 4.86,9.36 4.76,9.25 Z"/>
  <path fill="context-fill #666" d="m 8,7.3 h 3.3 c 0.1,0 0.24,0 0.3,0.15 0,0.1 0.1,0.23 0,0.34 L 10.96,9.65 h 0 c 0.16,0 0.35,0.2 0.35,0.36 0,0.16 -0.2,0.32 -0.35,0.32 h -0.3 l -1,2.78 c -0,0.15 -0.3,0.24 -0.45,0.18 C 9,13.26 8.95,13 9,12.9 L 9.95,10.35 8.96,10.35 C 8.8,10.35 8.63,10.16 8.63,10 8.63,9.85 8.8,9.65 8.96,9.65 h 1.25 L 10.83,8 H 8.35 V 8.391 C 8.35,8.55 8.14,8.68 7.99,8.67 7.83,8.67 7.65,8.5 7.65,8.36 V 7.6 C 7.65,7.44 7.85,7.3 8,7.3 Z"/>
</svg>