<?xml version="1.0" encoding="UTF-8"?>
<svg width="16px" height="16px" viewBox="0 0 14 14" version="1.1" xmlns="http://www.w3.org/2000/svg">
  <path fill="context-fill #666" d="M10.44,5.17 C10.93,2.33 8.27,0.14 5.25,0.14 C2.35,0.14 0,2 0,4.48 C0,5.62 0.5,6.71 1.37,7.5 L0.33,9.33 C0.2,9.57 0.43,9.85 0.7,9.75 L3.51,8.62 C4,8.75 4.36,8.81 4.74,8.77 C5.17,6.53 7.64,4.74 10.44,5.17 L10.44,5.17 Z"/>
  <path fill="context-fill #666" d="M9.62,5.68 C7.25,5.68 5.25,7.42 5.25,9.47 C5.25,12.18 8.35275,14.15 11,13 C11.27,13 13.13,13.76 13.31,13.83 C13.55,13.92 13.8,13.67 13.67,13.43 C13.51,13.1 13,12.18 12.9,11.88 C13.6,11.25 14,10.42 14,9.48 C14,7.42 12,5.68 9.62,5.68 L9.62,5.68 Z"/>
</svg>