<?xml version="1.0" encoding="UTF-8"?>
<svg width="16px" height="16px" viewBox="0 0 16 16" version="1.1" xmlns="http://www.w3.org/2000/svg">
  <path fill="context-fill #666" d="M12.17,11.62 L9,10.5 L9,9.24 C10,8.41 10.72,6.7 10.7,5.11 C10.66,2.8 8.81,1 6.9,1 C4.98,1 3.1,2.89 3.1,5.11 C3.1,7 3.66,8.37 4.74,9.24 L4.74,10.5 L1.63,11.62 C0.65,11.97 0,12.9 0,13.95 L0,15.23 C0,15.47 0.19,15.67 0.43,15.67 L13.37,15.67 C13.61,15.67 13.8,15.47 13.8,15.23 L13.8,13.95 C13.8,12.9 13.15,11.97 12.17,11.62 Z"/>
  <path fill="context-fill #666" d="M15.37,2.51 L14.11,2.51 L14.11,1.27 C14.11,0.92 13.83,0.64 13.48,0.64 C13.14,0.64 12.86,0.92 12.86,1.27 L12.86,2.51 L11.62,2.51 C11.28,2.51 11,2.79 11,3.14 C11,3.48 11.28,3.76 11.62,3.76 L12.86,3.76 L12.86,5 C12.86,5.36 13.14,5.64 13.48,5.64 C13.83,5.64 14.11,5.36 14.11,5 L14.11,3.76 L15.37,3.76 C15.72,3.76 16,3.48 16,3.14 C16,2.79 15.72,2.51 15.375,2.51 Z"/>
</svg>