<?xml version="1.0" encoding="utf-8"?>
<!-- Generator: Adobe Illustrator 22.1.0, SVG Export Plug-In . SVG Version: 6.00 Build 0)  -->
<svg version="1.1" id="Livello_1" xmlns="http://www.w3.org/2000/svg" xmlns:xlink="http://www.w3.org/1999/xlink" x="0px" y="0px"
	 viewBox="0 0 16 16" style="enable-background:new 0 0 16 16;" xml:space="preserve">
<style type="text/css">
	.st0{fill:#FFFFFF;}
</style>
<path class="st0" d="M3.3,2.7h11V16h-11c-0.9,0-1.7-0.8-1.7-1.7v-0.7h1c0.4,0,0.7-0.2,0.7-0.6c0-0.4-0.3-0.7-0.7-0.7h-1v-0.7h1
	c0.4,0,0.7-0.2,0.7-0.6c0-0.4-0.3-0.7-0.7-0.7h-1V9.7h1C3,9.7,3.3,9.4,3.3,9c0-0.4-0.3-0.7-0.7-0.7h-1V7.7h1C3,7.7,3.3,7.4,3.3,7
	c0-0.4-0.3-0.7-0.7-0.7h-1V5.7h1C3,5.7,3.3,5.4,3.3,5c0-0.4-0.3-0.7-0.7-0.7h-1V1.7C1.7,0.7,2.4,0,3.3,0H14c0.2,0,0.3,0.2,0.3,0.3
	c0,0.2-0.1,0.4-0.3,0.4H3.3c-0.5,0-1,0.4-1,1C2.3,2.2,2.8,2.7,3.3,2.7L3.3,2.7z M6,7.2c0.7,0.4,1.9,0.2,2.4-0.3
	c0.1-0.1,0.2-0.1,0.3-0.1c0.1,0,0.2,0,0.3,0.2c0.1,0.3,0.6,0.4,1.1,0.4c0.2,0,0.4,0,0.5-0.1c-0.2-1.1-1.2-2-2.3-2
	C7.3,5.3,6.3,6.1,6,7.2L6,7.2z M4.7,13.3H12V12c0-0.5-0.4-1-0.9-1.2l-1.5-0.4V9.9c0.6-0.4,1-1.1,1-1.9c-0.2,0-0.3,0-0.5,0l0,0
	c-0.5,0-1-0.2-1.4-0.5C8.3,7.8,7.7,8,7.2,8C6.8,8,6.3,8,6,7.9c0,0.8,0.4,1.6,1,2v0.5l-1.4,0.4C5,11,4.7,11.5,4.7,12V13.3z"/>
<path class="st0" d="M3.3,1.3C3.2,1.3,3,1.5,3,1.7C3,1.9,3.2,2,3.3,2h10c0.2,0,0.3-0.1,0.3-0.3c0-0.2,0-0.3-0.3-0.3L3.3,1.3z"/>
<path class="st0" d="M1.3,5.3h1.4C2.8,5.3,3,5.2,3,5c0-0.2-0.2-0.3-0.3-0.3H1.3C1.1,4.7,1,4.8,1,5C1,5.2,1.1,5.3,1.3,5.3z"/>
<path class="st0" d="M1.3,7.3h1.4C2.8,7.3,3,7.2,3,7c0-0.2-0.2-0.3-0.3-0.3H1.3C1.1,6.7,1,6.8,1,7C1,7.2,1.1,7.3,1.3,7.3z"/>
<path class="st0" d="M1.3,9.3h1.4C2.8,9.3,3,9.2,3,9c0-0.2-0.2-0.3-0.3-0.3H1.3C1.1,8.7,1,8.8,1,9C1,9.2,1.1,9.3,1.3,9.3z"/>
<path class="st0" d="M1.3,11.3h1.4C2.8,11.3,3,11.2,3,11c0-0.2-0.2-0.4-0.3-0.4H1.3C1.1,10.6,1,10.8,1,11C1,11.2,1.1,11.3,1.3,11.3z
	"/>
<path class="st0" d="M3,13c0-0.2-0.2-0.4-0.3-0.4H1.3C1.1,12.6,1,12.8,1,13c0,0.2,0.1,0.3,0.3,0.3h1.4C2.8,13.3,3,13.2,3,13z"/>
</svg>
