<?xml version="1.0" encoding="utf-8"?>
<!-- Generator: Adobe Illustrator 22.1.0, SVG Export Plug-In . SVG Version: 6.00 Build 0)  -->
<svg version="1.1" id="Livello_1" xmlns="http://www.w3.org/2000/svg" xmlns:xlink="http://www.w3.org/1999/xlink" x="0px" y="0px"
	 viewBox="0 0 16 16" style="enable-background:new 0 0 16 16;" xml:space="preserve">
<style type="text/css">
	.st0{fill:#FFFFFF;}
</style>
<path class="st0" d="M11,2v10c0,1.6-1.4,3-3,3c-1.7,0-3-1.4-3-3V3c0-1.1,0.9-2,2-2s2,0.9,2,2v9c0,0.5-0.5,1-1,1c-0.6,0-1-0.5-1-1V4
	H6v8c0,1.1,0.9,2,2,2s2-0.9,2-2V3c0-1.7-1.4-3-3-3C5.3,0,4,1.3,4,3v9.5c0.2,2,2,3.5,4,3.5c2,0,3.8-1.5,4-3.5V2H11"/>
</svg>
