<?xml version="1.0" encoding="UTF-8"?>
<svg width="16px" height="16px" viewBox="0 0 16 16" version="1.1" xmlns="http://www.w3.org/2000/svg">
  <path fill="context-fill #666" d="M7.25,10.88 L6.43,8.17 L2.32,8.17 L1.5,10.88 L0.14,10.88 L3.56,0.3 L5.25,0.3 L8.66,10.88 L7.25,10.88 Z M2.65,7 L6,7 L4.37,1.41 L2.65,7 Z"/>
  <path fill="context-fill #666" d="M15.36,5.76 C16.25,4.66 11.95,7.52 8.53,12.8 L7.9,13.73 L5.37,11.2 C5.1,10.94 4.77,11 4.52,11.25 C4.27,11.5 4.2,11.84 4.47,12 L7.55,15.17 C7.83,15.46 8.32,15.62 8.53,15 C10.9,10.74 13.28,8 15.36,5.76 Z"/>
</svg>