<?xml version="1.0" encoding="UTF-8"?>
<svg width="16px" height="16px" viewBox="0 0 16 16" version="1.1" xmlns="http://www.w3.org/2000/svg">
  <path fill="context-fill #666" d="M 8.48,3.82 5.87,1.22 c -1.2,-1.18 -3.14,-1.18 -4.3,0 -1.2,1.19 -1.2,3.1 0,4.3 l 2.6,2.57 z"/>
  <path fill="context-fill #666" d="M 4.53,8.53 8.9,4.27 9.77,5.13 5.42,9.42 Z"/>
  <path fill="context-fill #666" d="m 8.5,12.24 c 0,0 0,0 0,-0.14 0,-0.1 0,-0.2 0.16,-0.26 0.15,0 0.336,0 0.41,0.12 l 1.48,2.73 c 0,0 0,0 0,0 0.45,-0.18 0.9,-0.43 1.3,-0.7 l -2,-2.9 c 0,0 -0,-0.1 0,-0.17 0,0 0,-0.2 0.13,-0.25 0.14,0 0,0 0.42,0 l 2,2.97 C 12.95,13.15 13.44,12.64 13.87,12.1 l -2.95,-2 c 0,0 -0.13,-0.15 -0.13,-0.25 0,0 0,-0.12 0,-0.17 0,-0.13 0.28,-0.17 0.42,0 l 2.96,2 c 0.3,-0.45 0.56,-0.92 0.75,-1.4 L 12.26,8.76 c -0.1,0 -0.16,-0.16 -0.16,-0.26 0,0 0,0 0,-0.14 0,-0.14 0.26,-0.2 0.4,-0.12 l 2.63,1.4 c 0.1,-0.37 0.16,-0.74 0.16,-1 0,-0.9 0,-1.13 0,-1.13 L 10.37,5.4 5.65,10 7.67,15.34 c 0,0 0.99,-0.1 2.25,-0.46 z"/>
</svg>