<?xml version="1.0" encoding="UTF-8"?>
<svg width="16px" height="16px" viewBox="0 0 16 16" version="1.1" xmlns="http://www.w3.org/2000/svg">
  <path fill="context-fill #666" d="M 8.66,14 C 12.71,14 16,10.71 16,6.66 v -1 C 16,3.64 14.35,2 12.33,2 10.3,2 8.66,3.64 8.66,5.66 c 0,2 1.65,3.66 3.66,3.66 1.16,0 2.2,-0.55 2.88,-1.4 -0.59,3 -3.3,5.4 -6.54,5.4 -0.18,0 -0.33,0.15 -0.33,0.33 0,0.18 0.15,0.33 0.33,0.33 z"/>
  <path fill="context-fill #666" d="M 0.33,14 C 4.37,14 7.66,10.71 7.66,6.66 v -1 C 7.66,3.64 6,2 4,2 1.98,2 0.33,3.64 0.33,5.66 0.33,7.68 1.98,9.33 4,9.33 5.16,9.33 6.2,8.78 6.87,7.93 6.28,11 3.576,13.33 0.33,13.33 0.15,13.33 0,13.48 0,13.66 0,13.85 0.15,14 0.33,14 Z"/>
</svg>