<?xml version="1.0" encoding="UTF-8"?>
<svg width="16px" height="16px" viewBox="0 0 16 16" version="1.1" xmlns="http://www.w3.org/2000/svg">
  <path fill="context-fill #666" d="M 3.33,2.66 H 14.3 V 16 H 3.33 C 2.4,16 1.66,15.25 1.66,14.3 V 13.6 H 2.66 c 0.37,0 0.67,-0.23 0.67,-0.6 0,-0.36 -0.29,-0.7 -0.67,-0.7 H 1.66 V 11.6 H 2.66 c 0.37,0 0.67,-0.23 0.67,-0.6 0,-0.36 -0.29,-0.7 -0.67,-0.7 H 1.66 V 9.66 H 2.66 C 3,9.66 3.33,9.36 3.33,9 3.33,8.63 3,8.33 2.66,8.33 H 1.66 V 7.66 H 2.66 C 3,7.66 3.33,7.36 3.33,7 3.33,6.63 3,6.33 2.66,6.33 H 1.66 V 5.66 H 2.66 C 3,5.66 3.33,5.36 3.33,5 3.33,4.63 3,4.33 2.66,4.33 H 1.66 V 1.66 C 1.66,0.74 2.41,0 3.33,0 H 14 c 0.18,0 0.3,0.15 0.3,0.3 0,0.2 -0.1,0.36 -0.3,0.36 H 3.33 c -0.548,0 -1,0.44 -1,0.994 0,0.55558 0.45,1 1,1 z M 6,7.2 C 6.7,7.58 7.93,7.37 8.43,6.87 8.5,6.8 8.6,6.76 8.7,6.78 c 0.1,0 0.2,0 0.25,0.17 0.13,0.25 0.65,0.45 1.14,0.44 C 10.3,7.4 10.5,7.35 10.6,7.28 10.36,6.16 9.43,5.33 8.33,5.33 c -1,0 -2,0.8 -2.25,1.9 z M 4.66,13.3 H 12 V 12 c 0,-0.5 -0.38,-1 -0.88,-1.17 L 9.66,10.4 V 9.9 c 0.57,-0.43 0.96,-1.12 1,-1.92 -0.16,0 -0.34,0 -0.54,0 -0,0 -0,0 -0,0 -0.5,0 -1,-0.16 -1.45,-0.5 C 8.25,7.83 7.73,8 7.2,8 6.75,8 6.34,8 6,7.9 6,8.74 6.4,9.46 7,9.9 V 10.4 L 5.55,10.83 C 5,10.97 4.66,11.48 4.66,12 Z"/>
  <path fill="context-fill #666" d="M 3.33,1.33 C 3.15,1.33 3,1.5 3,1.66 3,1.85 3.15,2 3.33,2 h 9.97 c 0.2,0 0.3,-0.15 0.3,-0.34 0,-0.17 -0,-0.33 -0.3,-0.33 z"/>
  <path fill="context-fill #666" d="M 1.3,5.33 H 2.66 C 2.85,5.33 3,5.18 3,5 3,4.8 2.85,4.66 2.66,4.66 H 1.3 C 1.15,4.66 1,4.8 1,5 1,5.18 1.15,5.33 1.3,5.33 Z"/>
  <path fill="context-fill #666" d="M 1.3,7.33 H 2.66 C 2.85,7.33 3,7.18 3,7 3,6.8 2.85,6.66 2.66,6.66 H 1.3 C 1.15,6.66 1,6.8 1,7 1,7.18 1.15,7.33 1.3,7.33 Z"/>
  <path fill="context-fill #666" d="M 1.3,9.33 H 2.66 C 2.85,9.33 3,9.18 3,9 3,8.8 2.85,8.66 2.66,8.66 H 1.3 C 1.15,8.66 1,8.8 1,9 1,9.18 1.15,9.33 1.3,9.33 Z"/>
  <path fill="context-fill #666" d="M 1.3,11.3 H 2.66 C 2.85,11.3 3,11.18 3,11 3,10.8 2.85,10.6 2.66,10.6 H 1.3 C 1.15,10.6 1,10.8 1,11 c 0,0.18 0.15,0.3 0.3,0.3 z"/>
  <path fill="context-fill #666" d="M 3,13 C 3,12.8 2.85,12.6 2.66,12.6 H 1.3 C 1.15,12.6 1,12.8 1,13 c 0,0.18 0.15,0.3 0.3,0.3 H 2.66 C 2.85,13.3 3,13.18 3,13 Z"/>
</svg>
