<?xml version="1.0" encoding="UTF-8"?>
<svg width="16px" height="16px" viewBox="0 0 16 16" version="1.1" xmlns="http://www.w3.org/2000/svg">
  <path fill="context-fill #666" d="M14,3.667 C14,3.578 13.96,3.5 13.9,3.43 L10.57,0 C10.5,0 10.42,0 10.3,0 L4.33,0 C4.15,0 4,0.153 4,0.33 L4,1.33 L6.61,1.33 C6.69,1.33 6.78,1.37 6.85,1.43 L10.57,5.15 C10.63,5.218 10.67,5.302 10.67,5.39 L10.67,14 L13.67,14 C13.85,14 14,13.85 14,13.67 L14,3.667 Z M10,4 L10,0.6667 L13.3,4 L10,4 Z"/>
  <path fill="context-fill #666" d="M0.33,2 C0.15,2 0,2.15 0,2.33 L0,15.67 C0,15.85 0.15,16 0.33,16 L9.667,16 C9.85,16 10,15.85 10,15.67 L10,5.667 C10,5.58 9.96,5.5 9.9,5.43 L6.57,2 C6.5,2 6.422,2 6.33,2 L0.33,2 Z M6,6 L6,2.667 L9.33,6 L6,6 Z"/>
</svg>