<?xml version="1.0" encoding="UTF-8"?>
<svg width="16px" height="16px" viewBox="0 0 16 16" version="1.1" xmlns="http://www.w3.org/2000/svg">
  <path fill="context-fill #666" d="M14.9235599,12.321387 L11.6015357,8.99986262 L14.9250595,5.67583901 C15.0230307,5.57836764 15.0230307,5.41991418 14.9250595,5.32244281 L12.67622,3.07310353 C12.5787487,2.97563216 12.4202952,2.97563216 12.3228238,3.07310353 L8.99880021,6.39712714 L5.6757763,3.07510294 C5.57830493,2.97713172 5.41985148,2.97713172 5.32238011,3.07510294 L3.07304082,5.32394237 C2.97556945,5.42141374 2.97556945,5.5798672 3.07304082,5.67733857 L6.39606473,8.99986262 L3.07603994,12.3203873 C2.97856857,12.4178586 2.97856857,12.5763121 3.07603994,12.6737835 L5.32587908,14.9231227 C5.32837835,14.9261219 5.33037776,14.929121 5.33287703,14.9301207 C5.4303484,15.0275921 5.58130405,15.021094 5.67927528,14.9231227 L8.99930007,11.6025981 L12.3208244,14.9246223 C12.4182958,15.0220937 12.5767492,15.0220937 12.6742206,14.9246223 L14.9235599,12.6747832 C14.926559,12.6722839 14.9295581,12.6702845 14.9305578,12.6677852 C15.0275294,12.5703139 15.0210313,12.4193582 14.9235599,12.321387 Z"/>
</svg>