<?xml version="1.0" encoding="UTF-8"?>
<svg width="13px" height="13px" viewBox="0 0 13 13" version="1.1" xmlns="http://www.w3.org/2000/svg">
  <polygon fill="context-fill #b8e986" points="4.41 7.59 5.97 6.93 5 6"/>
  <path fill="context-fill #b8e986" d="m 9.25,12 -8.5,0 c -0.35,0 -0.75,-0.39 -0.75,-0.74 l 0,-9.48 C 0,1.4 0.4,1 0.75,1 h 6.5 C 7.6,1 8,1.4 8,1.76 7.99,2.11 7.6,2.5 7.25,2.5 l -5.75,0 0,7.99 7,0 0,-4.75 C 8.5,5.39 8.89,5 9.25,5 9.6,4.99 9.99,5.39 9.99,5.74 l 0,5.51 c 0,0.35 -0.39,0.74 -0.74,0.74 z"/>
  <polygon fill="context-fill #b8e986" points="9.78 1.18 10.33 0.61 11.39 1.68 10.83 2.24"/>
  <polygon fill="context-fill#b8e986" points="9.42 1.53 10.49 2.59 6.42 6.66 5.36 5.61"/>
</svg>