<?xml version="1.0" encoding="UTF-8"?>
<svg width="16px" height="16px" viewBox="0 0 16 16" version="1.1" xmlns="http://www.w3.org/2000/svg">
  <path fill="context-fill #666" d="M8,0 L8,3 C9.3,3 9.82,4.2 9.82,5 L9.82,7.41 L11.15,7.41 C13.4,7.41 13.52,11 11.15,11 L8,11 L8,16 C12.41,16 16,12.41 16,8 C16,3.58 12.41,0 8,0 Z"/>
  <path fill="context-fill #666" d="M8,1 C4.14,1 1,4.14 1,8 C1,11.85 4.14,15 8,15 C11.85,15 15,11.85 15,8 C15,4.14 11.85,1 8,1 Z M8,0 C12.41,0 16,3.58 16,8 C16,12.41 12.41,16 8,16 C3.58,16 0,12.41 0,8 C0,3.58 3.58,0 8,0 Z"/>
  <path fill="context-fill #666" d="M11,9.84 L8,9.84 C7.66,9.84 7.38,9.57 7.38,9.23 L7.38,4.92 C7.38,4.58 7.66,4.3 8,4.3 C8.33,4.3 8.61,4.58 8.61,4.92 L8.61,8.61 L11,8.61 C11.41,8.61 11.69,8.9 11.69,9.23 C11.69,9.57 11.41,9.84 11,9.84 Z"/>
</svg>