<?xml version="1.0" encoding="UTF-8"?>
<svg width="16px" height="16px" viewBox="0 0 16 16" version="1.1" xmlns="http://www.w3.org/2000/svg">
  <path fill="context-fill #666" d="M 6.92,8.5 H 8.15 V 7.49 C 9,6.76 9.71,5.43 9.71,3.91 9.71,1.63 8,0 6.27,0 4.53,0 2.84,1.72 2.84,3.68 c 0,1.75 0.6,3 1.55,3.81 V 8.87 L 1.45,9.92 C 0.58,10.23 0,11 0,12 v 1.69 C 0,13.86 0.14,14 0.31,14 H 5.5 V 9.81 C 5.5,8.81 5.72,8.5 6.92,8.5 Z"/>
  <path fill="context-fill #666" d="m 15.5,9 h -9 C 6.264,9 6,9.264 6,9.5 v 6 C 6,15.74 6.264,16 6.5,16 h 9 c 0.24,0 0.5,-0.26 0.5,-0.5 v -6 C 16,9.264 15.74,9 15.5,9 Z M 8,10 h 6 l -3,2.5 z m 7,0.5 V 15 H 7 v -4.5 l 3.7,3.1 c 0.15,0.13 0.45,0.13 0.6,0 z"/>
</svg>