<?xml version="1.0" encoding="UTF-8"?>
<svg width="16px" height="16px" viewBox="0 0 16 16" version="1.1" xmlns="http://www.w3.org/2000/svg">
  <path fill="context-fill #666" d="M13.54,4.28 C13.27,3.85 12.36,3 11.8,2.87 C11,2.77 11.5,3.33 11.5,3.58 C11.3,3.7 11,3.83 10.86,4 C10.77,4 11,4.64 11.65,4.46 C12.23,4.27 11.9,4.65 12.3,5.4 C12.7,6.14 13.5,6.15 13.86,5.93 C14.32,5.64 13.8,4.66 13.54,4.28 Z"/>
  <path fill="context-fill #666" d="M12.29,4.95 C12.29,4.96 12.28,4.98 12.27,5 C12.27,5 12.28,5 12.29,4.95 Z"/>
  <path fill="context-fill #666" d="M8,0 C3.58,0 0,3.58 0,8 C0,12.41 3.58,16 8,16 C12.41,16 16,12.41 16,8 C16,3.58 12.41,0 8,0 Z M5,14.19 C4.85,14 4.71,13.92 4.65,13.62 C4.51,12.88 4.64,12.47 5.3,12 C5.6,11.83 5.65,11.59 5.9,11.34 C5.96,11.27 6.12,10.97 6.23,10.96 C6.36,10.93 6.72,10.87 6.79,10.72 C6.92,10.54 7.22,9.75 7.35,9.67 C7.57,9.53 7.87,9.1 7.65,8.84 C7.4,8.53 7,8.53 6.72,8.37 C6.44,8.22 6.31,7.57 6,7.34 C5.67,6.91 5,6.66 4.49,6.39 C4.2,6.28 4.22,6.24 4,6.47 C3.7,6.76 3.28,6.39 3.23,6 C3.23,5.99 3.12,5.44 3.19,5.4 C3.83,5 2.89,5 2.81,4.91 C2.62,4.37 3.27,3.95 3.72,3.9 C4.21,3.84 4.32,4.68 4.51,4.61 C4.6,4.57 4.6,4.17 4.61,4 C4.66,3.8 4.74,3.75 5,3.65 C5.34,3.53 5.59,3.38 5.93,3.32 C6.33,3.21 6.66,3.27 6.96,3 C7.1,2.91 7.2,3 7.33,3.1 C7.62,3.16 7.68,2.7 7.68,2.53 C7.68,2.36 7.73,2.22 7.51,2 C7.23,1.83 6.83,2 6.61,2.24 C6.34,2.49 6,2.47 6.12,2 C6.14,1.88 6.48,1.7 6.62,1.61 C6.75,1.53 6.83,1.7 6.99,1.66 C7.33,1.61 7.31,1.93 7.59,1.83 C7.7,1.8 8.12,1.58 7.9,1.14 C7.93,1.14 7.96,1.14 8,1.14 C8,1.14 8.13,1.14 8.2,1.14 C8.3,1.46 7.98,1.73 8.14,2.13 C8.45,2.9 8.71,2.24 9,1.88 C9.12,1.78 9.19,1.8 9.35,1.77 C9.46,1.75 9.6,1.44 9.65,1.34 C10.37,1.52 11,1.81 11.67,2.2 C11.41,2.23 11.34,2.15 11.34,2.47 C11.34,2.59 11.35,2.94 11.53,2.97 C11.83,3 11.77,3.22 12,3.25 C12.32,3.29 12.15,3.52 12.26,3.76 C12.38,4.12 11.55,4.23 11.39,4.29 C10.9,4.45 11.62,5.16 11.93,5 C12,5 12.37,5 12.4,4.9 C12.4,4.9 12.33,4.51 12.36,4.46 C12.42,4.4 12.55,4.36 12.75,4.47 C13.23,4.74 13.47,5.39 14,5.52 C14.11,5.54 14.24,5.51 14.33,5.59 C14.41,5.7 14.62,5.89 14.37,5.89 C14,5.82 13.88,5.92 13.62,5.72 C13.34,5.5 13.17,5.33 12.8,5.32 C12.49,5.32 12.21,5.19 11.88,5.24 C11.7,5.27 11.53,5.34 11.35,5.39 C11.19,5.45 11.16,5.74 10.99,5.77 C10.29,5.94 10.44,6.6 10.32,7.13 C10.27,7.33 10.1,7.88 10.28,8 C10.61,8.28 10.99,8.81 11.47,8.88 C11.73,8.92 12.29,8.72 12.46,8.98 C12.54,9.12 12.73,8.87 12.78,9 C12.91,9.39 12.63,9.65 12.63,10 C12.62,10.65 12.95,10.75 12.51,11.24 C12,11.72 12.35,12.34 12,12.92 C11.94,13.21 11.91,13.63 11.7,13.77 C11.22,14 10.71,14.32 10.17,14.49 C9.22,14.81 8.2,14.91 7.21,14.8 C6.68,14.74 6.17,14.61 5.67,14.44 C5.54,14.39 5.41,14.35 5.3,14.3 C5.21,14.27 5.13,14.23 5,14.19 Z M3.56,13.22 C3.54,13.21 3.52,13.19 3.51,13.18 C3.38,13 3.26,12.96 3.15,12.84 C3,12.72 2.91,12.6 2.8,12.47 C2.8,12.47 2.8,12.47 2.8,12.47 C2.77,12.44 2.75,12.41 2.73,12.39 C0.88,10.15 0.61,6.89 2.16,4.39 C2.38,4.61 2,5 2.43,5.325 C2.61,5.45 2.79,5.4 2.75,5.63 C2.71,5.86 2.94,5.86 2.97,6 C3,6.51 3.66,6.73 3.33,7.23 C3,7.68 2.72,8.18 2.97,8.76 C3,8.97 3.25,9.18 3.4,9.34 C3.68,9.62 3.67,9.45 3.67,9.81 C3.66,9.97 3.85,10.13 3.83,10.23 C3.8,10.51 3.73,10.8 3.7,11 C3.63,12.1 3.69,13.1 4.46,13.87 C4.17,13.7 3.9,13.5 3.64,13.29 C3.61,13.27 3.58,13.24 3.56,13.22 Z"/>
</svg>