<?xml version="1.0" encoding="UTF-8"?>
<svg width="16px" height="16px" viewBox="0 0 16 16" version="1.1" xmlns="http://www.w3.org/2000/svg">
  <path fill="context-fill #fff" d="M11.5,8.75 L11.5,10.25 C11.5,10.66 11.16,11 10.75,11 L3.85,11 L1.92,12.92 C1.88,12.97 1.81,13 1.75,13 C1.71,13 1.68,12.99 1.65,12.98 C1.56,12.94 1.5,12.85 1.5,12.75 L1.5,11 L0.75,11 C0.33,11 0,10.66 0,10.25 L0,3.75 C0,3.33 0.33,3 0.75,3 L4.75,3 L4.75,1.5 C4.75,1 5,0.75 5.5,0.75 L15.25,0.75 C15.66,0.75 16,1 16,1.5 L16,8 C16,8.41 15.66,8.75 15.25,8.75 L14.5,8.75 L14.5,10.5 C14.5,10.601 14.43,10.69 14.34,10.73 C14.31,10.74 14.28,10.75 14.25,10.75 C14.18,10.75 14.12,10.72 14,10.67 L12.14,8.75 L11.5,8.75 Z M5.25,3 L10.75,3 C11.16,3 11.5,3.33 11.5,3.75 L11.5,8.25 L12.25,8.25 C12.31,8.25 12.38,8.27 12.42,8.32 L14,9.89 L14,8.5 C14,8.36 14.11,8.25 14.25,8.25 L15.25,8.25 C15.388,8.25 15.5,8.13 15.5,8 L15.5,1.5 C15.5,1.36 15.38,1.25 15.25,1.25 L5.5,1.25 C5.36,1.25 5.25,1.36 5.25,1.5 L5.25,3 Z M7.75,7.75 C8.16,7.75 8.5,7.41 8.5,7 C8.5,6.58 8.16,6.25 7.75,6.25 C7.33,6.25 7,6.58 7,7 C7,7.41 7.33,7.75 7.75,7.75 Z M5.75,7.75 C6.16,7.75 6.5,7.41 6.5,7 C6.5,6.58 6.16,6.25 5.75,6.25 C5.33,6.25 5,6.58 5,7 C5,7.41 5.33,7.75 5.75,7.75 Z M3.75,7.75 C4.16,7.75 4.5,7.41 4.5,7 C4.5,6.58 4.16,6.25 3.75,6.25 C3.33,6.25 3,6.58 3,7 C3,7.41 3.33,7.75 3.75,7.75 Z"/>
</svg>