<?xml version="1.0" encoding="UTF-8"?>
<svg width="13px" height="13px" viewBox="0 0 13 13" version="1.1" xmlns="http://www.w3.org/2000/svg">
  <path fill="context-fill #ccc" d="m 4.84,0.53 v 0.3 C 6,2.55 6.15,5.13 5,6.62 4.79,6.26 4.62,5.89 4.53,5.46 4.471,5.19 4.22,5.22 4.14,5.3 2.73,6.32 2.16,8 2.69,9.7 c 0.54,1.69 2,2.79 3.84,2.79 1.99,0 3.35,-1.15 3.73,-3.16 C 10.85,6.29 8.92,2 5.13,0.53 Z M 6.51,11 C 5.79,11 5.17,10.48 5,9.77 5,9.52 5.24,9.49 5.44,9.49 5.77,9.49 6.24,9.15 6.48,8.73 6.59,8.55 6.75,8.19 6.57,7.88 6.39,7.65 6.63,7.47 6.79,7.5 7.81,7.69 8,8.63 8,9.51 7.99,10.35 7.33,11 6.51,11 Z"/>
</svg>