<?xml version="1.0" encoding="UTF-8"?>
<svg width="11px" height="11px" viewBox="0 0 11 11" version="1.1" xmlns="http://www.w3.org/2000/svg">
  <path fill="context-fill #556270" d="M9.65381015,0.677833112 C8.38285182,-0.367166888 6.50551848,-0.183375221 5.46097682,1.08758311 L0.521518482,7.09633311 C-0.282398185,8.07395811 -0.141231518,9.51770811 0.836851815,10.3220831 C1.81401848,11.1255414 3.25822682,10.9843748 4.06214348,10.0067498 L8.79351848,4.25099978 C9.27568515,3.66433311 9.19135182,2.79808311 8.60468515,2.31545811 C8.01847682,1.83283311 7.15176848,1.91762478 6.66914348,2.50429145 L3.17618515,6.75304145 C3.01531015,6.94874978 3.04372682,7.23795811 3.23943515,7.39837478 C3.43468515,7.55879145 3.72343515,7.53037478 3.88431015,7.33512478 L7.37681015,3.08637478 C7.53722682,2.89112478 7.82643515,2.86270811 8.02214348,3.02312478 C8.21785182,3.18399978 8.24581015,3.47320811 8.08493515,3.66891645 C8.08401848,3.67029145 3.35401848,9.42466645 3.35401848,9.42466645 C2.87185182,10.0108748 2.00514348,10.0956664 1.41893515,9.61395811 C0.832268482,9.13179145 0.747476815,8.26508311 1.22964348,7.67841645 L6.16910182,1.66966645 C6.89235182,0.789666445 8.19172682,0.662708112 9.07172682,1.38595811 C9.95172682,2.10966645 10.0791435,3.40904145 9.35543515,4.28949978 L5.84826848,8.55520811 C5.68647682,8.75045811 5.71489348,9.04012478 5.91060182,9.20145811 C6.10493515,9.36279145 6.39276848,9.33483311 6.55410182,9.13958311 L10.0631018,4.87158311 C11.1085601,3.60108311 10.9252268,1.72283311 9.65381015,0.677833112 L9.65381015,0.677833112 Z"/>
 </svg>