<?xml version="1.0" encoding="UTF-8"?>
<svg width="16px" height="16px" viewBox="0 0 16 16" version="1.1" xmlns="http://www.w3.org/2000/svg">
  <path fill="context-fill #666" d="M2,2 L0.33,2 C0.15,2 0,2.15 0,2.3 L0,15.67 C0,15.85 0.15,16 0.33,16 L7.3,16 L7.3,13.33 L2,13.33 L2,2 Z"/>
  <path fill="context-fill #666" d="M11.33,2.3 C11.33,2.15 11.184,2 11,2 L9.3,2 L9.3,8 L11.33,8 L11.33,2.3 Z"/>
  <path fill="context-fill #666" d="M3,4.67 L8.3,4.67 C8.5,4.67 8.67,4.5 8.67,4.3 L8.67,1.67 C8.67,1.5 8.5,1.3 8.3,1.3 L7.3,1.3 C7.15,0.5767 6.45,0 5.67,0 C4.88,0 4.18,0.5733 4,1.3 L3,1.3 C2.816,1.3 2.67,1.5 2.67,1.67 L2.67,4.3 C2.67,4.5 2.816,4.67 3,4.67 Z"/>
  <path fill="context-fill #666" d="M16,10.33 C16,10.25 15.96,10.16 15.9,10 L14.57,8.764 C14.5,8.702 14.422,8.67 14.33,8.67 L8.3,8.67 C8.15,8.67 8,8.816 8,9 L8,15.67 C8,15.85 8.15,16 8.3,16 L15.67,16 C15.85,16 16,15.85 16,15.67 L16,10.33 Z M9.67,10 L13,10 C13.18,10 13.33,10.15 13.33,10.33 C13.33,10.5 13.184,10.67 13,10.67 L9.67,10.67 C9.5,10.67 9.3,10.5 9.3,10.33 C9.3,10.15 9.5,10 9.67,10 Z M14.33,14.67 L9.67,14.67 C9.5,14.67 9.3,14.5 9.3,14.33 C9.3,14.15 9.5,14 9.67,14 L14.33,14 C14.5,14 14.67,14.15 14.67,14.33 C14.67,14.5 14.5,14.67 14.33,14.67 Z M14.33,13.33 L9.67,13.33 C9.5,13.33 9.3,13.18 9.3,13 C9.3,12.81 9.5,12.67 9.67,12.67 L14.33,12.67 C14.5,12.67 14.67,12.816 14.67,13 C14.67,13.18 14.5,13.33 14.33,13.33 Z M14.33,12 L9.67,12 C9.48,12 9.3,11.85 9.3,11.67 C9.3,11.5 9.5,11.33 9.67,11.33 L14.33,11.33 C14.5,11.33 14.67,11.5 14.67,11.67 C14.67,11.85 14.5,12 14.33,12 Z"/>
</svg>