<?xml version="1.0" encoding="utf-8"?>
<!-- Generator: Adobe Illustrator 22.1.0, SVG Export Plug-In . SVG Version: 6.00 Build 0)  -->
<svg version="1.1" id="Livello_1" xmlns="http://www.w3.org/2000/svg" xmlns:xlink="http://www.w3.org/1999/xlink" x="0px" y="0px"
	 viewBox="0 0 16 16" style="enable-background:new 0 0 16 16;" xml:space="preserve">
<style type="text/css">
	.st0{fill:#FFFFFF;}
</style>
<path class="st0" d="M14.3,4.7H1.7C0.7,4.7,0,5.4,0,6.3v4C0,11.3,0.7,12,1.7,12h1.7v3c0,0.2,0.2,0.3,0.3,0.3h8.7
	c0.2,0,0.3-0.1,0.3-0.3v-3h1.7c0.9,0,1.7-0.8,1.7-1.7v-4C16,5.4,15.3,4.7,14.3,4.7z M2.3,8c-0.5,0-1-0.4-1-1c0-0.6,0.4-1,1-1
	c0.5,0,1,0.4,1,1C3.3,7.6,2.9,8,2.3,8z M12,14.7H4V10h8V14.7z"/>
<path class="st0" d="M3.7,4h8.7c0.2,0,0.3-0.2,0.3-0.3V3c0,0,0-0.2,0-0.2l-2-2c0,0-0.1,0-0.2,0H3.7c-0.2,0-0.3,0.1-0.3,0.3v2.6
	C3.3,3.8,3.5,4,3.7,4z M10.3,1l2,2h-2V1z"/>
</svg>
