<?xml version="1.0" encoding="UTF-8"?>
<svg width="16px" height="16px" viewBox="0 0 16 16" version="1.1" xmlns="http://www.w3.org/2000/svg">
  <path fill="context-fill #666" d="m 8.32,11 c 0.2,0.2 0.51,0 0.51,-0.21 V 8.68 c 1.65,0 4.46,0.4 4.56,1.75 0,1.33 -1,3.21 -1.62,3.86 -0.21,0.24 0,0.62 0.36,0.47 1.9,-0.97 3.8,-3.6 3.84,-5.65 0,-3 -3.33,-4.75 -6.44,-4.75 -0.24,0 -0.5,0 -0.71,0 V 2.3 c 0,-0.27 -0.31,-0.41 -0.51,-0.21 L 4,6.36 c -0.12,0.12 -0.12,0.3 0,0.42 z"/>
  <path fill="context-fill #666" d="m 4.53,8.83 v 2.03 c 0,0.25 -0.31,0.38 -0.48,0.19 L 0,6.77 C -0.1,6.67 -0.1,6.49 0,6.39 L 4.12,2 C 4.29,1.82 4.61,2 4.6,2.19 V 4.22 L 2.48,6.47 Z"/>
</svg>