<?xml version="1.0" encoding="UTF-8"?>
<svg width="16px" height="16px" viewBox="0 0 16 16" version="1.1" xmlns="http://www.w3.org/2000/svg">
  <path fill="context-fill #fff" d="M15.66,1.57 C15.85,1.57 16,1.71 16,1.89 L16,12.83 C16,13 15.85,13.15 15.66,13.15 L0.33,13.15 C0.15,13.15 0,13 0,12.83 L0,0.6 C0,0.43 0.15,0.28 0.33,0.28 L5,0.28 C5,0.28 5.17,0.32 5.23,0.38 L6.47,1.57 L15.66,1.57 Z M10,10 C10.7103333,10 11.363,9.75 11.87,9.336 L14.43,11.9 C14.56,12 14.77,12 14.9,11.9 C15,11.77 15,11.56 14.9,11.43 L12.34,8.86 C12.75,8.35 13,7.7 13,7 C13,5.34 11.65,4 10,4 C8.34,4 7,5.34 7,7 C7,8.654 8.34,10 10,10 Z M10,4.66 C11.28,4.66 12.33,5.71 12.33,7 C12.33,8.28 11.28,9.33 10,9.33 C8.71,9.33 7.66,8.28 7.66,7 C7.66,5.71 8.71,4.66 10,4.66 Z"/>
</svg>