<?xml version="1.0" encoding="UTF-8"?>
<svg width="16px" height="16px" viewBox="0 0 16 16" version="1.1" xmlns="http://www.w3.org/2000/svg">
  <path fill="context-fill #666" d="M 8,0.33 C 3.77,0.33 0.33,3.77 0.33,8 c 0,4.22 3.44,7.66 7.66,7.66 4.22,0 7.66,-3.44 7.66,-7.66 0,-4.22 -3.44,-7.66 -7.66,-7.66 z M 12.47,10.12 c 0.13,0.13 0.13,0.34 0,0.47 l -1.88,1.88 c -0.12,0.12 -0.34,0.12 -0.47,0 l -2.12,-2.12 -2.12,2.12 c -0.12,0.12 -0.34,0.12 -0.47,0 l -1.88,-1.88 c -0.13,-0.13 -0.13,-0.34 0,-0.47 L 5.64,8 3.52,5.87 c -0.13,-0.13 -0.13,-0.34 0,-0.47 L 5.4,3.52 C 5.53,3.4 5.75,3.4 5.87,3.52 L 8,5.64 10.12,3.52 c 0.12,-0.12 0.34,-0.12 0.47,0 l 1.88,1.88 c 0.13,0.13 0.13,0.34 0,0.47 L 10.35,8 Z"/>
</svg>