<?xml version="1.0" encoding="UTF-8"?>
<svg width="15px" height="15px" viewBox="0 0 15 15" version="1.1" xmlns="http://www.w3.org/2000/svg">
  <path fill="context-fill #fff" fill-rule="evenodd" d="M 12.5,14.29 H 2.5 V 0.291 l 6.212,-4.4367e-4 1.67e-4,3.753 L 12.5,4.044 Z M 4.1218486,4.1 H 7.1672267 V 2.5438408 H 4.1218486 Z M 3.7184873,2.3310721 c 0,-0.11301 0.095221,-0.2 0.2,-0.2 h 3.4378895 c 0.1143813,0 0.2,0.1 0.2,0.2 v 1.99 c 0,0.11 -0.095221,0.2 -0.2,0.2 H 3.93 c -0.11,0 -0.2,-0.1 -0.2,-0.2 z M 4.1218486,8.0534057 H 10.878151 V 6.4881883 H 4.1218486 Z M 3.7184873,6.2754197 c 0,-0.11 0.084936,-0.2 0.2,-0.2 H 11.07922 c 0.11,0 0.2,0.1 0.2,0.2 v 1.9907546 c 0,0.11301 -0.08494,0.2 -0.2,0.2 H 3.9207799 c -0.1117231,0 -0.2,-0.1 -0.2,-0.2 z M 4.1218486,11.914276 H 10.878151 V 10.349059 H 4.1218486 Z M 3.7184873,10.13629 c 0,-0.11 0.084936,-0.2 0.2,-0.2 H 11.07922 c 0.111723,0 0.202293,0.1 0.2,0.2 v 1.99 c 0,0.11 -0.08494,0.2 -0.2,0.2 H 3.92 c -0.11,0 -0.2,-0.1 -0.2,-0.2 z"/>
  <path fill="context-fill #fff" d="M 9.21,0.61 12.19,3.544 H 9.21 Z"/>
</svg>
