<?xml version="1.0" encoding="UTF-8"?>
<svg width="16px" height="16px" viewBox="0 0 16 16" version="1.1" xmlns="http://www.w3.org/2000/svg">
  <path fill="context-fill #666" d="M15.6 1.3h-2.3V.33c0-.18-.12-.33-.3-.33h-2c-.2 0-.4.15-.4.33v.97H5.3V.33C5.3.15 5.18 0 5 0H3c-.2 0-.34.15-.34.33v.97H.33c-.18 0-.33.18-.33.36V5h16V1.66c0-.18-.15-.36-.4-.36zM4.66 2.66H3.3V.6h1.36zm7.94 0h-1.3V.6h1.3zM16 5v10c0 .47-.52 1-1 1H1c-.48 0-1-.53-1-1V5h1v10h14V5z"/>
  <path fill="context-fill #666" d="M9 7.13V10h2.4c.1 0 .1 0 .1.1L8 14l-3.5-3.9c0-.1.05-.1.1-.1H7V7.13c0-.07.07-.13.14-.13h1.7c.1 0 .16.06.16.13z"/>
</svg>